%TF.GenerationSoftware,KiCad,Pcbnew,8.0.0*%
%TF.CreationDate,2024-04-12T00:00:07-04:00*%
%TF.ProjectId,Business card PCB,42757369-6e65-4737-9320-636172642050,rev?*%
%TF.SameCoordinates,Original*%
%TF.FileFunction,Paste,Bot*%
%TF.FilePolarity,Positive*%
%FSLAX46Y46*%
G04 Gerber Fmt 4.6, Leading zero omitted, Abs format (unit mm)*
G04 Created by KiCad (PCBNEW 8.0.0) date 2024-04-12 00:00:07*
%MOMM*%
%LPD*%
G01*
G04 APERTURE LIST*
G04 Aperture macros list*
%AMRoundRect*
0 Rectangle with rounded corners*
0 $1 Rounding radius*
0 $2 $3 $4 $5 $6 $7 $8 $9 X,Y pos of 4 corners*
0 Add a 4 corners polygon primitive as box body*
4,1,4,$2,$3,$4,$5,$6,$7,$8,$9,$2,$3,0*
0 Add four circle primitives for the rounded corners*
1,1,$1+$1,$2,$3*
1,1,$1+$1,$4,$5*
1,1,$1+$1,$6,$7*
1,1,$1+$1,$8,$9*
0 Add four rect primitives between the rounded corners*
20,1,$1+$1,$2,$3,$4,$5,0*
20,1,$1+$1,$4,$5,$6,$7,0*
20,1,$1+$1,$6,$7,$8,$9,0*
20,1,$1+$1,$8,$9,$2,$3,0*%
G04 Aperture macros list end*
%ADD10RoundRect,0.150000X-0.150000X0.800000X-0.150000X-0.800000X0.150000X-0.800000X0.150000X0.800000X0*%
%ADD11RoundRect,0.250000X0.275000X0.275000X-0.275000X0.275000X-0.275000X-0.275000X0.275000X-0.275000X0*%
%ADD12RoundRect,0.062500X0.475000X0.062500X-0.475000X0.062500X-0.475000X-0.062500X0.475000X-0.062500X0*%
%ADD13RoundRect,0.062500X0.062500X0.475000X-0.062500X0.475000X-0.062500X-0.475000X0.062500X-0.475000X0*%
%ADD14RoundRect,0.207500X0.207500X0.207500X-0.207500X0.207500X-0.207500X-0.207500X0.207500X-0.207500X0*%
%ADD15RoundRect,0.075000X0.662500X0.075000X-0.662500X0.075000X-0.662500X-0.075000X0.662500X-0.075000X0*%
%ADD16RoundRect,0.075000X0.075000X0.662500X-0.075000X0.662500X-0.075000X-0.662500X0.075000X-0.662500X0*%
G04 APERTURE END LIST*
D10*
%TO.C,SOP20*%
X141035000Y-67150000D03*
X142305000Y-67150000D03*
X143575000Y-67150000D03*
X144845000Y-67150000D03*
X146115000Y-67150000D03*
X147385000Y-67150000D03*
X148655000Y-67150000D03*
X149925000Y-67150000D03*
X151195000Y-67150000D03*
X152465000Y-67150000D03*
X152465000Y-76350000D03*
X151195000Y-76350000D03*
X149925000Y-76350000D03*
X148655000Y-76350000D03*
X147385000Y-76350000D03*
X146115000Y-76350000D03*
X144845000Y-76350000D03*
X143575000Y-76350000D03*
X142305000Y-76350000D03*
X141035000Y-76350000D03*
%TD*%
D11*
%TO.C,QFN44*%
X161300000Y-70897000D03*
X161300000Y-72197000D03*
X161300000Y-73497000D03*
X161300000Y-74797000D03*
X160000000Y-70897000D03*
X160000000Y-72197000D03*
X160000000Y-73497000D03*
X160000000Y-74797000D03*
X158700000Y-70897000D03*
X158700000Y-72197000D03*
X158700000Y-73497000D03*
X158700000Y-74797000D03*
X157400000Y-70897000D03*
X157400000Y-72197000D03*
X157400000Y-73497000D03*
X157400000Y-74797000D03*
D12*
X162687500Y-70347000D03*
X162687500Y-70847000D03*
X162687500Y-71347000D03*
X162687500Y-71847000D03*
X162687500Y-72347000D03*
X162687500Y-72847000D03*
X162687500Y-73347000D03*
X162687500Y-73847000D03*
X162687500Y-74347000D03*
X162687500Y-74847000D03*
X162687500Y-75347000D03*
D13*
X161850000Y-76184500D03*
X161350000Y-76184500D03*
X160850000Y-76184500D03*
X160350000Y-76184500D03*
X159850000Y-76184500D03*
X159350000Y-76184500D03*
X158850000Y-76184500D03*
X158350000Y-76184500D03*
X157850000Y-76184500D03*
X157350000Y-76184500D03*
X156850000Y-76184500D03*
D12*
X156012500Y-75347000D03*
X156012500Y-74847000D03*
X156012500Y-74347000D03*
X156012500Y-73847000D03*
X156012500Y-73347000D03*
X156012500Y-72847000D03*
X156012500Y-72347000D03*
X156012500Y-71847000D03*
X156012500Y-71347000D03*
X156012500Y-70847000D03*
X156012500Y-70347000D03*
D13*
X156850000Y-69509500D03*
X157350000Y-69509500D03*
X157850000Y-69509500D03*
X158350000Y-69509500D03*
X158850000Y-69509500D03*
X159350000Y-69509500D03*
X159850000Y-69509500D03*
X160350000Y-69509500D03*
X160850000Y-69509500D03*
X161350000Y-69509500D03*
X161850000Y-69509500D03*
%TD*%
D14*
%TO.C,TQFP48*%
X172750000Y-71190000D03*
X172750000Y-72220000D03*
X172750000Y-73250000D03*
X172750000Y-74280000D03*
X171720000Y-71190000D03*
X171720000Y-72220000D03*
X171720000Y-73250000D03*
X171720000Y-74280000D03*
X170690000Y-71190000D03*
X170690000Y-72220000D03*
X170690000Y-73250000D03*
X170690000Y-74280000D03*
X169660000Y-71190000D03*
X169660000Y-72220000D03*
X169660000Y-73250000D03*
X169660000Y-74280000D03*
D15*
X175367500Y-69985000D03*
X175367500Y-70485000D03*
X175367500Y-70985000D03*
X175367500Y-71485000D03*
X175367500Y-71985000D03*
X175367500Y-72485000D03*
X175367500Y-72985000D03*
X175367500Y-73485000D03*
X175367500Y-73985000D03*
X175367500Y-74485000D03*
X175367500Y-74985000D03*
X175367500Y-75485000D03*
D16*
X173955000Y-76897500D03*
X173455000Y-76897500D03*
X172955000Y-76897500D03*
X172455000Y-76897500D03*
X171955000Y-76897500D03*
X171455000Y-76897500D03*
X170955000Y-76897500D03*
X170455000Y-76897500D03*
X169955000Y-76897500D03*
X169455000Y-76897500D03*
X168955000Y-76897500D03*
X168455000Y-76897500D03*
D15*
X167042500Y-75485000D03*
X167042500Y-74985000D03*
X167042500Y-74485000D03*
X167042500Y-73985000D03*
X167042500Y-73485000D03*
X167042500Y-72985000D03*
X167042500Y-72485000D03*
X167042500Y-71985000D03*
X167042500Y-71485000D03*
X167042500Y-70985000D03*
X167042500Y-70485000D03*
X167042500Y-69985000D03*
D16*
X168455000Y-68572500D03*
X168955000Y-68572500D03*
X169455000Y-68572500D03*
X169955000Y-68572500D03*
X170455000Y-68572500D03*
X170955000Y-68572500D03*
X171455000Y-68572500D03*
X171955000Y-68572500D03*
X172455000Y-68572500D03*
X172955000Y-68572500D03*
X173455000Y-68572500D03*
X173955000Y-68572500D03*
%TD*%
M02*
