%TF.GenerationSoftware,KiCad,Pcbnew,8.0.0*%
%TF.CreationDate,2024-04-12T00:00:07-04:00*%
%TF.ProjectId,Business card PCB,42757369-6e65-4737-9320-636172642050,rev?*%
%TF.SameCoordinates,Original*%
%TF.FileFunction,Soldermask,Top*%
%TF.FilePolarity,Negative*%
%FSLAX46Y46*%
G04 Gerber Fmt 4.6, Leading zero omitted, Abs format (unit mm)*
G04 Created by KiCad (PCBNEW 8.0.0) date 2024-04-12 00:00:07*
%MOMM*%
%LPD*%
G01*
G04 APERTURE LIST*
G04 Aperture macros list*
%AMRoundRect*
0 Rectangle with rounded corners*
0 $1 Rounding radius*
0 $2 $3 $4 $5 $6 $7 $8 $9 X,Y pos of 4 corners*
0 Add a 4 corners polygon primitive as box body*
4,1,4,$2,$3,$4,$5,$6,$7,$8,$9,$2,$3,0*
0 Add four circle primitives for the rounded corners*
1,1,$1+$1,$2,$3*
1,1,$1+$1,$4,$5*
1,1,$1+$1,$6,$7*
1,1,$1+$1,$8,$9*
0 Add four rect primitives between the rounded corners*
20,1,$1+$1,$2,$3,$4,$5,0*
20,1,$1+$1,$4,$5,$6,$7,0*
20,1,$1+$1,$6,$7,$8,$9,0*
20,1,$1+$1,$8,$9,$2,$3,0*%
G04 Aperture macros list end*
%ADD10C,4.300000*%
%ADD11R,1.200000X1.500000*%
%ADD12R,1.500000X1.800000*%
%ADD13R,2.100000X2.600000*%
%ADD14C,5.700000*%
%ADD15C,0.800000*%
%ADD16C,6.400000*%
%ADD17C,2.200000*%
%ADD18RoundRect,0.250000X-0.362500X-1.425000X0.362500X-1.425000X0.362500X1.425000X-0.362500X1.425000X0*%
%ADD19RoundRect,0.250000X-0.362500X-1.075000X0.362500X-1.075000X0.362500X1.075000X-0.362500X1.075000X0*%
%ADD20RoundRect,0.250000X-0.312500X-1.450000X0.312500X-1.450000X0.312500X1.450000X-0.312500X1.450000X0*%
%ADD21RoundRect,0.250000X-0.312500X-1.075000X0.312500X-1.075000X0.312500X1.075000X-0.312500X1.075000X0*%
%ADD22RoundRect,0.250000X0.312500X0.625000X-0.312500X0.625000X-0.312500X-0.625000X0.312500X-0.625000X0*%
%ADD23RoundRect,0.250000X0.262500X0.450000X-0.262500X0.450000X-0.262500X-0.450000X0.262500X-0.450000X0*%
%ADD24RoundRect,0.200000X0.200000X0.275000X-0.200000X0.275000X-0.200000X-0.275000X0.200000X-0.275000X0*%
%ADD25RoundRect,0.135000X-0.135000X-0.185000X0.135000X-0.185000X0.135000X0.185000X-0.135000X0.185000X0*%
%ADD26RoundRect,0.100000X-0.130000X-0.100000X0.130000X-0.100000X0.130000X0.100000X-0.130000X0.100000X0*%
%ADD27RoundRect,0.125000X0.125000X-0.175000X0.125000X0.175000X-0.125000X0.175000X-0.125000X-0.175000X0*%
%ADD28RoundRect,0.250000X0.300000X-2.050000X0.300000X2.050000X-0.300000X2.050000X-0.300000X-2.050000X0*%
%ADD29RoundRect,0.250002X5.149998X-4.449998X5.149998X4.449998X-5.149998X4.449998X-5.149998X-4.449998X0*%
%ADD30RoundRect,0.250000X0.350000X-0.850000X0.350000X0.850000X-0.350000X0.850000X-0.350000X-0.850000X0*%
%ADD31RoundRect,0.249997X2.650003X-2.950003X2.650003X2.950003X-2.650003X2.950003X-2.650003X-2.950003X0*%
%ADD32RoundRect,0.100000X0.100000X-0.125000X0.100000X0.125000X-0.100000X0.125000X-0.100000X-0.125000X0*%
%ADD33RoundRect,0.112500X-0.112500X-0.237500X0.112500X-0.237500X0.112500X0.237500X-0.112500X0.237500X0*%
%ADD34RoundRect,0.162500X0.162500X-0.447500X0.162500X0.447500X-0.162500X0.447500X-0.162500X-0.447500X0*%
%ADD35O,1.350000X1.350000*%
%ADD36R,1.350000X1.350000*%
%ADD37O,1.000000X1.000000*%
%ADD38R,1.000000X1.000000*%
%ADD39O,1.700000X1.700000*%
%ADD40R,1.700000X1.700000*%
%ADD41R,1.500000X1.000000*%
%ADD42R,1.600000X0.850000*%
%ADD43R,1.500000X1.100000*%
%ADD44R,2.200000X2.200000*%
%ADD45R,1.250000X2.200000*%
%ADD46RoundRect,0.225000X-0.225000X-0.375000X0.225000X-0.375000X0.225000X0.375000X-0.225000X0.375000X0*%
%ADD47RoundRect,0.150000X0.150000X0.200000X-0.150000X0.200000X-0.150000X-0.200000X0.150000X-0.200000X0*%
%ADD48RoundRect,0.112500X-0.187500X-0.112500X0.187500X-0.112500X0.187500X0.112500X-0.187500X0.112500X0*%
%ADD49RoundRect,0.250000X1.000000X-1.400000X1.000000X1.400000X-1.000000X1.400000X-1.000000X-1.400000X0*%
%ADD50RoundRect,0.250000X-1.000000X-0.900000X1.000000X-0.900000X1.000000X0.900000X-1.000000X0.900000X0*%
%ADD51RoundRect,0.250000X-1.000000X-0.650000X1.000000X-0.650000X1.000000X0.650000X-1.000000X0.650000X0*%
G04 APERTURE END LIST*
D10*
%TO.C,M4*%
X115300000Y-105650000D03*
%TD*%
D11*
%TO.C,MicroMELF*%
X146450000Y-105200000D03*
X144550000Y-105200000D03*
%TD*%
D12*
%TO.C,MiniMELF*%
X137250000Y-105350000D03*
X134250000Y-105350000D03*
%TD*%
D13*
%TO.C,MELF*%
X127950000Y-105750000D03*
X123050000Y-105750000D03*
%TD*%
D14*
%TO.C,M3*%
X191940000Y-59220000D03*
%TD*%
D15*
%TO.C,M3*%
X117030000Y-59520000D03*
X116327056Y-61217056D03*
X116327056Y-57822944D03*
X114630000Y-61920000D03*
D16*
X114630000Y-59520000D03*
D15*
X114630000Y-57120000D03*
X112932944Y-61217056D03*
X112932944Y-57822944D03*
X112230000Y-59520000D03*
%TD*%
D17*
%TO.C,M2*%
X192630000Y-107690000D03*
%TD*%
D18*
%TO.C,2512*%
X116535000Y-98405000D03*
X122460000Y-98405000D03*
%TD*%
D19*
%TO.C,2010*%
X116545000Y-93220000D03*
X121170000Y-93220000D03*
%TD*%
D20*
%TO.C,1812*%
X116490000Y-88005000D03*
X120765000Y-88005000D03*
%TD*%
D21*
%TO.C,1210*%
X116495000Y-82790000D03*
X119420000Y-82790000D03*
%TD*%
D22*
%TO.C,1206*%
X119420000Y-78405000D03*
X116495000Y-78405000D03*
%TD*%
D23*
%TO.C,0805*%
X118270000Y-74650000D03*
X116445000Y-74650000D03*
%TD*%
D24*
%TO.C,0603*%
X117982500Y-71285000D03*
X116332500Y-71285000D03*
%TD*%
D25*
%TO.C,0402*%
X116097500Y-68400000D03*
X117117500Y-68400000D03*
%TD*%
D26*
%TO.C,0201*%
X116697500Y-65895000D03*
X116057500Y-65895000D03*
%TD*%
D27*
%TO.C,SOT416*%
X132880000Y-71665832D03*
X133380000Y-72965832D03*
X132380000Y-72965832D03*
%TD*%
D28*
%TO.C,D2PAK*%
X139600000Y-86590000D03*
D29*
X142140000Y-77440000D03*
D28*
X144680000Y-86590000D03*
%TD*%
D30*
%TO.C,DPAK*%
X139862500Y-68927500D03*
D31*
X142142500Y-62627500D03*
D30*
X144422500Y-68927500D03*
%TD*%
D32*
%TO.C,SOT723*%
X132880000Y-75750000D03*
X133280000Y-76900000D03*
X132480000Y-76900000D03*
%TD*%
D33*
%TO.C,SOT323*%
X132982500Y-66731666D03*
X133632500Y-68731666D03*
X132332500Y-68731666D03*
%TD*%
D34*
%TO.C,SOT23*%
X132987500Y-60867500D03*
X133937500Y-63487500D03*
X132037500Y-63487500D03*
%TD*%
D35*
%TO.C,2.00mm*%
X182765000Y-82460000D03*
X182765000Y-80460000D03*
X182765000Y-78460000D03*
X182765000Y-76460000D03*
X182765000Y-74460000D03*
X182765000Y-72460000D03*
X182765000Y-70460000D03*
X182765000Y-68460000D03*
X182765000Y-66460000D03*
D36*
X182765000Y-64460000D03*
%TD*%
D37*
%TO.C,1.27mm*%
X178710000Y-75540000D03*
X178710000Y-74270000D03*
X178710000Y-73000000D03*
X178710000Y-71730000D03*
X178710000Y-70460000D03*
X178710000Y-69190000D03*
X178710000Y-67920000D03*
X178710000Y-66650000D03*
X178710000Y-65380000D03*
D38*
X178710000Y-64110000D03*
%TD*%
D39*
%TO.C,2.54mm*%
X187070000Y-87620000D03*
X187070000Y-85080000D03*
X187070000Y-82540000D03*
X187070000Y-80000000D03*
X187070000Y-77460000D03*
X187070000Y-74920000D03*
X187070000Y-72380000D03*
X187070000Y-69840000D03*
X187070000Y-67300000D03*
D40*
X187070000Y-64760000D03*
%TD*%
D41*
%TO.C,5050*%
X167870000Y-70050000D03*
X167870000Y-66850000D03*
X162970000Y-66850000D03*
X162970000Y-70050000D03*
%TD*%
D42*
%TO.C,3535*%
X163670000Y-60570000D03*
X163670000Y-62320000D03*
X167170000Y-62320000D03*
X167170000Y-60570000D03*
%TD*%
D43*
%TO.C,3228*%
X156497522Y-66565000D03*
X159497522Y-66565000D03*
X159497522Y-68065000D03*
X156497522Y-68065000D03*
%TD*%
D44*
%TO.C,2835*%
X157080000Y-61095000D03*
D45*
X159355000Y-61095000D03*
%TD*%
D46*
%TO.C,SOD-123*%
X154150000Y-79670000D03*
X150850000Y-79670000D03*
%TD*%
D47*
%TO.C,SOD-523*%
X152100000Y-73460000D03*
X150700000Y-73460000D03*
%TD*%
D48*
%TO.C,SOD-323*%
X152800000Y-76340000D03*
X150700000Y-76340000D03*
%TD*%
D49*
%TO.C,SMC*%
X151650000Y-95860000D03*
X158450000Y-95860000D03*
%TD*%
D50*
%TO.C,SMB*%
X151650000Y-89030000D03*
X155950000Y-89030000D03*
%TD*%
D51*
%TO.C,SMA*%
X151650000Y-83800000D03*
X155650000Y-83800000D03*
%TD*%
M02*
