%TF.GenerationSoftware,KiCad,Pcbnew,8.0.0*%
%TF.CreationDate,2024-04-12T00:00:07-04:00*%
%TF.ProjectId,Business card PCB,42757369-6e65-4737-9320-636172642050,rev?*%
%TF.SameCoordinates,Original*%
%TF.FileFunction,Paste,Top*%
%TF.FilePolarity,Positive*%
%FSLAX46Y46*%
G04 Gerber Fmt 4.6, Leading zero omitted, Abs format (unit mm)*
G04 Created by KiCad (PCBNEW 8.0.0) date 2024-04-12 00:00:07*
%MOMM*%
%LPD*%
G01*
G04 APERTURE LIST*
G04 Aperture macros list*
%AMRoundRect*
0 Rectangle with rounded corners*
0 $1 Rounding radius*
0 $2 $3 $4 $5 $6 $7 $8 $9 X,Y pos of 4 corners*
0 Add a 4 corners polygon primitive as box body*
4,1,4,$2,$3,$4,$5,$6,$7,$8,$9,$2,$3,0*
0 Add four circle primitives for the rounded corners*
1,1,$1+$1,$2,$3*
1,1,$1+$1,$4,$5*
1,1,$1+$1,$6,$7*
1,1,$1+$1,$8,$9*
0 Add four rect primitives between the rounded corners*
20,1,$1+$1,$2,$3,$4,$5,0*
20,1,$1+$1,$4,$5,$6,$7,0*
20,1,$1+$1,$6,$7,$8,$9,0*
20,1,$1+$1,$8,$9,$2,$3,0*%
G04 Aperture macros list end*
%ADD10R,1.200000X1.500000*%
%ADD11R,1.500000X1.800000*%
%ADD12R,2.100000X2.600000*%
%ADD13RoundRect,0.250000X-0.362500X-1.425000X0.362500X-1.425000X0.362500X1.425000X-0.362500X1.425000X0*%
%ADD14RoundRect,0.250000X-0.362500X-1.075000X0.362500X-1.075000X0.362500X1.075000X-0.362500X1.075000X0*%
%ADD15RoundRect,0.250000X-0.312500X-1.450000X0.312500X-1.450000X0.312500X1.450000X-0.312500X1.450000X0*%
%ADD16RoundRect,0.250000X-0.312500X-1.075000X0.312500X-1.075000X0.312500X1.075000X-0.312500X1.075000X0*%
%ADD17RoundRect,0.250000X0.312500X0.625000X-0.312500X0.625000X-0.312500X-0.625000X0.312500X-0.625000X0*%
%ADD18RoundRect,0.250000X0.262500X0.450000X-0.262500X0.450000X-0.262500X-0.450000X0.262500X-0.450000X0*%
%ADD19RoundRect,0.200000X0.200000X0.275000X-0.200000X0.275000X-0.200000X-0.275000X0.200000X-0.275000X0*%
%ADD20RoundRect,0.135000X-0.135000X-0.185000X0.135000X-0.185000X0.135000X0.185000X-0.135000X0.185000X0*%
%ADD21RoundRect,0.079500X-0.079500X-0.100500X0.079500X-0.100500X0.079500X0.100500X-0.079500X0.100500X0*%
%ADD22RoundRect,0.125000X0.125000X-0.175000X0.125000X0.175000X-0.125000X0.175000X-0.125000X-0.175000X0*%
%ADD23RoundRect,0.250000X0.300000X-2.050000X0.300000X2.050000X-0.300000X2.050000X-0.300000X-2.050000X0*%
%ADD24RoundRect,0.250000X2.375000X-2.025000X2.375000X2.025000X-2.375000X2.025000X-2.375000X-2.025000X0*%
%ADD25RoundRect,0.250000X0.350000X-0.850000X0.350000X0.850000X-0.350000X0.850000X-0.350000X-0.850000X0*%
%ADD26RoundRect,0.250000X1.125000X-1.275000X1.125000X1.275000X-1.125000X1.275000X-1.125000X-1.275000X0*%
%ADD27RoundRect,0.100000X0.100000X-0.125000X0.100000X0.125000X-0.100000X0.125000X-0.100000X-0.125000X0*%
%ADD28RoundRect,0.112500X-0.112500X-0.237500X0.112500X-0.237500X0.112500X0.237500X-0.112500X0.237500X0*%
%ADD29RoundRect,0.162500X0.162500X-0.447500X0.162500X0.447500X-0.162500X0.447500X-0.162500X-0.447500X0*%
%ADD30R,1.500000X1.000000*%
%ADD31R,1.600000X0.850000*%
%ADD32R,1.500000X1.100000*%
%ADD33R,2.200000X2.200000*%
%ADD34R,1.250000X2.200000*%
%ADD35RoundRect,0.225000X-0.225000X-0.375000X0.225000X-0.375000X0.225000X0.375000X-0.225000X0.375000X0*%
%ADD36RoundRect,0.150000X0.150000X0.200000X-0.150000X0.200000X-0.150000X-0.200000X0.150000X-0.200000X0*%
%ADD37RoundRect,0.112500X-0.187500X-0.112500X0.187500X-0.112500X0.187500X0.112500X-0.187500X0.112500X0*%
%ADD38RoundRect,0.250000X1.000000X-1.400000X1.000000X1.400000X-1.000000X1.400000X-1.000000X-1.400000X0*%
%ADD39RoundRect,0.250000X-1.000000X-0.900000X1.000000X-0.900000X1.000000X0.900000X-1.000000X0.900000X0*%
%ADD40RoundRect,0.250000X-1.000000X-0.650000X1.000000X-0.650000X1.000000X0.650000X-1.000000X0.650000X0*%
G04 APERTURE END LIST*
D10*
%TO.C,MicroMELF*%
X146450000Y-105200000D03*
X144550000Y-105200000D03*
%TD*%
D11*
%TO.C,MiniMELF*%
X137250000Y-105350000D03*
X134250000Y-105350000D03*
%TD*%
D12*
%TO.C,MELF*%
X127950000Y-105750000D03*
X123050000Y-105750000D03*
%TD*%
D13*
%TO.C,2512*%
X116535000Y-98405000D03*
X122460000Y-98405000D03*
%TD*%
D14*
%TO.C,2010*%
X116545000Y-93220000D03*
X121170000Y-93220000D03*
%TD*%
D15*
%TO.C,1812*%
X116490000Y-88005000D03*
X120765000Y-88005000D03*
%TD*%
D16*
%TO.C,1210*%
X116495000Y-82790000D03*
X119420000Y-82790000D03*
%TD*%
D17*
%TO.C,1206*%
X119420000Y-78405000D03*
X116495000Y-78405000D03*
%TD*%
D18*
%TO.C,0805*%
X118270000Y-74650000D03*
X116445000Y-74650000D03*
%TD*%
D19*
%TO.C,0603*%
X117982500Y-71285000D03*
X116332500Y-71285000D03*
%TD*%
D20*
%TO.C,0402*%
X116097500Y-68400000D03*
X117117500Y-68400000D03*
%TD*%
D21*
%TO.C,0201*%
X116722500Y-65895000D03*
X116032500Y-65895000D03*
%TD*%
D22*
%TO.C,SOT416*%
X132880000Y-71665832D03*
X133380000Y-72965832D03*
X132380000Y-72965832D03*
%TD*%
D23*
%TO.C,D2PAK*%
X139600000Y-86590000D03*
D24*
X139365000Y-79865000D03*
X144915000Y-79865000D03*
X139365000Y-75015000D03*
X144915000Y-75015000D03*
D23*
X144680000Y-86590000D03*
%TD*%
D25*
%TO.C,DPAK*%
X139862500Y-68927500D03*
D26*
X140617500Y-64302500D03*
X143667500Y-64302500D03*
X140617500Y-60952500D03*
X143667500Y-60952500D03*
D25*
X144422500Y-68927500D03*
%TD*%
D27*
%TO.C,SOT723*%
X132880000Y-75750000D03*
X133280000Y-76900000D03*
X132480000Y-76900000D03*
%TD*%
D28*
%TO.C,SOT323*%
X132982500Y-66731666D03*
X133632500Y-68731666D03*
X132332500Y-68731666D03*
%TD*%
D29*
%TO.C,SOT23*%
X132987500Y-60867500D03*
X133937500Y-63487500D03*
X132037500Y-63487500D03*
%TD*%
D30*
%TO.C,5050*%
X167870000Y-70050000D03*
X167870000Y-66850000D03*
X162970000Y-66850000D03*
X162970000Y-70050000D03*
%TD*%
D31*
%TO.C,3535*%
X163670000Y-60570000D03*
X163670000Y-62320000D03*
X167170000Y-62320000D03*
X167170000Y-60570000D03*
%TD*%
D32*
%TO.C,3228*%
X156497522Y-66565000D03*
X159497522Y-66565000D03*
X159497522Y-68065000D03*
X156497522Y-68065000D03*
%TD*%
D33*
%TO.C,2835*%
X157080000Y-61095000D03*
D34*
X159355000Y-61095000D03*
%TD*%
D35*
%TO.C,SOD-123*%
X154150000Y-79670000D03*
X150850000Y-79670000D03*
%TD*%
D36*
%TO.C,SOD-523*%
X152100000Y-73460000D03*
X150700000Y-73460000D03*
%TD*%
D37*
%TO.C,SOD-323*%
X152800000Y-76340000D03*
X150700000Y-76340000D03*
%TD*%
D38*
%TO.C,SMC*%
X151650000Y-95860000D03*
X158450000Y-95860000D03*
%TD*%
D39*
%TO.C,SMB*%
X151650000Y-89030000D03*
X155950000Y-89030000D03*
%TD*%
D40*
%TO.C,SMA*%
X151650000Y-83800000D03*
X155650000Y-83800000D03*
%TD*%
M02*
