M48
; DRILL file {KiCad 8.0.0} date 2024-05-09T17:34:11-0400
; FORMAT={-:-/ absolute / metric / decimal}
; #@! TF.CreationDate,2024-05-09T17:34:11-04:00
; #@! TF.GenerationSoftware,Kicad,Pcbnew,8.0.0
; #@! TF.FileFunction,Plated,1,2,PTH
FMAT,2
METRIC
; #@! TA.AperFunction,Plated,PTH,ViaDrill
T1C0.381
; #@! TA.AperFunction,Plated,PTH,ViaDrill
T2C0.457
; #@! TA.AperFunction,Plated,PTH,ComponentDrill
T3C0.500
; #@! TA.AperFunction,Plated,PTH,ViaDrill
T4C0.508
; #@! TA.AperFunction,Plated,PTH,ViaDrill
T5C0.559
; #@! TA.AperFunction,Plated,PTH,ViaDrill
T6C0.610
; #@! TA.AperFunction,Plated,PTH,ComponentDrill
T7C0.650
; #@! TA.AperFunction,Plated,PTH,ViaDrill
T8C0.762
; #@! TA.AperFunction,Plated,PTH,ComponentDrill
T9C0.800
; #@! TA.AperFunction,Plated,PTH,ComponentDrill
T10C1.000
; #@! TA.AperFunction,Plated,PTH,ComponentDrill
T11C3.200
%
G90
G05
T1
X134.82Y-93.2
T2
X134.858Y-94.586
T3
X112.23Y-59.52
X112.933Y-57.823
X112.933Y-61.217
X114.63Y-57.12
X114.63Y-61.92
X116.327Y-57.823
X116.327Y-61.217
X117.03Y-59.52
T4
X134.883Y-96.036
T5
X134.908Y-97.536
T6
X134.934Y-99.087
T7
X178.71Y-64.11
X178.71Y-65.38
X178.71Y-66.65
X178.71Y-67.92
X178.71Y-69.19
X178.71Y-70.46
X178.71Y-71.73
X178.71Y-73.0
X178.71Y-74.27
X178.71Y-75.54
T8
X135.01Y-100.74
T9
X182.765Y-64.46
X182.765Y-66.46
X182.765Y-68.46
X182.765Y-70.46
X182.765Y-72.46
X182.765Y-74.46
X182.765Y-76.46
X182.765Y-78.46
X182.765Y-80.46
X182.765Y-82.46
T10
X187.07Y-64.76
X187.07Y-67.3
X187.07Y-69.84
X187.07Y-72.38
X187.07Y-74.92
X187.07Y-77.46
X187.07Y-80.0
X187.07Y-82.54
X187.07Y-85.08
X187.07Y-87.62
T11
X114.63Y-59.52
X191.94Y-59.22
M30
