%TF.GenerationSoftware,KiCad,Pcbnew,8.0.0*%
%TF.CreationDate,2024-05-09T17:34:07-04:00*%
%TF.ProjectId,Business card PCB,42757369-6e65-4737-9320-636172642050,rev?*%
%TF.SameCoordinates,Original*%
%TF.FileFunction,Copper,L1,Top*%
%TF.FilePolarity,Positive*%
%FSLAX46Y46*%
G04 Gerber Fmt 4.6, Leading zero omitted, Abs format (unit mm)*
G04 Created by KiCad (PCBNEW 8.0.0) date 2024-05-09 17:34:07*
%MOMM*%
%LPD*%
G01*
G04 APERTURE LIST*
G04 Aperture macros list*
%AMRoundRect*
0 Rectangle with rounded corners*
0 $1 Rounding radius*
0 $2 $3 $4 $5 $6 $7 $8 $9 X,Y pos of 4 corners*
0 Add a 4 corners polygon primitive as box body*
4,1,4,$2,$3,$4,$5,$6,$7,$8,$9,$2,$3,0*
0 Add four circle primitives for the rounded corners*
1,1,$1+$1,$2,$3*
1,1,$1+$1,$4,$5*
1,1,$1+$1,$6,$7*
1,1,$1+$1,$8,$9*
0 Add four rect primitives between the rounded corners*
20,1,$1+$1,$2,$3,$4,$5,0*
20,1,$1+$1,$4,$5,$6,$7,0*
20,1,$1+$1,$6,$7,$8,$9,0*
20,1,$1+$1,$8,$9,$2,$3,0*%
G04 Aperture macros list end*
%TA.AperFunction,ComponentPad*%
%ADD10R,1.700000X1.700000*%
%TD*%
%TA.AperFunction,ComponentPad*%
%ADD11O,1.700000X1.700000*%
%TD*%
%TA.AperFunction,SMDPad,CuDef*%
%ADD12R,1.500000X1.000000*%
%TD*%
%TA.AperFunction,SMDPad,CuDef*%
%ADD13RoundRect,0.150000X0.150000X0.200000X-0.150000X0.200000X-0.150000X-0.200000X0.150000X-0.200000X0*%
%TD*%
%TA.AperFunction,SMDPad,CuDef*%
%ADD14R,2.200000X2.200000*%
%TD*%
%TA.AperFunction,SMDPad,CuDef*%
%ADD15R,1.250000X2.200000*%
%TD*%
%TA.AperFunction,ComponentPad*%
%ADD16C,0.800000*%
%TD*%
%TA.AperFunction,ComponentPad*%
%ADD17C,6.400000*%
%TD*%
%TA.AperFunction,SMDPad,CuDef*%
%ADD18RoundRect,0.250000X-0.312500X-1.450000X0.312500X-1.450000X0.312500X1.450000X-0.312500X1.450000X0*%
%TD*%
%TA.AperFunction,SMDPad,CuDef*%
%ADD19RoundRect,0.250000X-1.000000X-0.650000X1.000000X-0.650000X1.000000X0.650000X-1.000000X0.650000X0*%
%TD*%
%TA.AperFunction,SMDPad,CuDef*%
%ADD20RoundRect,0.250000X-0.362500X-1.075000X0.362500X-1.075000X0.362500X1.075000X-0.362500X1.075000X0*%
%TD*%
%TA.AperFunction,SMDPad,CuDef*%
%ADD21RoundRect,0.112500X-0.187500X-0.112500X0.187500X-0.112500X0.187500X0.112500X-0.187500X0.112500X0*%
%TD*%
%TA.AperFunction,SMDPad,CuDef*%
%ADD22RoundRect,0.100000X-0.130000X-0.100000X0.130000X-0.100000X0.130000X0.100000X-0.130000X0.100000X0*%
%TD*%
%TA.AperFunction,SMDPad,CuDef*%
%ADD23RoundRect,0.250000X-1.000000X-0.900000X1.000000X-0.900000X1.000000X0.900000X-1.000000X0.900000X0*%
%TD*%
%TA.AperFunction,SMDPad,CuDef*%
%ADD24RoundRect,0.100000X0.100000X-0.125000X0.100000X0.125000X-0.100000X0.125000X-0.100000X-0.125000X0*%
%TD*%
%TA.AperFunction,SMDPad,CuDef*%
%ADD25RoundRect,0.225000X-0.225000X-0.375000X0.225000X-0.375000X0.225000X0.375000X-0.225000X0.375000X0*%
%TD*%
%TA.AperFunction,SMDPad,CuDef*%
%ADD26RoundRect,0.250000X-0.362500X-1.425000X0.362500X-1.425000X0.362500X1.425000X-0.362500X1.425000X0*%
%TD*%
%TA.AperFunction,SMDPad,CuDef*%
%ADD27R,2.100000X2.600000*%
%TD*%
%TA.AperFunction,SMDPad,CuDef*%
%ADD28RoundRect,0.250000X0.312500X0.625000X-0.312500X0.625000X-0.312500X-0.625000X0.312500X-0.625000X0*%
%TD*%
%TA.AperFunction,ComponentPad*%
%ADD29C,5.700000*%
%TD*%
%TA.AperFunction,ComponentPad*%
%ADD30R,1.000000X1.000000*%
%TD*%
%TA.AperFunction,ComponentPad*%
%ADD31O,1.000000X1.000000*%
%TD*%
%TA.AperFunction,SMDPad,CuDef*%
%ADD32RoundRect,0.250000X-0.312500X-1.075000X0.312500X-1.075000X0.312500X1.075000X-0.312500X1.075000X0*%
%TD*%
%TA.AperFunction,SMDPad,CuDef*%
%ADD33R,1.500000X1.800000*%
%TD*%
%TA.AperFunction,SMDPad,CuDef*%
%ADD34RoundRect,0.125000X0.125000X-0.175000X0.125000X0.175000X-0.125000X0.175000X-0.125000X-0.175000X0*%
%TD*%
%TA.AperFunction,SMDPad,CuDef*%
%ADD35R,1.600000X0.850000*%
%TD*%
%TA.AperFunction,SMDPad,CuDef*%
%ADD36RoundRect,0.250000X0.262500X0.450000X-0.262500X0.450000X-0.262500X-0.450000X0.262500X-0.450000X0*%
%TD*%
%TA.AperFunction,SMDPad,CuDef*%
%ADD37R,1.200000X1.500000*%
%TD*%
%TA.AperFunction,ComponentPad*%
%ADD38R,1.350000X1.350000*%
%TD*%
%TA.AperFunction,ComponentPad*%
%ADD39O,1.350000X1.350000*%
%TD*%
%TA.AperFunction,SMDPad,CuDef*%
%ADD40R,1.500000X1.100000*%
%TD*%
%TA.AperFunction,SMDPad,CuDef*%
%ADD41RoundRect,0.162500X0.162500X-0.447500X0.162500X0.447500X-0.162500X0.447500X-0.162500X-0.447500X0*%
%TD*%
%TA.AperFunction,SMDPad,CuDef*%
%ADD42RoundRect,0.250000X0.300000X-2.050000X0.300000X2.050000X-0.300000X2.050000X-0.300000X-2.050000X0*%
%TD*%
%TA.AperFunction,SMDPad,CuDef*%
%ADD43RoundRect,0.250000X2.375000X-2.025000X2.375000X2.025000X-2.375000X2.025000X-2.375000X-2.025000X0*%
%TD*%
%TA.AperFunction,SMDPad,CuDef*%
%ADD44RoundRect,0.250002X5.149998X-4.449998X5.149998X4.449998X-5.149998X4.449998X-5.149998X-4.449998X0*%
%TD*%
%TA.AperFunction,SMDPad,CuDef*%
%ADD45RoundRect,0.250000X0.350000X-0.850000X0.350000X0.850000X-0.350000X0.850000X-0.350000X-0.850000X0*%
%TD*%
%TA.AperFunction,SMDPad,CuDef*%
%ADD46RoundRect,0.250000X1.125000X-1.275000X1.125000X1.275000X-1.125000X1.275000X-1.125000X-1.275000X0*%
%TD*%
%TA.AperFunction,SMDPad,CuDef*%
%ADD47RoundRect,0.249997X2.650003X-2.950003X2.650003X2.950003X-2.650003X2.950003X-2.650003X-2.950003X0*%
%TD*%
%TA.AperFunction,SMDPad,CuDef*%
%ADD48RoundRect,0.135000X-0.135000X-0.185000X0.135000X-0.185000X0.135000X0.185000X-0.135000X0.185000X0*%
%TD*%
%TA.AperFunction,SMDPad,CuDef*%
%ADD49RoundRect,0.250000X1.000000X-1.400000X1.000000X1.400000X-1.000000X1.400000X-1.000000X-1.400000X0*%
%TD*%
%TA.AperFunction,SMDPad,CuDef*%
%ADD50RoundRect,0.200000X0.200000X0.275000X-0.200000X0.275000X-0.200000X-0.275000X0.200000X-0.275000X0*%
%TD*%
%TA.AperFunction,SMDPad,CuDef*%
%ADD51RoundRect,0.112500X-0.112500X-0.237500X0.112500X-0.237500X0.112500X0.237500X-0.112500X0.237500X0*%
%TD*%
%TA.AperFunction,ViaPad*%
%ADD52C,0.757200*%
%TD*%
%TA.AperFunction,ViaPad*%
%ADD53C,0.858800*%
%TD*%
%TA.AperFunction,ViaPad*%
%ADD54C,0.808000*%
%TD*%
%TA.AperFunction,ViaPad*%
%ADD55C,0.909600*%
%TD*%
%TA.AperFunction,ViaPad*%
%ADD56C,0.681000*%
%TD*%
%TA.AperFunction,ViaPad*%
%ADD57C,1.062000*%
%TD*%
%TA.AperFunction,Conductor*%
%ADD58C,1.016000*%
%TD*%
%TA.AperFunction,Conductor*%
%ADD59C,0.254000*%
%TD*%
%TA.AperFunction,Conductor*%
%ADD60C,0.609600*%
%TD*%
%TA.AperFunction,Conductor*%
%ADD61C,0.762000*%
%TD*%
%TA.AperFunction,Conductor*%
%ADD62C,0.152400*%
%TD*%
%TA.AperFunction,Conductor*%
%ADD63C,0.304800*%
%TD*%
%TA.AperFunction,Conductor*%
%ADD64C,0.203200*%
%TD*%
%TA.AperFunction,Conductor*%
%ADD65C,0.457200*%
%TD*%
G04 APERTURE END LIST*
D10*
%TO.P,2.54mm,1,Pin_1*%
%TO.N,unconnected-(J1-Pin_1-Pad1)*%
X187070000Y-64760000D03*
D11*
%TO.P,2.54mm,2,Pin_2*%
%TO.N,unconnected-(J1-Pin_2-Pad2)*%
X187070000Y-67300000D03*
%TO.P,2.54mm,3,Pin_3*%
%TO.N,unconnected-(J1-Pin_3-Pad3)*%
X187070000Y-69840000D03*
%TO.P,2.54mm,4,Pin_4*%
%TO.N,unconnected-(J1-Pin_4-Pad4)*%
X187070000Y-72380000D03*
%TO.P,2.54mm,5,Pin_5*%
%TO.N,unconnected-(J1-Pin_5-Pad5)*%
X187070000Y-74920000D03*
%TO.P,2.54mm,6,Pin_6*%
%TO.N,unconnected-(J1-Pin_6-Pad6)*%
X187070000Y-77460000D03*
%TO.P,2.54mm,7,Pin_7*%
%TO.N,unconnected-(J1-Pin_7-Pad7)*%
X187070000Y-80000000D03*
%TO.P,2.54mm,8,Pin_8*%
%TO.N,unconnected-(J1-Pin_8-Pad8)*%
X187070000Y-82540000D03*
%TO.P,2.54mm,9,Pin_9*%
%TO.N,unconnected-(J1-Pin_9-Pad9)*%
X187070000Y-85080000D03*
%TO.P,2.54mm,10,Pin_10*%
%TO.N,unconnected-(J1-Pin_10-Pad10)*%
X187070000Y-87620000D03*
%TD*%
D12*
%TO.P,5050,1,K*%
%TO.N,unconnected-(D10-K-Pad1)*%
X167870000Y-70050000D03*
%TO.P,5050,2,A*%
%TO.N,unconnected-(D10-A-Pad2)*%
X167870000Y-66850000D03*
%TO.P,5050,3*%
%TO.N,N/C*%
X162970000Y-66850000D03*
%TO.P,5050,4*%
X162970000Y-70050000D03*
%TD*%
D13*
%TO.P,SOD-523,1,K*%
%TO.N,unconnected-(D5-K-Pad1)*%
X150700000Y-73460000D03*
%TO.P,SOD-523,2,A*%
%TO.N,unconnected-(D5-A-Pad2)*%
X152100000Y-73460000D03*
%TD*%
D14*
%TO.P,2835,1,K*%
%TO.N,unconnected-(D7-K-Pad1)*%
X157080000Y-61095000D03*
D15*
%TO.P,2835,2,A*%
%TO.N,unconnected-(D7-A-Pad2)*%
X159355000Y-61095000D03*
%TD*%
D16*
%TO.P,M3,1*%
%TO.N,N/C*%
X112230000Y-59520000D03*
X112932944Y-57822944D03*
X112932944Y-61217056D03*
X114630000Y-57120000D03*
D17*
X114630000Y-59520000D03*
D16*
X114630000Y-61920000D03*
X116327056Y-57822944D03*
X116327056Y-61217056D03*
X117030000Y-59520000D03*
%TD*%
D18*
%TO.P,1812,1*%
%TO.N,unconnected-(R7-Pad1)*%
X116490000Y-88005000D03*
%TO.P,1812,2*%
%TO.N,unconnected-(R7-Pad2)*%
X120765000Y-88005000D03*
%TD*%
D19*
%TO.P,SMA,1,K*%
%TO.N,unconnected-(D1-K-Pad1)*%
X151650000Y-83800000D03*
%TO.P,SMA,2,A*%
%TO.N,unconnected-(D1-A-Pad2)*%
X155650000Y-83800000D03*
%TD*%
D20*
%TO.P,2010,1*%
%TO.N,unconnected-(R8-Pad1)*%
X116545000Y-93220000D03*
%TO.P,2010,2*%
%TO.N,unconnected-(R8-Pad2)*%
X121170000Y-93220000D03*
%TD*%
D21*
%TO.P,SOD-323,1,K*%
%TO.N,unconnected-(D4-K-Pad1)*%
X150700000Y-76340000D03*
%TO.P,SOD-323,2,A*%
%TO.N,unconnected-(D4-A-Pad2)*%
X152800000Y-76340000D03*
%TD*%
D22*
%TO.P,0201,1*%
%TO.N,unconnected-(R1-Pad1)*%
X116057500Y-65895000D03*
%TO.P,0201,2*%
%TO.N,unconnected-(R1-Pad2)*%
X116697500Y-65895000D03*
%TD*%
D23*
%TO.P,SMB,1,K*%
%TO.N,unconnected-(D2-K-Pad1)*%
X151650000Y-89030000D03*
%TO.P,SMB,2,A*%
%TO.N,unconnected-(D2-A-Pad2)*%
X155950000Y-89030000D03*
%TD*%
D24*
%TO.P,SOT723,1,E*%
%TO.N,unconnected-(Q3-E-Pad1)*%
X132480000Y-76900000D03*
%TO.P,SOT723,2,B*%
%TO.N,unconnected-(Q3-B-Pad2)*%
X133280000Y-76900000D03*
%TO.P,SOT723,3,C*%
%TO.N,unconnected-(Q3-C-Pad3)*%
X132880000Y-75750000D03*
%TD*%
D25*
%TO.P,SOD-123,1,K*%
%TO.N,unconnected-(D6-K-Pad1)*%
X150850000Y-79670000D03*
%TO.P,SOD-123,2,A*%
%TO.N,unconnected-(D6-A-Pad2)*%
X154150000Y-79670000D03*
%TD*%
D26*
%TO.P,2512,1*%
%TO.N,unconnected-(R9-Pad1)*%
X116535000Y-98405000D03*
%TO.P,2512,2*%
%TO.N,unconnected-(R9-Pad2)*%
X122460000Y-98405000D03*
%TD*%
D27*
%TO.P,MELF,1*%
%TO.N,N/C*%
X123050000Y-105750000D03*
%TO.P,MELF,2*%
X127950000Y-105750000D03*
%TD*%
D28*
%TO.P,1206,1*%
%TO.N,unconnected-(R5-Pad1)*%
X119420000Y-78405000D03*
%TO.P,1206,2*%
%TO.N,unconnected-(R5-Pad2)*%
X116495000Y-78405000D03*
%TD*%
D29*
%TO.P,M3,1*%
%TO.N,N/C*%
X191940000Y-59220000D03*
%TD*%
D30*
%TO.P,1.27mm,1,Pin_1*%
%TO.N,unconnected-(J2-Pin_1-Pad1)*%
X178710000Y-64110000D03*
D31*
%TO.P,1.27mm,2,Pin_2*%
%TO.N,unconnected-(J2-Pin_2-Pad2)*%
X178710000Y-65380000D03*
%TO.P,1.27mm,3,Pin_3*%
%TO.N,unconnected-(J2-Pin_3-Pad3)*%
X178710000Y-66650000D03*
%TO.P,1.27mm,4,Pin_4*%
%TO.N,unconnected-(J2-Pin_4-Pad4)*%
X178710000Y-67920000D03*
%TO.P,1.27mm,5,Pin_5*%
%TO.N,unconnected-(J2-Pin_5-Pad5)*%
X178710000Y-69190000D03*
%TO.P,1.27mm,6,Pin_6*%
%TO.N,unconnected-(J2-Pin_6-Pad6)*%
X178710000Y-70460000D03*
%TO.P,1.27mm,7,Pin_7*%
%TO.N,unconnected-(J2-Pin_7-Pad7)*%
X178710000Y-71730000D03*
%TO.P,1.27mm,8,Pin_8*%
%TO.N,unconnected-(J2-Pin_8-Pad8)*%
X178710000Y-73000000D03*
%TO.P,1.27mm,9,Pin_9*%
%TO.N,unconnected-(J2-Pin_9-Pad9)*%
X178710000Y-74270000D03*
%TO.P,1.27mm,10,Pin_10*%
%TO.N,unconnected-(J2-Pin_10-Pad10)*%
X178710000Y-75540000D03*
%TD*%
D32*
%TO.P,1210,1*%
%TO.N,unconnected-(R6-Pad1)*%
X116495000Y-82790000D03*
%TO.P,1210,2*%
%TO.N,unconnected-(R6-Pad2)*%
X119420000Y-82790000D03*
%TD*%
D33*
%TO.P,MiniMELF,1*%
%TO.N,N/C*%
X134250000Y-105350000D03*
%TO.P,MiniMELF,2*%
X137250000Y-105350000D03*
%TD*%
D34*
%TO.P,SOT416,1,E*%
%TO.N,unconnected-(Q6-E-Pad1)*%
X132380000Y-72965832D03*
%TO.P,SOT416,2,B*%
%TO.N,unconnected-(Q6-B-Pad2)*%
X133380000Y-72965832D03*
%TO.P,SOT416,3,C*%
%TO.N,unconnected-(Q6-C-Pad3)*%
X132880000Y-71665832D03*
%TD*%
D35*
%TO.P,3535,1,K*%
%TO.N,unconnected-(D9-K-Pad1)*%
X163670000Y-60570000D03*
%TO.P,3535,2,A*%
%TO.N,unconnected-(D9-A-Pad2)*%
X163670000Y-62320000D03*
%TO.P,3535,3*%
%TO.N,N/C*%
X167170000Y-62320000D03*
%TO.P,3535,4*%
X167170000Y-60570000D03*
%TD*%
D36*
%TO.P,0805,1*%
%TO.N,unconnected-(R4-Pad1)*%
X118270000Y-74650000D03*
%TO.P,0805,2*%
%TO.N,unconnected-(R4-Pad2)*%
X116445000Y-74650000D03*
%TD*%
D37*
%TO.P,MicroMELF,1*%
%TO.N,N/C*%
X144550000Y-105200000D03*
%TO.P,MicroMELF,2*%
X146450000Y-105200000D03*
%TD*%
D38*
%TO.P,2.00mm,1,Pin_1*%
%TO.N,unconnected-(J3-Pin_1-Pad1)*%
X182765000Y-64460000D03*
D39*
%TO.P,2.00mm,2,Pin_2*%
%TO.N,unconnected-(J3-Pin_2-Pad2)*%
X182765000Y-66460000D03*
%TO.P,2.00mm,3,Pin_3*%
%TO.N,unconnected-(J3-Pin_3-Pad3)*%
X182765000Y-68460000D03*
%TO.P,2.00mm,4,Pin_4*%
%TO.N,unconnected-(J3-Pin_4-Pad4)*%
X182765000Y-70460000D03*
%TO.P,2.00mm,5,Pin_5*%
%TO.N,unconnected-(J3-Pin_5-Pad5)*%
X182765000Y-72460000D03*
%TO.P,2.00mm,6,Pin_6*%
%TO.N,unconnected-(J3-Pin_6-Pad6)*%
X182765000Y-74460000D03*
%TO.P,2.00mm,7,Pin_7*%
%TO.N,unconnected-(J3-Pin_7-Pad7)*%
X182765000Y-76460000D03*
%TO.P,2.00mm,8,Pin_8*%
%TO.N,unconnected-(J3-Pin_8-Pad8)*%
X182765000Y-78460000D03*
%TO.P,2.00mm,9,Pin_9*%
%TO.N,unconnected-(J3-Pin_9-Pad9)*%
X182765000Y-80460000D03*
%TO.P,2.00mm,10,Pin_10*%
%TO.N,unconnected-(J3-Pin_10-Pad10)*%
X182765000Y-82460000D03*
%TD*%
D40*
%TO.P,3228,1,K*%
%TO.N,unconnected-(D8-K-Pad1)*%
X156497522Y-66565000D03*
%TO.P,3228,2,A*%
%TO.N,unconnected-(D8-A-Pad2)*%
X159497522Y-66565000D03*
%TO.P,3228,3*%
%TO.N,N/C*%
X159497522Y-68065000D03*
%TO.P,3228,4*%
X156497522Y-68065000D03*
%TD*%
D41*
%TO.P,SOT23,1,E*%
%TO.N,unconnected-(Q1-E-Pad1)*%
X132037500Y-63487500D03*
%TO.P,SOT23,2,B*%
%TO.N,unconnected-(Q1-B-Pad2)*%
X133937500Y-63487500D03*
%TO.P,SOT23,3,C*%
%TO.N,unconnected-(Q1-C-Pad3)*%
X132987500Y-60867500D03*
%TD*%
D42*
%TO.P,D2PAK,1,E*%
%TO.N,unconnected-(Q5-E-Pad1)*%
X139600000Y-86590000D03*
D43*
%TO.P,D2PAK,2,B*%
%TO.N,unconnected-(Q5-B-Pad2)_2*%
X139365000Y-79865000D03*
%TO.N,unconnected-(Q5-B-Pad2)_3*%
X144915000Y-79865000D03*
D44*
%TO.N,unconnected-(Q5-B-Pad2)_0*%
X142140000Y-77440000D03*
D43*
%TO.N,unconnected-(Q5-B-Pad2)*%
X139365000Y-75015000D03*
%TO.N,unconnected-(Q5-B-Pad2)_1*%
X144915000Y-75015000D03*
D42*
%TO.P,D2PAK,3,C*%
%TO.N,unconnected-(Q5-C-Pad3)*%
X144680000Y-86590000D03*
%TD*%
D45*
%TO.P,DPAK,1,E*%
%TO.N,unconnected-(Q4-E-Pad1)*%
X139862500Y-68927500D03*
D46*
%TO.P,DPAK,2,B*%
%TO.N,unconnected-(Q4-B-Pad2)*%
X140617500Y-64302500D03*
X143667500Y-64302500D03*
D47*
X142142500Y-62627500D03*
D46*
X140617500Y-60952500D03*
X143667500Y-60952500D03*
D45*
%TO.P,DPAK,3,C*%
%TO.N,unconnected-(Q4-C-Pad3)*%
X144422500Y-68927500D03*
%TD*%
D48*
%TO.P,0402,1*%
%TO.N,unconnected-(R2-Pad1)*%
X116097500Y-68400000D03*
%TO.P,0402,2*%
%TO.N,unconnected-(R2-Pad2)*%
X117117500Y-68400000D03*
%TD*%
D49*
%TO.P,SMC,1,K*%
%TO.N,unconnected-(D3-K-Pad1)*%
X151650000Y-95860000D03*
%TO.P,SMC,2,A*%
%TO.N,unconnected-(D3-A-Pad2)*%
X158450000Y-95860000D03*
%TD*%
D50*
%TO.P,0603,1*%
%TO.N,unconnected-(R3-Pad1)*%
X117982500Y-71285000D03*
%TO.P,0603,2*%
%TO.N,unconnected-(R3-Pad2)*%
X116332500Y-71285000D03*
%TD*%
D51*
%TO.P,SOT323,1,E*%
%TO.N,unconnected-(Q2-E-Pad1)*%
X132332500Y-68731666D03*
%TO.P,SOT323,2,B*%
%TO.N,unconnected-(Q2-B-Pad2)*%
X133632500Y-68731666D03*
%TO.P,SOT323,3,C*%
%TO.N,unconnected-(Q2-C-Pad3)*%
X132982500Y-66731666D03*
%TD*%
D52*
%TO.N,*%
X134857600Y-94586080D03*
D53*
X134908400Y-97536040D03*
D54*
X134883000Y-96035660D03*
D55*
X134933800Y-99087220D03*
D56*
X134819500Y-93200000D03*
D57*
X135010000Y-100740000D03*
%TD*%
D58*
%TO.N,*%
X166206000Y-107230744D02*
X184396000Y-107230744D01*
D59*
X165825000Y-96930000D02*
X184015000Y-96930000D01*
D60*
X166002800Y-102643084D02*
X184192800Y-102643084D01*
D61*
X166079000Y-104835312D02*
X184269000Y-104835312D01*
D62*
X165774200Y-93510744D02*
X183964200Y-93510744D01*
D63*
X165850400Y-98715828D02*
X184040400Y-98715828D01*
D64*
X165799600Y-95194972D02*
X183989600Y-95194972D01*
D65*
X165926600Y-100603256D02*
X184116600Y-100603256D01*
%TD*%
%TA.AperFunction,NonConductor*%
G36*
X193083001Y-56123727D02*
G01*
X193350318Y-56207028D01*
X193364301Y-56212331D01*
X193625871Y-56330055D01*
X193639125Y-56337011D01*
X193884597Y-56485403D01*
X193896920Y-56493909D01*
X194122709Y-56670802D01*
X194133917Y-56680731D01*
X194336740Y-56883551D01*
X194346669Y-56894759D01*
X194523572Y-57120553D01*
X194532078Y-57132876D01*
X194559384Y-57178044D01*
X194680457Y-57378318D01*
X194680466Y-57378332D01*
X194687425Y-57391591D01*
X194692892Y-57403738D01*
X194702456Y-57472950D01*
X194673083Y-57536346D01*
X194614099Y-57573797D01*
X194544230Y-57573414D01*
X194485660Y-57535317D01*
X194478687Y-57526385D01*
X194328730Y-57315040D01*
X194100429Y-57059573D01*
X194100426Y-57059570D01*
X193844959Y-56831269D01*
X193565521Y-56632998D01*
X193313858Y-56493909D01*
X193265648Y-56467264D01*
X193244623Y-56458555D01*
X192998664Y-56356675D01*
X192944261Y-56312834D01*
X192922196Y-56246540D01*
X192939475Y-56178840D01*
X192990613Y-56131230D01*
X193059372Y-56118824D01*
X193083001Y-56123727D01*
G37*
%TD.AperFunction*%
%TA.AperFunction,NonConductor*%
G36*
X113598887Y-56066507D02*
G01*
X113644642Y-56119311D01*
X113654586Y-56188469D01*
X113625561Y-56252025D01*
X113571442Y-56288331D01*
X113426997Y-56337001D01*
X113369497Y-56356375D01*
X113369494Y-56356376D01*
X113369486Y-56356379D01*
X113034846Y-56511200D01*
X113034842Y-56511202D01*
X112832416Y-56632998D01*
X112718881Y-56701310D01*
X112662029Y-56744528D01*
X112425330Y-56924461D01*
X112425330Y-56924462D01*
X112157626Y-57178044D01*
X111918909Y-57459083D01*
X111711979Y-57764282D01*
X111711973Y-57764291D01*
X111539261Y-58090061D01*
X111539255Y-58090073D01*
X111402770Y-58432628D01*
X111402768Y-58432634D01*
X111304128Y-58787905D01*
X111304122Y-58787931D01*
X111244470Y-59151786D01*
X111244469Y-59151803D01*
X111224506Y-59519997D01*
X111224506Y-59520002D01*
X111228453Y-59592798D01*
X111240019Y-59806132D01*
X111244469Y-59888196D01*
X111244470Y-59888213D01*
X111304122Y-60252068D01*
X111304128Y-60252094D01*
X111402768Y-60607365D01*
X111402770Y-60607371D01*
X111539255Y-60949926D01*
X111539261Y-60949938D01*
X111711973Y-61275708D01*
X111711976Y-61275713D01*
X111711978Y-61275716D01*
X111761971Y-61349450D01*
X111918909Y-61580916D01*
X112119246Y-61816770D01*
X112157627Y-61861956D01*
X112425330Y-62115538D01*
X112718881Y-62338690D01*
X113034838Y-62528795D01*
X113034840Y-62528796D01*
X113034842Y-62528797D01*
X113034846Y-62528799D01*
X113355177Y-62677000D01*
X113369497Y-62683625D01*
X113718934Y-62801364D01*
X114079052Y-62880632D01*
X114445630Y-62920500D01*
X114445636Y-62920500D01*
X114814364Y-62920500D01*
X114814370Y-62920500D01*
X115180948Y-62880632D01*
X115541066Y-62801364D01*
X115890503Y-62683625D01*
X116225162Y-62528795D01*
X116541119Y-62338690D01*
X116834670Y-62115538D01*
X117102373Y-61861956D01*
X117341090Y-61580917D01*
X117498029Y-61349450D01*
X132462000Y-61349450D01*
X132472279Y-61420006D01*
X132525489Y-61528849D01*
X132611151Y-61614511D01*
X132719988Y-61667719D01*
X132719989Y-61667719D01*
X132719991Y-61667720D01*
X132790551Y-61678000D01*
X133184448Y-61677999D01*
X133184450Y-61677999D01*
X133212672Y-61673887D01*
X133255009Y-61667720D01*
X133363847Y-61614512D01*
X133449512Y-61528847D01*
X133502720Y-61420009D01*
X133513000Y-61349449D01*
X133512999Y-60385552D01*
X133502720Y-60314991D01*
X133449512Y-60206153D01*
X133449510Y-60206151D01*
X133449510Y-60206150D01*
X133363848Y-60120488D01*
X133255011Y-60067280D01*
X133237369Y-60064710D01*
X133184449Y-60057000D01*
X133184443Y-60057000D01*
X132790549Y-60057000D01*
X132719993Y-60067279D01*
X132611150Y-60120489D01*
X132525488Y-60206151D01*
X132472280Y-60314988D01*
X132468425Y-60341451D01*
X132462000Y-60385551D01*
X132462000Y-60385555D01*
X132462000Y-60385556D01*
X132462000Y-61349450D01*
X117498029Y-61349450D01*
X117548022Y-61275716D01*
X117720743Y-60949930D01*
X117857227Y-60607379D01*
X117955875Y-60252081D01*
X117986172Y-60067279D01*
X118015529Y-59888213D01*
X118015529Y-59888210D01*
X118015531Y-59888199D01*
X118035494Y-59520000D01*
X118015531Y-59151801D01*
X117955875Y-58787919D01*
X117907085Y-58612194D01*
X117857231Y-58432634D01*
X117857229Y-58432628D01*
X117857228Y-58432627D01*
X117857227Y-58432621D01*
X117720743Y-58090070D01*
X117548022Y-57764284D01*
X117341090Y-57459083D01*
X117102373Y-57178044D01*
X116834670Y-56924462D01*
X116541119Y-56701310D01*
X116225162Y-56511205D01*
X116225161Y-56511204D01*
X116225157Y-56511202D01*
X116225153Y-56511200D01*
X115890513Y-56356379D01*
X115890508Y-56356377D01*
X115890503Y-56356375D01*
X115688554Y-56288330D01*
X115631311Y-56248271D01*
X115604811Y-56183621D01*
X115617471Y-56114908D01*
X115665270Y-56063947D01*
X115728149Y-56046822D01*
X191056831Y-56046822D01*
X191123870Y-56066507D01*
X191169625Y-56119311D01*
X191179569Y-56188469D01*
X191150544Y-56252025D01*
X191091766Y-56289799D01*
X191091159Y-56289976D01*
X190952049Y-56330053D01*
X190930896Y-56336147D01*
X190882052Y-56356379D01*
X190614353Y-56467263D01*
X190314478Y-56632998D01*
X190035040Y-56831269D01*
X189779573Y-57059570D01*
X189779570Y-57059573D01*
X189551269Y-57315040D01*
X189352998Y-57594478D01*
X189187263Y-57894353D01*
X189056146Y-58210899D01*
X188961297Y-58540124D01*
X188961295Y-58540133D01*
X188903905Y-58877906D01*
X188903903Y-58877918D01*
X188884693Y-59220000D01*
X188903903Y-59562081D01*
X188903905Y-59562093D01*
X188961295Y-59899866D01*
X188961297Y-59899875D01*
X189006565Y-60057001D01*
X189056147Y-60229104D01*
X189116235Y-60374169D01*
X189187263Y-60545646D01*
X189352998Y-60845521D01*
X189551269Y-61124959D01*
X189779570Y-61380426D01*
X189779573Y-61380429D01*
X190035040Y-61608730D01*
X190035046Y-61608734D01*
X190035047Y-61608735D01*
X190314479Y-61807002D01*
X190614352Y-61972736D01*
X190930896Y-62103853D01*
X191260130Y-62198704D01*
X191597914Y-62256096D01*
X191940000Y-62275307D01*
X192282086Y-62256096D01*
X192619870Y-62198704D01*
X192949104Y-62103853D01*
X193265648Y-61972736D01*
X193565521Y-61807002D01*
X193844953Y-61608735D01*
X193876082Y-61580917D01*
X193934347Y-61528847D01*
X194100428Y-61380428D01*
X194328735Y-61124953D01*
X194527002Y-60845521D01*
X194692736Y-60545648D01*
X194732091Y-60450637D01*
X194775932Y-60396234D01*
X194842226Y-60374169D01*
X194909925Y-60391448D01*
X194957536Y-60442585D01*
X194970652Y-60498090D01*
X194970652Y-88741506D01*
X194950967Y-88808545D01*
X194898163Y-88854300D01*
X194844705Y-88865491D01*
X187672159Y-88752834D01*
X187605437Y-88732099D01*
X187560517Y-88678583D01*
X187551660Y-88609277D01*
X187581680Y-88546185D01*
X187615649Y-88519493D01*
X187656450Y-88497685D01*
X187816410Y-88366410D01*
X187947685Y-88206450D01*
X188045232Y-88023954D01*
X188105300Y-87825934D01*
X188125583Y-87620000D01*
X188105300Y-87414066D01*
X188045232Y-87216046D01*
X187947685Y-87033550D01*
X187895702Y-86970209D01*
X187816410Y-86873589D01*
X187656452Y-86742317D01*
X187656453Y-86742317D01*
X187656450Y-86742315D01*
X187473954Y-86644768D01*
X187275934Y-86584700D01*
X187275932Y-86584699D01*
X187275934Y-86584699D01*
X187070000Y-86564417D01*
X186864067Y-86584699D01*
X186666043Y-86644769D01*
X186555898Y-86703643D01*
X186483550Y-86742315D01*
X186483548Y-86742316D01*
X186483547Y-86742317D01*
X186323589Y-86873589D01*
X186192317Y-87033547D01*
X186094769Y-87216043D01*
X186034699Y-87414067D01*
X186014417Y-87620000D01*
X186034699Y-87825932D01*
X186034700Y-87825934D01*
X186094768Y-88023954D01*
X186192315Y-88206450D01*
X186192317Y-88206452D01*
X186323589Y-88366410D01*
X186483544Y-88497681D01*
X186483547Y-88497682D01*
X186483550Y-88497685D01*
X186487767Y-88499939D01*
X186537610Y-88548897D01*
X186553073Y-88617034D01*
X186529244Y-88682715D01*
X186473688Y-88725086D01*
X186427368Y-88733282D01*
X162323803Y-88354693D01*
X162025000Y-88350000D01*
X162024999Y-88350000D01*
X161833454Y-109922813D01*
X161813175Y-109989675D01*
X161759967Y-110034959D01*
X161709459Y-110045712D01*
X113544815Y-110045712D01*
X113544799Y-110045711D01*
X113475060Y-110045711D01*
X113467574Y-110045485D01*
X113177515Y-110027941D01*
X113162650Y-110026136D01*
X112880521Y-109974436D01*
X112865982Y-109970853D01*
X112669411Y-109909600D01*
X112592129Y-109885518D01*
X112578135Y-109880211D01*
X112499601Y-109844867D01*
X112316565Y-109762489D01*
X112303307Y-109755530D01*
X112057848Y-109607148D01*
X112045524Y-109598642D01*
X111819728Y-109421744D01*
X111808520Y-109411814D01*
X111605702Y-109208997D01*
X111595773Y-109197790D01*
X111472542Y-109040500D01*
X111418876Y-108972000D01*
X111410370Y-108959678D01*
X111261977Y-108714209D01*
X111255019Y-108700951D01*
X111137299Y-108439393D01*
X111131989Y-108425392D01*
X111123411Y-108397866D01*
X111046654Y-108151548D01*
X111043071Y-108137011D01*
X111021684Y-108020312D01*
X110991365Y-107854874D01*
X110989561Y-107840012D01*
X110985995Y-107781072D01*
X110972048Y-107550512D01*
X110971822Y-107543024D01*
X110971822Y-105784813D01*
X112899500Y-105784813D01*
X112929686Y-106052719D01*
X112929688Y-106052731D01*
X112989684Y-106315594D01*
X112989687Y-106315602D01*
X113078734Y-106570082D01*
X113195714Y-106812994D01*
X113195716Y-106812997D01*
X113339162Y-107041289D01*
X113507266Y-107252085D01*
X113697915Y-107442734D01*
X113908711Y-107610838D01*
X114137003Y-107754284D01*
X114379921Y-107871267D01*
X114571049Y-107938145D01*
X114634397Y-107960312D01*
X114634405Y-107960315D01*
X114634408Y-107960315D01*
X114634409Y-107960316D01*
X114897268Y-108020312D01*
X115165187Y-108050499D01*
X115165188Y-108050500D01*
X115165191Y-108050500D01*
X115434812Y-108050500D01*
X115434812Y-108050499D01*
X115702732Y-108020312D01*
X115965591Y-107960316D01*
X116220079Y-107871267D01*
X116462997Y-107754284D01*
X116691289Y-107610838D01*
X116902085Y-107442734D01*
X117092734Y-107252085D01*
X117238140Y-107069752D01*
X121799500Y-107069752D01*
X121811131Y-107128229D01*
X121811132Y-107128230D01*
X121855447Y-107194552D01*
X121921769Y-107238867D01*
X121921770Y-107238868D01*
X121980247Y-107250499D01*
X121980250Y-107250500D01*
X121980252Y-107250500D01*
X124119750Y-107250500D01*
X124119751Y-107250499D01*
X124134568Y-107247552D01*
X124178229Y-107238868D01*
X124178229Y-107238867D01*
X124178231Y-107238867D01*
X124244552Y-107194552D01*
X124288867Y-107128231D01*
X124288867Y-107128229D01*
X124288868Y-107128229D01*
X124300499Y-107069752D01*
X126699500Y-107069752D01*
X126711131Y-107128229D01*
X126711132Y-107128230D01*
X126755447Y-107194552D01*
X126821769Y-107238867D01*
X126821770Y-107238868D01*
X126880247Y-107250499D01*
X126880250Y-107250500D01*
X126880252Y-107250500D01*
X129019750Y-107250500D01*
X129019751Y-107250499D01*
X129034568Y-107247552D01*
X129078229Y-107238868D01*
X129078229Y-107238867D01*
X129078231Y-107238867D01*
X129144552Y-107194552D01*
X129188867Y-107128231D01*
X129188867Y-107128229D01*
X129188868Y-107128229D01*
X129200499Y-107069752D01*
X129200500Y-107069750D01*
X129200500Y-106269752D01*
X133299500Y-106269752D01*
X133311131Y-106328229D01*
X133311132Y-106328230D01*
X133355447Y-106394552D01*
X133421769Y-106438867D01*
X133421770Y-106438868D01*
X133480247Y-106450499D01*
X133480250Y-106450500D01*
X133480252Y-106450500D01*
X135019750Y-106450500D01*
X135019751Y-106450499D01*
X135034568Y-106447552D01*
X135078229Y-106438868D01*
X135078229Y-106438867D01*
X135078231Y-106438867D01*
X135144552Y-106394552D01*
X135188867Y-106328231D01*
X135188867Y-106328229D01*
X135188868Y-106328229D01*
X135200499Y-106269752D01*
X136299500Y-106269752D01*
X136311131Y-106328229D01*
X136311132Y-106328230D01*
X136355447Y-106394552D01*
X136421769Y-106438867D01*
X136421770Y-106438868D01*
X136480247Y-106450499D01*
X136480250Y-106450500D01*
X136480252Y-106450500D01*
X138019750Y-106450500D01*
X138019751Y-106450499D01*
X138034568Y-106447552D01*
X138078229Y-106438868D01*
X138078229Y-106438867D01*
X138078231Y-106438867D01*
X138144552Y-106394552D01*
X138188867Y-106328231D01*
X138188867Y-106328229D01*
X138188868Y-106328229D01*
X138200499Y-106269752D01*
X138200500Y-106269750D01*
X138200500Y-105969752D01*
X143749500Y-105969752D01*
X143761131Y-106028229D01*
X143761132Y-106028230D01*
X143805447Y-106094552D01*
X143871769Y-106138867D01*
X143871770Y-106138868D01*
X143930247Y-106150499D01*
X143930250Y-106150500D01*
X143930252Y-106150500D01*
X145169750Y-106150500D01*
X145169751Y-106150499D01*
X145184568Y-106147552D01*
X145228229Y-106138868D01*
X145228229Y-106138867D01*
X145228231Y-106138867D01*
X145294552Y-106094552D01*
X145338867Y-106028231D01*
X145338867Y-106028229D01*
X145338868Y-106028229D01*
X145350499Y-105969752D01*
X145649500Y-105969752D01*
X145661131Y-106028229D01*
X145661132Y-106028230D01*
X145705447Y-106094552D01*
X145771769Y-106138867D01*
X145771770Y-106138868D01*
X145830247Y-106150499D01*
X145830250Y-106150500D01*
X145830252Y-106150500D01*
X147069750Y-106150500D01*
X147069751Y-106150499D01*
X147084568Y-106147552D01*
X147128229Y-106138868D01*
X147128229Y-106138867D01*
X147128231Y-106138867D01*
X147194552Y-106094552D01*
X147238867Y-106028231D01*
X147238867Y-106028229D01*
X147238868Y-106028229D01*
X147250499Y-105969752D01*
X147250500Y-105969750D01*
X147250500Y-104430249D01*
X147250499Y-104430247D01*
X147238868Y-104371770D01*
X147238867Y-104371769D01*
X147194552Y-104305447D01*
X147128230Y-104261132D01*
X147128229Y-104261131D01*
X147069752Y-104249500D01*
X147069748Y-104249500D01*
X145830252Y-104249500D01*
X145830247Y-104249500D01*
X145771770Y-104261131D01*
X145771769Y-104261132D01*
X145705447Y-104305447D01*
X145661132Y-104371769D01*
X145661131Y-104371770D01*
X145649500Y-104430247D01*
X145649500Y-105969752D01*
X145350499Y-105969752D01*
X145350500Y-105969750D01*
X145350500Y-104430249D01*
X145350499Y-104430247D01*
X145338868Y-104371770D01*
X145338867Y-104371769D01*
X145294552Y-104305447D01*
X145228230Y-104261132D01*
X145228229Y-104261131D01*
X145169752Y-104249500D01*
X145169748Y-104249500D01*
X143930252Y-104249500D01*
X143930247Y-104249500D01*
X143871770Y-104261131D01*
X143871769Y-104261132D01*
X143805447Y-104305447D01*
X143761132Y-104371769D01*
X143761131Y-104371770D01*
X143749500Y-104430247D01*
X143749500Y-105969752D01*
X138200500Y-105969752D01*
X138200500Y-104430249D01*
X138200499Y-104430247D01*
X138188868Y-104371770D01*
X138188867Y-104371769D01*
X138144552Y-104305447D01*
X138078230Y-104261132D01*
X138078229Y-104261131D01*
X138019752Y-104249500D01*
X138019748Y-104249500D01*
X136480252Y-104249500D01*
X136480247Y-104249500D01*
X136421770Y-104261131D01*
X136421769Y-104261132D01*
X136355447Y-104305447D01*
X136311132Y-104371769D01*
X136311131Y-104371770D01*
X136299500Y-104430247D01*
X136299500Y-106269752D01*
X135200499Y-106269752D01*
X135200500Y-106269750D01*
X135200500Y-104430249D01*
X135200499Y-104430247D01*
X135188868Y-104371770D01*
X135188867Y-104371769D01*
X135144552Y-104305447D01*
X135078230Y-104261132D01*
X135078229Y-104261131D01*
X135019752Y-104249500D01*
X135019748Y-104249500D01*
X133480252Y-104249500D01*
X133480247Y-104249500D01*
X133421770Y-104261131D01*
X133421769Y-104261132D01*
X133355447Y-104305447D01*
X133311132Y-104371769D01*
X133311131Y-104371770D01*
X133299500Y-104430247D01*
X133299500Y-106269752D01*
X129200500Y-106269752D01*
X129200500Y-104430249D01*
X129200499Y-104430247D01*
X129188868Y-104371770D01*
X129188867Y-104371769D01*
X129144552Y-104305447D01*
X129078230Y-104261132D01*
X129078229Y-104261131D01*
X129019752Y-104249500D01*
X129019748Y-104249500D01*
X126880252Y-104249500D01*
X126880247Y-104249500D01*
X126821770Y-104261131D01*
X126821769Y-104261132D01*
X126755447Y-104305447D01*
X126711132Y-104371769D01*
X126711131Y-104371770D01*
X126699500Y-104430247D01*
X126699500Y-107069752D01*
X124300499Y-107069752D01*
X124300500Y-107069750D01*
X124300500Y-104430249D01*
X124300499Y-104430247D01*
X124288868Y-104371770D01*
X124288867Y-104371769D01*
X124244552Y-104305447D01*
X124178230Y-104261132D01*
X124178229Y-104261131D01*
X124119752Y-104249500D01*
X124119748Y-104249500D01*
X121980252Y-104249500D01*
X121980247Y-104249500D01*
X121921770Y-104261131D01*
X121921769Y-104261132D01*
X121855447Y-104305447D01*
X121811132Y-104371769D01*
X121811131Y-104371770D01*
X121799500Y-104430247D01*
X121799500Y-107069752D01*
X117238140Y-107069752D01*
X117260838Y-107041289D01*
X117404284Y-106812997D01*
X117521267Y-106570079D01*
X117610316Y-106315591D01*
X117670312Y-106052732D01*
X117700500Y-105784809D01*
X117700500Y-105515191D01*
X117670312Y-105247268D01*
X117610316Y-104984409D01*
X117521267Y-104729921D01*
X117404284Y-104487003D01*
X117260838Y-104258711D01*
X117092734Y-104047915D01*
X116902085Y-103857266D01*
X116691289Y-103689162D01*
X116462997Y-103545716D01*
X116462994Y-103545714D01*
X116220082Y-103428734D01*
X115965602Y-103339687D01*
X115965594Y-103339684D01*
X115768446Y-103294687D01*
X115702732Y-103279688D01*
X115702728Y-103279687D01*
X115702719Y-103279686D01*
X115434813Y-103249500D01*
X115434809Y-103249500D01*
X115165191Y-103249500D01*
X115165186Y-103249500D01*
X114897280Y-103279686D01*
X114897268Y-103279688D01*
X114634405Y-103339684D01*
X114634397Y-103339687D01*
X114379917Y-103428734D01*
X114137005Y-103545714D01*
X113908712Y-103689161D01*
X113697915Y-103857265D01*
X113507265Y-104047915D01*
X113339161Y-104258712D01*
X113195714Y-104487005D01*
X113078734Y-104729917D01*
X112989687Y-104984397D01*
X112989684Y-104984405D01*
X112929688Y-105247268D01*
X112929686Y-105247280D01*
X112899500Y-105515186D01*
X112899500Y-105784813D01*
X110971822Y-105784813D01*
X110971822Y-100740003D01*
X134273871Y-100740003D01*
X134292325Y-100903795D01*
X134292327Y-100903805D01*
X134337310Y-101032356D01*
X134346771Y-101059394D01*
X134434471Y-101198969D01*
X134551031Y-101315529D01*
X134690606Y-101403229D01*
X134846196Y-101457673D01*
X134846202Y-101457673D01*
X134846204Y-101457674D01*
X135009996Y-101476129D01*
X135010000Y-101476129D01*
X135010004Y-101476129D01*
X135173795Y-101457674D01*
X135173794Y-101457674D01*
X135173804Y-101457673D01*
X135329394Y-101403229D01*
X135468969Y-101315529D01*
X135585529Y-101198969D01*
X135673229Y-101059394D01*
X135727673Y-100903804D01*
X135746129Y-100740000D01*
X135727673Y-100576196D01*
X135673229Y-100420606D01*
X135585529Y-100281031D01*
X135468969Y-100164471D01*
X135329394Y-100076771D01*
X135329393Y-100076770D01*
X135329392Y-100076770D01*
X135173805Y-100022327D01*
X135173795Y-100022325D01*
X135010004Y-100003871D01*
X135009996Y-100003871D01*
X134846204Y-100022325D01*
X134846194Y-100022327D01*
X134690607Y-100076770D01*
X134551030Y-100164471D01*
X134434471Y-100281030D01*
X134346770Y-100420607D01*
X134292327Y-100576194D01*
X134292325Y-100576204D01*
X134273871Y-100739996D01*
X134273871Y-100740003D01*
X110971822Y-100740003D01*
X110971822Y-99884269D01*
X115722000Y-99884269D01*
X115724853Y-99914699D01*
X115724853Y-99914701D01*
X115769706Y-100042880D01*
X115769707Y-100042882D01*
X115850350Y-100152150D01*
X115959618Y-100232793D01*
X116002345Y-100247744D01*
X116087799Y-100277646D01*
X116118230Y-100280500D01*
X116118234Y-100280500D01*
X116951770Y-100280500D01*
X116982199Y-100277646D01*
X116982201Y-100277646D01*
X117046290Y-100255219D01*
X117110382Y-100232793D01*
X117219650Y-100152150D01*
X117300293Y-100042882D01*
X117322719Y-99978790D01*
X117345146Y-99914701D01*
X117345146Y-99914699D01*
X117348000Y-99884269D01*
X121647000Y-99884269D01*
X121649853Y-99914699D01*
X121649853Y-99914701D01*
X121694706Y-100042880D01*
X121694707Y-100042882D01*
X121775350Y-100152150D01*
X121884618Y-100232793D01*
X121927345Y-100247744D01*
X122012799Y-100277646D01*
X122043230Y-100280500D01*
X122043234Y-100280500D01*
X122876770Y-100280500D01*
X122907199Y-100277646D01*
X122907201Y-100277646D01*
X122971290Y-100255219D01*
X123035382Y-100232793D01*
X123144650Y-100152150D01*
X123225293Y-100042882D01*
X123247719Y-99978790D01*
X123270146Y-99914701D01*
X123270146Y-99914699D01*
X123273000Y-99884269D01*
X123273000Y-99087220D01*
X134273687Y-99087220D01*
X134292868Y-99245193D01*
X134292869Y-99245198D01*
X134349299Y-99393990D01*
X134439698Y-99524956D01*
X134558813Y-99630482D01*
X134699721Y-99704436D01*
X134776976Y-99723478D01*
X134854231Y-99742520D01*
X134854232Y-99742520D01*
X135013369Y-99742520D01*
X135064871Y-99729825D01*
X135167879Y-99704436D01*
X135308787Y-99630482D01*
X135427902Y-99524956D01*
X135518301Y-99393990D01*
X135574731Y-99245195D01*
X135593913Y-99087220D01*
X135574731Y-98929245D01*
X135574730Y-98929243D01*
X135574730Y-98929241D01*
X135545452Y-98852042D01*
X135518301Y-98780450D01*
X135427902Y-98649484D01*
X135308787Y-98543958D01*
X135167879Y-98470004D01*
X135167878Y-98470003D01*
X135167877Y-98470003D01*
X135013369Y-98431920D01*
X135013368Y-98431920D01*
X134854232Y-98431920D01*
X134854231Y-98431920D01*
X134699722Y-98470003D01*
X134558814Y-98543957D01*
X134439697Y-98649484D01*
X134349300Y-98780448D01*
X134349299Y-98780449D01*
X134292869Y-98929241D01*
X134292868Y-98929246D01*
X134273687Y-99087220D01*
X123273000Y-99087220D01*
X123273000Y-97536040D01*
X134273874Y-97536040D01*
X134292311Y-97687892D01*
X134346555Y-97830919D01*
X134433450Y-97956809D01*
X134547948Y-98058245D01*
X134683394Y-98129332D01*
X134831916Y-98165940D01*
X134831917Y-98165940D01*
X134984883Y-98165940D01*
X134984884Y-98165940D01*
X135133406Y-98129332D01*
X135268852Y-98058245D01*
X135383350Y-97956809D01*
X135470245Y-97830919D01*
X135524488Y-97687892D01*
X135542926Y-97536040D01*
X135524488Y-97384188D01*
X135497971Y-97314269D01*
X150199500Y-97314269D01*
X150202353Y-97344699D01*
X150202353Y-97344701D01*
X150247206Y-97472880D01*
X150247207Y-97472882D01*
X150327850Y-97582150D01*
X150437118Y-97662793D01*
X150479845Y-97677744D01*
X150565299Y-97707646D01*
X150595730Y-97710500D01*
X150595734Y-97710500D01*
X152704270Y-97710500D01*
X152734699Y-97707646D01*
X152734701Y-97707646D01*
X152798790Y-97685219D01*
X152862882Y-97662793D01*
X152972150Y-97582150D01*
X153052793Y-97472882D01*
X153075219Y-97408790D01*
X153097646Y-97344701D01*
X153097646Y-97344699D01*
X153100500Y-97314269D01*
X156999500Y-97314269D01*
X157002353Y-97344699D01*
X157002353Y-97344701D01*
X157047206Y-97472880D01*
X157047207Y-97472882D01*
X157127850Y-97582150D01*
X157237118Y-97662793D01*
X157279845Y-97677744D01*
X157365299Y-97707646D01*
X157395730Y-97710500D01*
X157395734Y-97710500D01*
X159504270Y-97710500D01*
X159534699Y-97707646D01*
X159534701Y-97707646D01*
X159598790Y-97685219D01*
X159662882Y-97662793D01*
X159772150Y-97582150D01*
X159852793Y-97472882D01*
X159875219Y-97408790D01*
X159897646Y-97344701D01*
X159897646Y-97344699D01*
X159900500Y-97314269D01*
X159900500Y-94405730D01*
X159897646Y-94375300D01*
X159897646Y-94375298D01*
X159852793Y-94247119D01*
X159852792Y-94247117D01*
X159772150Y-94137850D01*
X159662882Y-94057207D01*
X159662880Y-94057206D01*
X159534700Y-94012353D01*
X159504270Y-94009500D01*
X159504266Y-94009500D01*
X157395734Y-94009500D01*
X157395730Y-94009500D01*
X157365300Y-94012353D01*
X157365298Y-94012353D01*
X157237119Y-94057206D01*
X157237117Y-94057207D01*
X157127850Y-94137850D01*
X157047207Y-94247117D01*
X157047206Y-94247119D01*
X157002353Y-94375298D01*
X157002353Y-94375300D01*
X156999500Y-94405730D01*
X156999500Y-97314269D01*
X153100500Y-97314269D01*
X153100500Y-94405730D01*
X153097646Y-94375300D01*
X153097646Y-94375298D01*
X153052793Y-94247119D01*
X153052792Y-94247117D01*
X152972150Y-94137850D01*
X152862882Y-94057207D01*
X152862880Y-94057206D01*
X152734700Y-94012353D01*
X152704270Y-94009500D01*
X152704266Y-94009500D01*
X150595734Y-94009500D01*
X150595730Y-94009500D01*
X150565300Y-94012353D01*
X150565298Y-94012353D01*
X150437119Y-94057206D01*
X150437117Y-94057207D01*
X150327850Y-94137850D01*
X150247207Y-94247117D01*
X150247206Y-94247119D01*
X150202353Y-94375298D01*
X150202353Y-94375300D01*
X150199500Y-94405730D01*
X150199500Y-97314269D01*
X135497971Y-97314269D01*
X135470245Y-97241161D01*
X135383350Y-97115271D01*
X135268852Y-97013835D01*
X135133406Y-96942748D01*
X135133405Y-96942747D01*
X135133404Y-96942747D01*
X135033465Y-96918114D01*
X134984884Y-96906140D01*
X134831916Y-96906140D01*
X134795309Y-96915162D01*
X134683395Y-96942747D01*
X134547949Y-97013834D01*
X134433449Y-97115271D01*
X134346556Y-97241159D01*
X134346555Y-97241160D01*
X134292311Y-97384187D01*
X134273874Y-97536039D01*
X134273874Y-97536040D01*
X123273000Y-97536040D01*
X123273000Y-96925730D01*
X123270146Y-96895300D01*
X123270146Y-96895298D01*
X123225293Y-96767119D01*
X123225292Y-96767117D01*
X123197094Y-96728910D01*
X123144650Y-96657850D01*
X123035382Y-96577207D01*
X123035380Y-96577206D01*
X122907200Y-96532353D01*
X122876770Y-96529500D01*
X122876766Y-96529500D01*
X122043234Y-96529500D01*
X122043230Y-96529500D01*
X122012800Y-96532353D01*
X122012798Y-96532353D01*
X121884619Y-96577206D01*
X121884617Y-96577207D01*
X121775350Y-96657850D01*
X121694707Y-96767117D01*
X121694706Y-96767119D01*
X121649853Y-96895298D01*
X121649853Y-96895300D01*
X121647000Y-96925730D01*
X121647000Y-99884269D01*
X117348000Y-99884269D01*
X117348000Y-96925730D01*
X117345146Y-96895300D01*
X117345146Y-96895298D01*
X117300293Y-96767119D01*
X117300292Y-96767117D01*
X117272094Y-96728910D01*
X117219650Y-96657850D01*
X117110382Y-96577207D01*
X117110380Y-96577206D01*
X116982200Y-96532353D01*
X116951770Y-96529500D01*
X116951766Y-96529500D01*
X116118234Y-96529500D01*
X116118230Y-96529500D01*
X116087800Y-96532353D01*
X116087798Y-96532353D01*
X115959619Y-96577206D01*
X115959617Y-96577207D01*
X115850350Y-96657850D01*
X115769707Y-96767117D01*
X115769706Y-96767119D01*
X115724853Y-96895298D01*
X115724853Y-96895300D01*
X115722000Y-96925730D01*
X115722000Y-99884269D01*
X110971822Y-99884269D01*
X110971822Y-96035660D01*
X134273284Y-96035660D01*
X134294060Y-96193465D01*
X134294061Y-96193469D01*
X134354968Y-96340515D01*
X134354969Y-96340517D01*
X134354970Y-96340518D01*
X134451866Y-96466794D01*
X134578142Y-96563690D01*
X134725194Y-96624600D01*
X134864640Y-96642958D01*
X134882999Y-96645376D01*
X134883000Y-96645376D01*
X134883001Y-96645376D01*
X134899446Y-96643210D01*
X135040806Y-96624600D01*
X135187858Y-96563690D01*
X135314134Y-96466794D01*
X135411030Y-96340518D01*
X135471940Y-96193466D01*
X135492716Y-96035660D01*
X135471940Y-95877854D01*
X135411030Y-95730802D01*
X135314134Y-95604526D01*
X135187858Y-95507630D01*
X135187857Y-95507629D01*
X135187855Y-95507628D01*
X135040809Y-95446721D01*
X135040807Y-95446720D01*
X135040806Y-95446720D01*
X134961903Y-95436332D01*
X134883001Y-95425944D01*
X134882999Y-95425944D01*
X134725194Y-95446720D01*
X134725190Y-95446721D01*
X134578144Y-95507628D01*
X134451866Y-95604526D01*
X134354968Y-95730804D01*
X134294061Y-95877850D01*
X134294060Y-95877854D01*
X134273284Y-96035659D01*
X134273284Y-96035660D01*
X110971822Y-96035660D01*
X110971822Y-94349269D01*
X115732000Y-94349269D01*
X115734853Y-94379699D01*
X115734853Y-94379701D01*
X115779706Y-94507880D01*
X115779707Y-94507882D01*
X115860350Y-94617150D01*
X115969618Y-94697793D01*
X116012345Y-94712744D01*
X116097799Y-94742646D01*
X116128230Y-94745500D01*
X116128234Y-94745500D01*
X116961770Y-94745500D01*
X116992199Y-94742646D01*
X116992201Y-94742646D01*
X117056290Y-94720219D01*
X117120382Y-94697793D01*
X117229650Y-94617150D01*
X117310293Y-94507882D01*
X117346036Y-94405734D01*
X117355146Y-94379701D01*
X117355146Y-94379699D01*
X117358000Y-94349269D01*
X120357000Y-94349269D01*
X120359853Y-94379699D01*
X120359853Y-94379701D01*
X120404706Y-94507880D01*
X120404707Y-94507882D01*
X120485350Y-94617150D01*
X120594618Y-94697793D01*
X120637345Y-94712744D01*
X120722799Y-94742646D01*
X120753230Y-94745500D01*
X120753234Y-94745500D01*
X121586770Y-94745500D01*
X121617199Y-94742646D01*
X121617201Y-94742646D01*
X121681290Y-94720219D01*
X121745382Y-94697793D01*
X121854650Y-94617150D01*
X121877581Y-94586080D01*
X134273503Y-94586080D01*
X134288210Y-94697792D01*
X134293406Y-94737254D01*
X134293407Y-94737258D01*
X134351755Y-94878126D01*
X134351756Y-94878128D01*
X134351757Y-94878129D01*
X134444581Y-94999099D01*
X134565551Y-95091923D01*
X134706425Y-95150274D01*
X134840011Y-95167861D01*
X134857599Y-95170177D01*
X134857600Y-95170177D01*
X134857601Y-95170177D01*
X134873355Y-95168102D01*
X135008775Y-95150274D01*
X135149649Y-95091923D01*
X135270619Y-94999099D01*
X135363443Y-94878129D01*
X135421794Y-94737255D01*
X135441697Y-94586080D01*
X135421794Y-94434905D01*
X135363443Y-94294032D01*
X135270619Y-94173061D01*
X135270616Y-94173059D01*
X135270615Y-94173057D01*
X135149649Y-94080237D01*
X135149647Y-94080236D01*
X135008778Y-94021887D01*
X135008776Y-94021886D01*
X135008775Y-94021886D01*
X134914696Y-94009500D01*
X134857601Y-94001983D01*
X134857599Y-94001983D01*
X134706425Y-94021886D01*
X134706421Y-94021887D01*
X134565554Y-94080235D01*
X134444581Y-94173061D01*
X134351755Y-94294034D01*
X134293407Y-94434901D01*
X134293406Y-94434905D01*
X134273503Y-94586080D01*
X121877581Y-94586080D01*
X121935293Y-94507882D01*
X121971036Y-94405734D01*
X121980146Y-94379701D01*
X121980146Y-94379699D01*
X121983000Y-94349269D01*
X121983000Y-93200001D01*
X134273832Y-93200001D01*
X134292424Y-93341227D01*
X134292425Y-93341229D01*
X134346937Y-93472833D01*
X134346938Y-93472834D01*
X134433654Y-93585846D01*
X134546666Y-93672562D01*
X134678271Y-93727075D01*
X134748885Y-93736371D01*
X134819499Y-93745668D01*
X134819500Y-93745668D01*
X134819501Y-93745668D01*
X134866576Y-93739470D01*
X134960729Y-93727075D01*
X135092334Y-93672562D01*
X135205346Y-93585846D01*
X135292062Y-93472834D01*
X135346575Y-93341229D01*
X135365168Y-93200000D01*
X135346575Y-93058771D01*
X135292062Y-92927166D01*
X135205346Y-92814154D01*
X135092334Y-92727438D01*
X135092333Y-92727437D01*
X134960729Y-92672925D01*
X134960727Y-92672924D01*
X134819501Y-92654332D01*
X134819499Y-92654332D01*
X134678272Y-92672924D01*
X134678270Y-92672925D01*
X134546666Y-92727437D01*
X134433654Y-92814154D01*
X134346937Y-92927166D01*
X134292425Y-93058770D01*
X134292424Y-93058772D01*
X134273832Y-93199998D01*
X134273832Y-93200001D01*
X121983000Y-93200001D01*
X121983000Y-92090730D01*
X121980146Y-92060300D01*
X121980146Y-92060298D01*
X121935293Y-91932119D01*
X121935292Y-91932117D01*
X121854650Y-91822850D01*
X121745382Y-91742207D01*
X121745380Y-91742206D01*
X121617200Y-91697353D01*
X121586770Y-91694500D01*
X121586766Y-91694500D01*
X120753234Y-91694500D01*
X120753230Y-91694500D01*
X120722800Y-91697353D01*
X120722798Y-91697353D01*
X120594619Y-91742206D01*
X120594617Y-91742207D01*
X120485350Y-91822850D01*
X120404707Y-91932117D01*
X120404706Y-91932119D01*
X120359853Y-92060298D01*
X120359853Y-92060300D01*
X120357000Y-92090730D01*
X120357000Y-94349269D01*
X117358000Y-94349269D01*
X117358000Y-92090730D01*
X117355146Y-92060300D01*
X117355146Y-92060298D01*
X117310293Y-91932119D01*
X117310292Y-91932117D01*
X117229650Y-91822850D01*
X117120382Y-91742207D01*
X117120380Y-91742206D01*
X116992200Y-91697353D01*
X116961770Y-91694500D01*
X116961766Y-91694500D01*
X116128234Y-91694500D01*
X116128230Y-91694500D01*
X116097800Y-91697353D01*
X116097798Y-91697353D01*
X115969619Y-91742206D01*
X115969617Y-91742207D01*
X115860350Y-91822850D01*
X115779707Y-91932117D01*
X115779706Y-91932119D01*
X115734853Y-92060298D01*
X115734853Y-92060300D01*
X115732000Y-92090730D01*
X115732000Y-94349269D01*
X110971822Y-94349269D01*
X110971822Y-89984269D01*
X150199500Y-89984269D01*
X150202353Y-90014699D01*
X150202353Y-90014701D01*
X150247206Y-90142880D01*
X150247207Y-90142882D01*
X150327850Y-90252150D01*
X150437118Y-90332793D01*
X150479845Y-90347744D01*
X150565299Y-90377646D01*
X150595730Y-90380500D01*
X150595734Y-90380500D01*
X152704270Y-90380500D01*
X152734699Y-90377646D01*
X152734701Y-90377646D01*
X152798790Y-90355219D01*
X152862882Y-90332793D01*
X152972150Y-90252150D01*
X153052793Y-90142882D01*
X153075219Y-90078790D01*
X153097646Y-90014701D01*
X153097646Y-90014699D01*
X153100500Y-89984269D01*
X154499500Y-89984269D01*
X154502353Y-90014699D01*
X154502353Y-90014701D01*
X154547206Y-90142880D01*
X154547207Y-90142882D01*
X154627850Y-90252150D01*
X154737118Y-90332793D01*
X154779845Y-90347744D01*
X154865299Y-90377646D01*
X154895730Y-90380500D01*
X154895734Y-90380500D01*
X157004270Y-90380500D01*
X157034699Y-90377646D01*
X157034701Y-90377646D01*
X157098790Y-90355219D01*
X157162882Y-90332793D01*
X157272150Y-90252150D01*
X157352793Y-90142882D01*
X157375219Y-90078790D01*
X157397646Y-90014701D01*
X157397646Y-90014699D01*
X157400500Y-89984269D01*
X157400500Y-88075730D01*
X157397646Y-88045300D01*
X157397646Y-88045298D01*
X157352793Y-87917119D01*
X157352792Y-87917117D01*
X157272150Y-87807850D01*
X157162882Y-87727207D01*
X157162880Y-87727206D01*
X157034700Y-87682353D01*
X157004270Y-87679500D01*
X157004266Y-87679500D01*
X154895734Y-87679500D01*
X154895730Y-87679500D01*
X154865300Y-87682353D01*
X154865298Y-87682353D01*
X154737119Y-87727206D01*
X154737117Y-87727207D01*
X154627850Y-87807850D01*
X154547207Y-87917117D01*
X154547206Y-87917119D01*
X154502353Y-88045298D01*
X154502353Y-88045300D01*
X154499500Y-88075730D01*
X154499500Y-89984269D01*
X153100500Y-89984269D01*
X153100500Y-88075730D01*
X153097646Y-88045300D01*
X153097646Y-88045298D01*
X153052793Y-87917119D01*
X153052792Y-87917117D01*
X152972150Y-87807850D01*
X152862882Y-87727207D01*
X152862880Y-87727206D01*
X152734700Y-87682353D01*
X152704270Y-87679500D01*
X152704266Y-87679500D01*
X150595734Y-87679500D01*
X150595730Y-87679500D01*
X150565300Y-87682353D01*
X150565298Y-87682353D01*
X150437119Y-87727206D01*
X150437117Y-87727207D01*
X150327850Y-87807850D01*
X150247207Y-87917117D01*
X150247206Y-87917119D01*
X150202353Y-88045298D01*
X150202353Y-88045300D01*
X150199500Y-88075730D01*
X150199500Y-89984269D01*
X110971822Y-89984269D01*
X110971822Y-89509269D01*
X115727000Y-89509269D01*
X115729853Y-89539699D01*
X115729853Y-89539701D01*
X115774706Y-89667880D01*
X115774707Y-89667882D01*
X115855350Y-89777150D01*
X115964618Y-89857793D01*
X116007345Y-89872744D01*
X116092799Y-89902646D01*
X116123230Y-89905500D01*
X116123234Y-89905500D01*
X116856770Y-89905500D01*
X116887199Y-89902646D01*
X116887201Y-89902646D01*
X116951290Y-89880219D01*
X117015382Y-89857793D01*
X117124650Y-89777150D01*
X117205293Y-89667882D01*
X117227719Y-89603790D01*
X117250146Y-89539701D01*
X117250146Y-89539699D01*
X117253000Y-89509269D01*
X120002000Y-89509269D01*
X120004853Y-89539699D01*
X120004853Y-89539701D01*
X120049706Y-89667880D01*
X120049707Y-89667882D01*
X120130350Y-89777150D01*
X120239618Y-89857793D01*
X120282345Y-89872744D01*
X120367799Y-89902646D01*
X120398230Y-89905500D01*
X120398234Y-89905500D01*
X121131770Y-89905500D01*
X121162199Y-89902646D01*
X121162201Y-89902646D01*
X121226290Y-89880219D01*
X121290382Y-89857793D01*
X121399650Y-89777150D01*
X121480293Y-89667882D01*
X121502719Y-89603790D01*
X121525146Y-89539701D01*
X121525146Y-89539699D01*
X121528000Y-89509269D01*
X121528000Y-88694269D01*
X138849500Y-88694269D01*
X138852353Y-88724699D01*
X138852353Y-88724701D01*
X138897206Y-88852880D01*
X138897207Y-88852882D01*
X138977850Y-88962150D01*
X139087118Y-89042793D01*
X139129845Y-89057744D01*
X139215299Y-89087646D01*
X139245730Y-89090500D01*
X139245734Y-89090500D01*
X139954270Y-89090500D01*
X139984699Y-89087646D01*
X139984701Y-89087646D01*
X140048790Y-89065219D01*
X140112882Y-89042793D01*
X140222150Y-88962150D01*
X140302793Y-88852882D01*
X140325219Y-88788790D01*
X140347646Y-88724701D01*
X140347646Y-88724699D01*
X140350500Y-88694269D01*
X143929500Y-88694269D01*
X143932353Y-88724699D01*
X143932353Y-88724701D01*
X143977206Y-88852880D01*
X143977207Y-88852882D01*
X144057850Y-88962150D01*
X144167118Y-89042793D01*
X144209845Y-89057744D01*
X144295299Y-89087646D01*
X144325730Y-89090500D01*
X144325734Y-89090500D01*
X145034270Y-89090500D01*
X145064699Y-89087646D01*
X145064701Y-89087646D01*
X145128790Y-89065219D01*
X145192882Y-89042793D01*
X145302150Y-88962150D01*
X145382793Y-88852882D01*
X145405219Y-88788790D01*
X145427646Y-88724701D01*
X145427646Y-88724699D01*
X145430500Y-88694269D01*
X145430500Y-85080000D01*
X186014417Y-85080000D01*
X186034699Y-85285932D01*
X186034700Y-85285934D01*
X186094768Y-85483954D01*
X186192315Y-85666450D01*
X186192317Y-85666452D01*
X186323589Y-85826410D01*
X186420209Y-85905702D01*
X186483550Y-85957685D01*
X186666046Y-86055232D01*
X186864066Y-86115300D01*
X186864065Y-86115300D01*
X186882529Y-86117118D01*
X187070000Y-86135583D01*
X187275934Y-86115300D01*
X187473954Y-86055232D01*
X187656450Y-85957685D01*
X187816410Y-85826410D01*
X187947685Y-85666450D01*
X188045232Y-85483954D01*
X188105300Y-85285934D01*
X188125583Y-85080000D01*
X188105300Y-84874066D01*
X188045232Y-84676046D01*
X187947685Y-84493550D01*
X187895702Y-84430209D01*
X187816410Y-84333589D01*
X187698677Y-84236969D01*
X187656450Y-84202315D01*
X187473954Y-84104768D01*
X187275934Y-84044700D01*
X187275932Y-84044699D01*
X187275934Y-84044699D01*
X187070000Y-84024417D01*
X186864067Y-84044699D01*
X186666043Y-84104769D01*
X186605359Y-84137206D01*
X186483550Y-84202315D01*
X186483548Y-84202316D01*
X186483547Y-84202317D01*
X186323589Y-84333589D01*
X186192317Y-84493547D01*
X186094769Y-84676043D01*
X186034699Y-84874067D01*
X186014417Y-85080000D01*
X145430500Y-85080000D01*
X145430500Y-84504269D01*
X150199500Y-84504269D01*
X150202353Y-84534699D01*
X150202353Y-84534701D01*
X150247206Y-84662880D01*
X150247207Y-84662882D01*
X150327850Y-84772150D01*
X150437118Y-84852793D01*
X150479845Y-84867744D01*
X150565299Y-84897646D01*
X150595730Y-84900500D01*
X150595734Y-84900500D01*
X152704270Y-84900500D01*
X152734699Y-84897646D01*
X152734701Y-84897646D01*
X152802087Y-84874066D01*
X152862882Y-84852793D01*
X152972150Y-84772150D01*
X153052793Y-84662882D01*
X153075219Y-84598790D01*
X153097646Y-84534701D01*
X153097646Y-84534699D01*
X153100500Y-84504269D01*
X154199500Y-84504269D01*
X154202353Y-84534699D01*
X154202353Y-84534701D01*
X154247206Y-84662880D01*
X154247207Y-84662882D01*
X154327850Y-84772150D01*
X154437118Y-84852793D01*
X154479845Y-84867744D01*
X154565299Y-84897646D01*
X154595730Y-84900500D01*
X154595734Y-84900500D01*
X156704270Y-84900500D01*
X156734699Y-84897646D01*
X156734701Y-84897646D01*
X156802087Y-84874066D01*
X156862882Y-84852793D01*
X156972150Y-84772150D01*
X157052793Y-84662882D01*
X157075219Y-84598790D01*
X157097646Y-84534701D01*
X157097646Y-84534699D01*
X157100500Y-84504269D01*
X157100500Y-83095730D01*
X157097646Y-83065300D01*
X157097646Y-83065298D01*
X157064006Y-82969163D01*
X157052793Y-82937118D01*
X156972150Y-82827850D01*
X156862882Y-82747207D01*
X156862880Y-82747206D01*
X156734700Y-82702353D01*
X156704270Y-82699500D01*
X156704266Y-82699500D01*
X154595734Y-82699500D01*
X154595730Y-82699500D01*
X154565300Y-82702353D01*
X154565298Y-82702353D01*
X154437119Y-82747206D01*
X154437117Y-82747207D01*
X154327850Y-82827850D01*
X154247207Y-82937117D01*
X154247206Y-82937119D01*
X154202353Y-83065298D01*
X154202353Y-83065300D01*
X154199500Y-83095730D01*
X154199500Y-84504269D01*
X153100500Y-84504269D01*
X153100500Y-83095730D01*
X153097646Y-83065300D01*
X153097646Y-83065298D01*
X153064006Y-82969163D01*
X153052793Y-82937118D01*
X152972150Y-82827850D01*
X152862882Y-82747207D01*
X152862880Y-82747206D01*
X152734700Y-82702353D01*
X152704270Y-82699500D01*
X152704266Y-82699500D01*
X150595734Y-82699500D01*
X150595730Y-82699500D01*
X150565300Y-82702353D01*
X150565298Y-82702353D01*
X150437119Y-82747206D01*
X150437117Y-82747207D01*
X150327850Y-82827850D01*
X150247207Y-82937117D01*
X150247206Y-82937119D01*
X150202353Y-83065298D01*
X150202353Y-83065300D01*
X150199500Y-83095730D01*
X150199500Y-84504269D01*
X145430500Y-84504269D01*
X145430500Y-84485730D01*
X145427646Y-84455300D01*
X145427646Y-84455298D01*
X145394006Y-84359163D01*
X145382793Y-84327118D01*
X145302150Y-84217850D01*
X145192882Y-84137207D01*
X145192880Y-84137206D01*
X145064700Y-84092353D01*
X145034270Y-84089500D01*
X145034266Y-84089500D01*
X144325734Y-84089500D01*
X144325730Y-84089500D01*
X144295300Y-84092353D01*
X144295298Y-84092353D01*
X144167119Y-84137206D01*
X144167117Y-84137207D01*
X144057850Y-84217850D01*
X143977207Y-84327117D01*
X143977206Y-84327119D01*
X143932353Y-84455298D01*
X143932353Y-84455300D01*
X143929500Y-84485730D01*
X143929500Y-88694269D01*
X140350500Y-88694269D01*
X140350500Y-84485730D01*
X140347646Y-84455300D01*
X140347646Y-84455298D01*
X140314006Y-84359163D01*
X140302793Y-84327118D01*
X140222150Y-84217850D01*
X140112882Y-84137207D01*
X140112880Y-84137206D01*
X139984700Y-84092353D01*
X139954270Y-84089500D01*
X139954266Y-84089500D01*
X139245734Y-84089500D01*
X139245730Y-84089500D01*
X139215300Y-84092353D01*
X139215298Y-84092353D01*
X139087119Y-84137206D01*
X139087117Y-84137207D01*
X138977850Y-84217850D01*
X138897207Y-84327117D01*
X138897206Y-84327119D01*
X138852353Y-84455298D01*
X138852353Y-84455300D01*
X138849500Y-84485730D01*
X138849500Y-88694269D01*
X121528000Y-88694269D01*
X121528000Y-86500730D01*
X121525146Y-86470300D01*
X121525146Y-86470298D01*
X121480293Y-86342119D01*
X121480292Y-86342117D01*
X121399650Y-86232850D01*
X121290382Y-86152207D01*
X121290380Y-86152206D01*
X121162200Y-86107353D01*
X121131770Y-86104500D01*
X121131766Y-86104500D01*
X120398234Y-86104500D01*
X120398230Y-86104500D01*
X120367800Y-86107353D01*
X120367798Y-86107353D01*
X120239619Y-86152206D01*
X120239617Y-86152207D01*
X120130350Y-86232850D01*
X120049707Y-86342117D01*
X120049706Y-86342119D01*
X120004853Y-86470298D01*
X120004853Y-86470300D01*
X120002000Y-86500730D01*
X120002000Y-89509269D01*
X117253000Y-89509269D01*
X117253000Y-86500730D01*
X117250146Y-86470300D01*
X117250146Y-86470298D01*
X117205293Y-86342119D01*
X117205292Y-86342117D01*
X117124650Y-86232850D01*
X117015382Y-86152207D01*
X117015380Y-86152206D01*
X116887200Y-86107353D01*
X116856770Y-86104500D01*
X116856766Y-86104500D01*
X116123234Y-86104500D01*
X116123230Y-86104500D01*
X116092800Y-86107353D01*
X116092798Y-86107353D01*
X115964619Y-86152206D01*
X115964617Y-86152207D01*
X115855350Y-86232850D01*
X115774707Y-86342117D01*
X115774706Y-86342119D01*
X115729853Y-86470298D01*
X115729853Y-86470300D01*
X115727000Y-86500730D01*
X115727000Y-89509269D01*
X110971822Y-89509269D01*
X110971822Y-83919269D01*
X115732000Y-83919269D01*
X115734853Y-83949699D01*
X115734853Y-83949701D01*
X115779706Y-84077880D01*
X115779707Y-84077882D01*
X115860350Y-84187150D01*
X115969618Y-84267793D01*
X116012345Y-84282744D01*
X116097799Y-84312646D01*
X116128230Y-84315500D01*
X116128234Y-84315500D01*
X116861770Y-84315500D01*
X116892199Y-84312646D01*
X116892201Y-84312646D01*
X116956290Y-84290219D01*
X117020382Y-84267793D01*
X117129650Y-84187150D01*
X117210293Y-84077882D01*
X117232719Y-84013790D01*
X117255146Y-83949701D01*
X117255146Y-83949699D01*
X117258000Y-83919269D01*
X118657000Y-83919269D01*
X118659853Y-83949699D01*
X118659853Y-83949701D01*
X118704706Y-84077880D01*
X118704707Y-84077882D01*
X118785350Y-84187150D01*
X118894618Y-84267793D01*
X118937345Y-84282744D01*
X119022799Y-84312646D01*
X119053230Y-84315500D01*
X119053234Y-84315500D01*
X119786770Y-84315500D01*
X119817199Y-84312646D01*
X119817201Y-84312646D01*
X119881290Y-84290219D01*
X119945382Y-84267793D01*
X120054650Y-84187150D01*
X120135293Y-84077882D01*
X120157719Y-84013790D01*
X120180146Y-83949701D01*
X120180146Y-83949699D01*
X120183000Y-83919269D01*
X120183000Y-82460000D01*
X181884678Y-82460000D01*
X181903915Y-82643029D01*
X181903916Y-82643032D01*
X181960783Y-82818053D01*
X181960786Y-82818059D01*
X182052805Y-82977440D01*
X182131914Y-83065300D01*
X182175949Y-83114206D01*
X182175951Y-83114208D01*
X182324834Y-83222378D01*
X182324835Y-83222378D01*
X182324839Y-83222381D01*
X182461953Y-83283428D01*
X182492961Y-83297234D01*
X182492966Y-83297236D01*
X182672981Y-83335500D01*
X182857019Y-83335500D01*
X183037034Y-83297236D01*
X183205161Y-83222381D01*
X183354050Y-83114207D01*
X183477195Y-82977440D01*
X183569214Y-82818059D01*
X183626085Y-82643029D01*
X183636914Y-82540000D01*
X186014417Y-82540000D01*
X186034699Y-82745932D01*
X186035086Y-82747207D01*
X186094768Y-82943954D01*
X186192315Y-83126450D01*
X186192317Y-83126452D01*
X186323589Y-83286410D01*
X186420209Y-83365702D01*
X186483550Y-83417685D01*
X186666046Y-83515232D01*
X186864066Y-83575300D01*
X186864065Y-83575300D01*
X186882529Y-83577118D01*
X187070000Y-83595583D01*
X187275934Y-83575300D01*
X187473954Y-83515232D01*
X187656450Y-83417685D01*
X187816410Y-83286410D01*
X187947685Y-83126450D01*
X188045232Y-82943954D01*
X188105300Y-82745934D01*
X188125583Y-82540000D01*
X188105300Y-82334066D01*
X188045232Y-82136046D01*
X187947685Y-81953550D01*
X187826425Y-81805793D01*
X187816410Y-81793589D01*
X187656452Y-81662317D01*
X187656453Y-81662317D01*
X187656450Y-81662315D01*
X187473954Y-81564768D01*
X187275934Y-81504700D01*
X187275932Y-81504699D01*
X187275934Y-81504699D01*
X187070000Y-81484417D01*
X186864067Y-81504699D01*
X186666043Y-81564769D01*
X186629130Y-81584500D01*
X186483550Y-81662315D01*
X186483548Y-81662316D01*
X186483547Y-81662317D01*
X186323589Y-81793589D01*
X186192317Y-81953547D01*
X186192315Y-81953550D01*
X186153643Y-82025898D01*
X186094769Y-82136043D01*
X186034699Y-82334067D01*
X186014417Y-82540000D01*
X183636914Y-82540000D01*
X183645322Y-82460000D01*
X183626085Y-82276971D01*
X183589061Y-82163023D01*
X183569216Y-82101946D01*
X183569213Y-82101940D01*
X183477195Y-81942560D01*
X183354050Y-81805793D01*
X183354048Y-81805791D01*
X183205165Y-81697621D01*
X183205162Y-81697619D01*
X183205161Y-81697619D01*
X183144112Y-81670438D01*
X183037038Y-81622765D01*
X183037033Y-81622763D01*
X182857019Y-81584500D01*
X182672981Y-81584500D01*
X182492966Y-81622763D01*
X182492961Y-81622765D01*
X182324839Y-81697619D01*
X182324834Y-81697621D01*
X182175951Y-81805791D01*
X182175949Y-81805793D01*
X182052804Y-81942561D01*
X181960786Y-82101940D01*
X181960783Y-82101946D01*
X181903916Y-82276967D01*
X181903915Y-82276971D01*
X181884678Y-82460000D01*
X120183000Y-82460000D01*
X120183000Y-81944269D01*
X136539500Y-81944269D01*
X136542353Y-81974699D01*
X136542353Y-81974701D01*
X136586879Y-82101946D01*
X136587207Y-82102882D01*
X136667850Y-82212150D01*
X136777118Y-82292793D01*
X136819845Y-82307744D01*
X136905299Y-82337646D01*
X136935730Y-82340500D01*
X136935734Y-82340500D01*
X147344270Y-82340500D01*
X147374699Y-82337646D01*
X147374701Y-82337646D01*
X147438790Y-82315219D01*
X147502882Y-82292793D01*
X147612150Y-82212150D01*
X147692793Y-82102882D01*
X147715219Y-82038790D01*
X147737646Y-81974701D01*
X147737646Y-81974699D01*
X147740500Y-81944269D01*
X147740500Y-80078493D01*
X150199500Y-80078493D01*
X150215279Y-80178121D01*
X150215280Y-80178124D01*
X150215281Y-80178126D01*
X150276472Y-80298220D01*
X150276473Y-80298221D01*
X150276476Y-80298225D01*
X150371774Y-80393523D01*
X150371778Y-80393526D01*
X150371780Y-80393528D01*
X150491874Y-80454719D01*
X150491876Y-80454719D01*
X150491878Y-80454720D01*
X150591507Y-80470500D01*
X150591512Y-80470500D01*
X151108493Y-80470500D01*
X151208121Y-80454720D01*
X151208121Y-80454719D01*
X151208126Y-80454719D01*
X151328220Y-80393528D01*
X151423528Y-80298220D01*
X151484719Y-80178126D01*
X151496785Y-80101946D01*
X151500500Y-80078493D01*
X153499500Y-80078493D01*
X153515279Y-80178121D01*
X153515280Y-80178124D01*
X153515281Y-80178126D01*
X153576472Y-80298220D01*
X153576473Y-80298221D01*
X153576476Y-80298225D01*
X153671774Y-80393523D01*
X153671778Y-80393526D01*
X153671780Y-80393528D01*
X153791874Y-80454719D01*
X153791876Y-80454719D01*
X153791878Y-80454720D01*
X153891507Y-80470500D01*
X153891512Y-80470500D01*
X154408493Y-80470500D01*
X154474785Y-80460000D01*
X181884678Y-80460000D01*
X181903915Y-80643029D01*
X181903916Y-80643032D01*
X181960783Y-80818053D01*
X181960786Y-80818059D01*
X182052805Y-80977440D01*
X182123164Y-81055582D01*
X182175949Y-81114206D01*
X182175951Y-81114208D01*
X182324834Y-81222378D01*
X182324835Y-81222378D01*
X182324839Y-81222381D01*
X182461953Y-81283428D01*
X182492961Y-81297234D01*
X182492966Y-81297236D01*
X182672981Y-81335500D01*
X182857019Y-81335500D01*
X183037034Y-81297236D01*
X183205161Y-81222381D01*
X183354050Y-81114207D01*
X183477195Y-80977440D01*
X183569214Y-80818059D01*
X183626085Y-80643029D01*
X183645322Y-80460000D01*
X183626085Y-80276971D01*
X183569214Y-80101941D01*
X183510358Y-80000000D01*
X186014417Y-80000000D01*
X186034699Y-80205932D01*
X186062694Y-80298220D01*
X186094768Y-80403954D01*
X186192315Y-80586450D01*
X186192317Y-80586452D01*
X186323589Y-80746410D01*
X186410888Y-80818053D01*
X186483550Y-80877685D01*
X186666046Y-80975232D01*
X186864066Y-81035300D01*
X186864065Y-81035300D01*
X186882529Y-81037118D01*
X187070000Y-81055583D01*
X187275934Y-81035300D01*
X187473954Y-80975232D01*
X187656450Y-80877685D01*
X187816410Y-80746410D01*
X187947685Y-80586450D01*
X188045232Y-80403954D01*
X188105300Y-80205934D01*
X188125583Y-80000000D01*
X188105300Y-79794066D01*
X188045232Y-79596046D01*
X187947685Y-79413550D01*
X187895702Y-79350209D01*
X187816410Y-79253589D01*
X187656452Y-79122317D01*
X187656453Y-79122317D01*
X187656450Y-79122315D01*
X187473954Y-79024768D01*
X187275934Y-78964700D01*
X187275932Y-78964699D01*
X187275934Y-78964699D01*
X187070000Y-78944417D01*
X186864067Y-78964699D01*
X186666043Y-79024769D01*
X186555898Y-79083643D01*
X186483550Y-79122315D01*
X186483548Y-79122316D01*
X186483547Y-79122317D01*
X186323589Y-79253589D01*
X186192317Y-79413547D01*
X186192315Y-79413550D01*
X186158055Y-79477646D01*
X186094769Y-79596043D01*
X186034699Y-79794067D01*
X186014417Y-80000000D01*
X183510358Y-80000000D01*
X183477195Y-79942560D01*
X183354050Y-79805793D01*
X183354048Y-79805791D01*
X183205165Y-79697621D01*
X183205162Y-79697619D01*
X183205161Y-79697619D01*
X183144112Y-79670438D01*
X183037038Y-79622765D01*
X183037033Y-79622763D01*
X182857019Y-79584500D01*
X182672981Y-79584500D01*
X182492966Y-79622763D01*
X182492961Y-79622765D01*
X182324839Y-79697619D01*
X182324834Y-79697621D01*
X182175951Y-79805791D01*
X182175949Y-79805793D01*
X182052804Y-79942561D01*
X181960786Y-80101940D01*
X181960783Y-80101946D01*
X181926996Y-80205934D01*
X181903915Y-80276971D01*
X181884678Y-80460000D01*
X154474785Y-80460000D01*
X154508121Y-80454720D01*
X154508121Y-80454719D01*
X154508126Y-80454719D01*
X154628220Y-80393528D01*
X154723528Y-80298220D01*
X154784719Y-80178126D01*
X154796785Y-80101946D01*
X154800500Y-80078493D01*
X154800500Y-79261506D01*
X154784720Y-79161878D01*
X154784719Y-79161876D01*
X154784719Y-79161874D01*
X154723528Y-79041780D01*
X154723526Y-79041778D01*
X154723523Y-79041774D01*
X154628225Y-78946476D01*
X154628221Y-78946473D01*
X154628220Y-78946472D01*
X154508126Y-78885281D01*
X154508124Y-78885280D01*
X154508121Y-78885279D01*
X154408493Y-78869500D01*
X154408488Y-78869500D01*
X153891512Y-78869500D01*
X153891507Y-78869500D01*
X153791878Y-78885279D01*
X153671778Y-78946473D01*
X153671774Y-78946476D01*
X153576476Y-79041774D01*
X153576473Y-79041778D01*
X153515279Y-79161878D01*
X153499500Y-79261506D01*
X153499500Y-80078493D01*
X151500500Y-80078493D01*
X151500500Y-79261506D01*
X151484720Y-79161878D01*
X151484719Y-79161876D01*
X151484719Y-79161874D01*
X151423528Y-79041780D01*
X151423526Y-79041778D01*
X151423523Y-79041774D01*
X151328225Y-78946476D01*
X151328221Y-78946473D01*
X151328220Y-78946472D01*
X151208126Y-78885281D01*
X151208124Y-78885280D01*
X151208121Y-78885279D01*
X151108493Y-78869500D01*
X151108488Y-78869500D01*
X150591512Y-78869500D01*
X150591507Y-78869500D01*
X150491878Y-78885279D01*
X150371778Y-78946473D01*
X150371774Y-78946476D01*
X150276476Y-79041774D01*
X150276473Y-79041778D01*
X150215279Y-79161878D01*
X150199500Y-79261506D01*
X150199500Y-80078493D01*
X147740500Y-80078493D01*
X147740500Y-78460000D01*
X181884678Y-78460000D01*
X181903915Y-78643029D01*
X181903916Y-78643032D01*
X181960783Y-78818053D01*
X181960786Y-78818059D01*
X182052805Y-78977440D01*
X182110735Y-79041778D01*
X182175949Y-79114206D01*
X182175951Y-79114208D01*
X182324834Y-79222378D01*
X182324835Y-79222378D01*
X182324839Y-79222381D01*
X182412729Y-79261512D01*
X182492961Y-79297234D01*
X182492966Y-79297236D01*
X182672981Y-79335500D01*
X182857019Y-79335500D01*
X183037034Y-79297236D01*
X183205161Y-79222381D01*
X183354050Y-79114207D01*
X183477195Y-78977440D01*
X183569214Y-78818059D01*
X183626085Y-78643029D01*
X183645322Y-78460000D01*
X183626085Y-78276971D01*
X183569214Y-78101941D01*
X183477195Y-77942560D01*
X183354050Y-77805793D01*
X183354048Y-77805791D01*
X183205165Y-77697621D01*
X183205162Y-77697619D01*
X183205161Y-77697619D01*
X183144112Y-77670438D01*
X183037038Y-77622765D01*
X183037033Y-77622763D01*
X182857019Y-77584500D01*
X182672981Y-77584500D01*
X182492966Y-77622763D01*
X182492961Y-77622765D01*
X182324839Y-77697619D01*
X182324834Y-77697621D01*
X182175951Y-77805791D01*
X182175949Y-77805793D01*
X182052804Y-77942561D01*
X181960786Y-78101940D01*
X181960783Y-78101946D01*
X181903916Y-78276967D01*
X181903915Y-78276971D01*
X181884678Y-78460000D01*
X147740500Y-78460000D01*
X147740500Y-77460000D01*
X186014417Y-77460000D01*
X186034699Y-77665932D01*
X186034700Y-77665934D01*
X186094768Y-77863954D01*
X186192315Y-78046450D01*
X186192317Y-78046452D01*
X186323589Y-78206410D01*
X186409564Y-78276967D01*
X186483550Y-78337685D01*
X186666046Y-78435232D01*
X186864066Y-78495300D01*
X186864065Y-78495300D01*
X186882529Y-78497118D01*
X187070000Y-78515583D01*
X187275934Y-78495300D01*
X187473954Y-78435232D01*
X187656450Y-78337685D01*
X187816410Y-78206410D01*
X187947685Y-78046450D01*
X188045232Y-77863954D01*
X188105300Y-77665934D01*
X188125583Y-77460000D01*
X188105300Y-77254066D01*
X188045232Y-77056046D01*
X187947685Y-76873550D01*
X187895702Y-76810209D01*
X187816410Y-76713589D01*
X187680723Y-76602235D01*
X187656450Y-76582315D01*
X187482206Y-76489179D01*
X187473956Y-76484769D01*
X187473955Y-76484768D01*
X187473954Y-76484768D01*
X187275934Y-76424700D01*
X187275932Y-76424699D01*
X187275934Y-76424699D01*
X187070000Y-76404417D01*
X186864067Y-76424699D01*
X186666043Y-76484769D01*
X186594905Y-76522794D01*
X186483550Y-76582315D01*
X186483548Y-76582316D01*
X186483547Y-76582317D01*
X186323589Y-76713589D01*
X186192317Y-76873547D01*
X186094769Y-77056043D01*
X186034699Y-77254067D01*
X186014417Y-77460000D01*
X147740500Y-77460000D01*
X147740500Y-76489180D01*
X150199500Y-76489180D01*
X150205500Y-76534756D01*
X150205502Y-76534763D01*
X150227676Y-76582315D01*
X150252150Y-76634799D01*
X150330201Y-76712850D01*
X150430240Y-76759499D01*
X150475821Y-76765500D01*
X150924178Y-76765499D01*
X150924180Y-76765499D01*
X150939372Y-76763499D01*
X150969760Y-76759499D01*
X151069799Y-76712850D01*
X151147850Y-76634799D01*
X151194499Y-76534760D01*
X151200500Y-76489180D01*
X152299500Y-76489180D01*
X152305500Y-76534756D01*
X152305502Y-76534763D01*
X152327676Y-76582315D01*
X152352150Y-76634799D01*
X152430201Y-76712850D01*
X152530240Y-76759499D01*
X152575821Y-76765500D01*
X153024178Y-76765499D01*
X153024180Y-76765499D01*
X153039372Y-76763499D01*
X153069760Y-76759499D01*
X153169799Y-76712850D01*
X153247850Y-76634799D01*
X153294499Y-76534760D01*
X153300500Y-76489179D01*
X153300500Y-76460000D01*
X181884678Y-76460000D01*
X181903915Y-76643029D01*
X181903916Y-76643032D01*
X181960783Y-76818053D01*
X181960786Y-76818059D01*
X182052805Y-76977440D01*
X182136027Y-77069868D01*
X182175949Y-77114206D01*
X182175951Y-77114208D01*
X182324834Y-77222378D01*
X182324835Y-77222378D01*
X182324839Y-77222381D01*
X182447976Y-77277205D01*
X182492961Y-77297234D01*
X182492966Y-77297236D01*
X182672981Y-77335500D01*
X182857019Y-77335500D01*
X183037034Y-77297236D01*
X183205161Y-77222381D01*
X183354050Y-77114207D01*
X183477195Y-76977440D01*
X183569214Y-76818059D01*
X183626085Y-76643029D01*
X183645322Y-76460000D01*
X183626085Y-76276971D01*
X183583283Y-76145240D01*
X183569216Y-76101946D01*
X183569213Y-76101940D01*
X183537935Y-76047765D01*
X183477195Y-75942560D01*
X183354050Y-75805793D01*
X183354048Y-75805791D01*
X183205165Y-75697621D01*
X183205162Y-75697619D01*
X183205161Y-75697619D01*
X183144112Y-75670438D01*
X183037038Y-75622765D01*
X183037033Y-75622763D01*
X182857019Y-75584500D01*
X182672981Y-75584500D01*
X182492966Y-75622763D01*
X182492961Y-75622765D01*
X182324839Y-75697619D01*
X182324834Y-75697621D01*
X182175951Y-75805791D01*
X182175949Y-75805793D01*
X182052804Y-75942561D01*
X181960786Y-76101940D01*
X181960783Y-76101946D01*
X181915765Y-76240500D01*
X181903915Y-76276971D01*
X181884678Y-76460000D01*
X153300500Y-76460000D01*
X153300499Y-76190822D01*
X153298098Y-76172585D01*
X153294499Y-76145243D01*
X153294499Y-76145240D01*
X153247850Y-76045201D01*
X153169799Y-75967150D01*
X153069760Y-75920501D01*
X153069758Y-75920500D01*
X153024188Y-75914501D01*
X153024185Y-75914500D01*
X153024179Y-75914500D01*
X153024172Y-75914500D01*
X152575819Y-75914500D01*
X152530243Y-75920500D01*
X152530236Y-75920502D01*
X152430200Y-75967150D01*
X152352150Y-76045200D01*
X152305500Y-76145241D01*
X152299501Y-76190811D01*
X152299500Y-76190827D01*
X152299500Y-76489180D01*
X151200500Y-76489180D01*
X151200500Y-76489179D01*
X151200499Y-76190822D01*
X151198098Y-76172585D01*
X151194499Y-76145243D01*
X151194499Y-76145240D01*
X151147850Y-76045201D01*
X151069799Y-75967150D01*
X150969760Y-75920501D01*
X150969758Y-75920500D01*
X150924188Y-75914501D01*
X150924185Y-75914500D01*
X150924179Y-75914500D01*
X150924172Y-75914500D01*
X150475819Y-75914500D01*
X150430243Y-75920500D01*
X150430236Y-75920502D01*
X150330200Y-75967150D01*
X150252150Y-76045200D01*
X150205500Y-76145241D01*
X150199501Y-76190811D01*
X150199500Y-76190827D01*
X150199500Y-76489180D01*
X147740500Y-76489180D01*
X147740500Y-75540000D01*
X178004355Y-75540000D01*
X178024859Y-75708869D01*
X178024860Y-75708874D01*
X178085182Y-75867931D01*
X178121469Y-75920501D01*
X178181817Y-76007929D01*
X178223889Y-76045201D01*
X178309150Y-76120736D01*
X178459773Y-76199789D01*
X178459775Y-76199790D01*
X178624944Y-76240500D01*
X178795056Y-76240500D01*
X178960225Y-76199790D01*
X179064155Y-76145243D01*
X179110849Y-76120736D01*
X179110850Y-76120734D01*
X179110852Y-76120734D01*
X179238183Y-76007929D01*
X179334818Y-75867930D01*
X179395140Y-75708872D01*
X179415645Y-75540000D01*
X179395140Y-75371128D01*
X179377249Y-75323954D01*
X179334817Y-75212068D01*
X179294921Y-75154269D01*
X179238183Y-75072071D01*
X179154363Y-74997813D01*
X179117238Y-74938626D01*
X179118006Y-74868761D01*
X179154363Y-74812186D01*
X179238183Y-74737929D01*
X179334818Y-74597930D01*
X179387127Y-74460000D01*
X181884678Y-74460000D01*
X181903915Y-74643029D01*
X181903916Y-74643032D01*
X181960783Y-74818053D01*
X181960786Y-74818059D01*
X182052805Y-74977440D01*
X182071151Y-74997815D01*
X182175949Y-75114206D01*
X182175951Y-75114208D01*
X182324834Y-75222378D01*
X182324835Y-75222378D01*
X182324839Y-75222381D01*
X182461953Y-75283428D01*
X182492961Y-75297234D01*
X182492966Y-75297236D01*
X182672981Y-75335500D01*
X182857019Y-75335500D01*
X183037034Y-75297236D01*
X183205161Y-75222381D01*
X183354050Y-75114207D01*
X183477195Y-74977440D01*
X183510358Y-74920000D01*
X186014417Y-74920000D01*
X186034699Y-75125932D01*
X186060828Y-75212068D01*
X186094768Y-75323954D01*
X186192315Y-75506450D01*
X186192317Y-75506452D01*
X186323589Y-75666410D01*
X186420209Y-75745702D01*
X186483550Y-75797685D01*
X186666046Y-75895232D01*
X186864066Y-75955300D01*
X186864065Y-75955300D01*
X186882529Y-75957118D01*
X187070000Y-75975583D01*
X187275934Y-75955300D01*
X187473954Y-75895232D01*
X187656450Y-75797685D01*
X187816410Y-75666410D01*
X187947685Y-75506450D01*
X188045232Y-75323954D01*
X188105300Y-75125934D01*
X188125583Y-74920000D01*
X188105300Y-74714066D01*
X188045232Y-74516046D01*
X187947685Y-74333550D01*
X187895531Y-74270000D01*
X187816410Y-74173589D01*
X187656452Y-74042317D01*
X187656453Y-74042317D01*
X187656450Y-74042315D01*
X187473954Y-73944768D01*
X187275934Y-73884700D01*
X187275932Y-73884699D01*
X187275934Y-73884699D01*
X187070000Y-73864417D01*
X186864067Y-73884699D01*
X186666043Y-73944769D01*
X186561643Y-74000573D01*
X186483550Y-74042315D01*
X186483548Y-74042316D01*
X186483547Y-74042317D01*
X186323589Y-74173589D01*
X186192317Y-74333547D01*
X186094769Y-74516043D01*
X186034699Y-74714067D01*
X186014417Y-74920000D01*
X183510358Y-74920000D01*
X183569214Y-74818059D01*
X183626085Y-74643029D01*
X183645322Y-74460000D01*
X183626085Y-74276971D01*
X183569214Y-74101941D01*
X183477195Y-73942560D01*
X183354050Y-73805793D01*
X183354048Y-73805791D01*
X183205165Y-73697621D01*
X183205162Y-73697619D01*
X183205161Y-73697619D01*
X183140042Y-73668626D01*
X183037038Y-73622765D01*
X183037033Y-73622763D01*
X182857019Y-73584500D01*
X182672981Y-73584500D01*
X182492966Y-73622763D01*
X182492961Y-73622765D01*
X182324839Y-73697619D01*
X182324834Y-73697621D01*
X182175951Y-73805791D01*
X182175949Y-73805793D01*
X182052804Y-73942561D01*
X181960786Y-74101940D01*
X181960783Y-74101946D01*
X181906180Y-74270000D01*
X181903915Y-74276971D01*
X181884678Y-74460000D01*
X179387127Y-74460000D01*
X179395140Y-74438872D01*
X179415645Y-74270000D01*
X179395140Y-74101128D01*
X179334818Y-73942070D01*
X179238183Y-73802071D01*
X179154363Y-73727813D01*
X179117238Y-73668626D01*
X179118006Y-73598761D01*
X179154363Y-73542186D01*
X179238183Y-73467929D01*
X179334818Y-73327930D01*
X179395140Y-73168872D01*
X179415645Y-73000000D01*
X179395140Y-72831128D01*
X179377249Y-72783954D01*
X179365394Y-72752693D01*
X179334818Y-72672070D01*
X179314774Y-72643032D01*
X179300476Y-72622318D01*
X179238183Y-72532071D01*
X179156832Y-72460000D01*
X181884678Y-72460000D01*
X181903915Y-72643029D01*
X181903916Y-72643032D01*
X181960783Y-72818053D01*
X181960786Y-72818059D01*
X182052805Y-72977440D01*
X182121302Y-73053514D01*
X182175949Y-73114206D01*
X182175951Y-73114208D01*
X182324834Y-73222378D01*
X182324835Y-73222378D01*
X182324839Y-73222381D01*
X182444746Y-73275767D01*
X182492961Y-73297234D01*
X182492966Y-73297236D01*
X182672981Y-73335500D01*
X182857019Y-73335500D01*
X183037034Y-73297236D01*
X183205161Y-73222381D01*
X183354050Y-73114207D01*
X183477195Y-72977440D01*
X183569214Y-72818059D01*
X183626085Y-72643029D01*
X183645322Y-72460000D01*
X183636914Y-72380000D01*
X186014417Y-72380000D01*
X186034699Y-72585932D01*
X186039347Y-72601253D01*
X186094768Y-72783954D01*
X186192315Y-72966450D01*
X186201333Y-72977438D01*
X186323589Y-73126410D01*
X186387635Y-73178970D01*
X186483550Y-73257685D01*
X186666046Y-73355232D01*
X186864066Y-73415300D01*
X186864065Y-73415300D01*
X186882529Y-73417118D01*
X187070000Y-73435583D01*
X187275934Y-73415300D01*
X187473954Y-73355232D01*
X187656450Y-73257685D01*
X187816410Y-73126410D01*
X187947685Y-72966450D01*
X188045232Y-72783954D01*
X188105300Y-72585934D01*
X188125583Y-72380000D01*
X188105300Y-72174066D01*
X188045232Y-71976046D01*
X187947685Y-71793550D01*
X187868957Y-71697619D01*
X187816410Y-71633589D01*
X187656452Y-71502317D01*
X187656453Y-71502317D01*
X187656450Y-71502315D01*
X187474921Y-71405285D01*
X187473956Y-71404769D01*
X187473955Y-71404768D01*
X187473954Y-71404768D01*
X187275934Y-71344700D01*
X187275932Y-71344699D01*
X187275934Y-71344699D01*
X187070000Y-71324417D01*
X186864067Y-71344699D01*
X186666043Y-71404769D01*
X186576374Y-71452699D01*
X186483550Y-71502315D01*
X186483548Y-71502316D01*
X186483547Y-71502317D01*
X186323589Y-71633589D01*
X186192317Y-71793547D01*
X186094769Y-71976043D01*
X186034699Y-72174067D01*
X186014417Y-72380000D01*
X183636914Y-72380000D01*
X183626085Y-72276971D01*
X183572346Y-72111579D01*
X183569216Y-72101946D01*
X183569213Y-72101940D01*
X183477195Y-71942560D01*
X183354050Y-71805793D01*
X183354048Y-71805791D01*
X183205165Y-71697621D01*
X183205162Y-71697619D01*
X183205161Y-71697619D01*
X183144112Y-71670438D01*
X183037038Y-71622765D01*
X183037033Y-71622763D01*
X182857019Y-71584500D01*
X182672981Y-71584500D01*
X182492966Y-71622763D01*
X182492961Y-71622765D01*
X182324839Y-71697619D01*
X182324834Y-71697621D01*
X182175951Y-71805791D01*
X182175949Y-71805793D01*
X182052804Y-71942561D01*
X181960786Y-72101940D01*
X181960783Y-72101946D01*
X181905470Y-72272184D01*
X181903915Y-72276971D01*
X181884678Y-72460000D01*
X179156832Y-72460000D01*
X179154363Y-72457813D01*
X179117238Y-72398626D01*
X179118006Y-72328761D01*
X179154363Y-72272186D01*
X179238183Y-72197929D01*
X179334818Y-72057930D01*
X179395140Y-71898872D01*
X179415645Y-71730000D01*
X179395140Y-71561128D01*
X179334818Y-71402070D01*
X179238183Y-71262071D01*
X179154363Y-71187813D01*
X179117238Y-71128626D01*
X179118006Y-71058761D01*
X179154363Y-71002186D01*
X179238183Y-70927929D01*
X179334818Y-70787930D01*
X179395140Y-70628872D01*
X179415645Y-70460000D01*
X181884678Y-70460000D01*
X181903915Y-70643029D01*
X181903916Y-70643032D01*
X181960783Y-70818053D01*
X181960786Y-70818059D01*
X182052805Y-70977440D01*
X182128379Y-71061374D01*
X182175949Y-71114206D01*
X182175951Y-71114208D01*
X182324834Y-71222378D01*
X182324835Y-71222378D01*
X182324839Y-71222381D01*
X182461953Y-71283428D01*
X182492961Y-71297234D01*
X182492966Y-71297236D01*
X182672981Y-71335500D01*
X182857019Y-71335500D01*
X183037034Y-71297236D01*
X183205161Y-71222381D01*
X183354050Y-71114207D01*
X183477195Y-70977440D01*
X183569214Y-70818059D01*
X183626085Y-70643029D01*
X183645322Y-70460000D01*
X183626085Y-70276971D01*
X183569214Y-70101941D01*
X183477195Y-69942560D01*
X183384850Y-69840000D01*
X186014417Y-69840000D01*
X186034699Y-70045932D01*
X186034700Y-70045934D01*
X186094768Y-70243954D01*
X186192315Y-70426450D01*
X186192317Y-70426452D01*
X186323589Y-70586410D01*
X186420209Y-70665702D01*
X186483550Y-70717685D01*
X186666046Y-70815232D01*
X186864066Y-70875300D01*
X186864065Y-70875300D01*
X186882529Y-70877118D01*
X187070000Y-70895583D01*
X187275934Y-70875300D01*
X187473954Y-70815232D01*
X187656450Y-70717685D01*
X187816410Y-70586410D01*
X187947685Y-70426450D01*
X188045232Y-70243954D01*
X188105300Y-70045934D01*
X188125583Y-69840000D01*
X188105300Y-69634066D01*
X188045232Y-69436046D01*
X187947685Y-69253550D01*
X187833330Y-69114207D01*
X187816410Y-69093589D01*
X187674880Y-68977440D01*
X187656450Y-68962315D01*
X187473954Y-68864768D01*
X187275934Y-68804700D01*
X187275932Y-68804699D01*
X187275934Y-68804699D01*
X187070000Y-68784417D01*
X186864067Y-68804699D01*
X186666043Y-68864769D01*
X186573813Y-68914068D01*
X186483550Y-68962315D01*
X186483548Y-68962316D01*
X186483547Y-68962317D01*
X186323589Y-69093589D01*
X186192317Y-69253547D01*
X186192315Y-69253550D01*
X186168965Y-69297234D01*
X186094769Y-69436043D01*
X186034699Y-69634067D01*
X186014417Y-69840000D01*
X183384850Y-69840000D01*
X183354050Y-69805793D01*
X183354048Y-69805791D01*
X183205165Y-69697621D01*
X183205162Y-69697619D01*
X183205161Y-69697619D01*
X183144112Y-69670438D01*
X183037038Y-69622765D01*
X183037033Y-69622763D01*
X182857019Y-69584500D01*
X182672981Y-69584500D01*
X182492966Y-69622763D01*
X182492961Y-69622765D01*
X182324839Y-69697619D01*
X182324834Y-69697621D01*
X182175951Y-69805791D01*
X182175949Y-69805793D01*
X182052804Y-69942561D01*
X181960786Y-70101940D01*
X181960783Y-70101946D01*
X181914642Y-70243956D01*
X181903915Y-70276971D01*
X181884678Y-70460000D01*
X179415645Y-70460000D01*
X179395140Y-70291128D01*
X179377249Y-70243954D01*
X179334817Y-70132068D01*
X179275361Y-70045932D01*
X179238183Y-69992071D01*
X179154363Y-69917813D01*
X179117238Y-69858626D01*
X179118006Y-69788761D01*
X179154363Y-69732186D01*
X179238183Y-69657929D01*
X179334818Y-69517930D01*
X179395140Y-69358872D01*
X179415645Y-69190000D01*
X179395140Y-69021128D01*
X179389347Y-69005854D01*
X179354538Y-68914068D01*
X179334818Y-68862070D01*
X179238183Y-68722071D01*
X179154363Y-68647813D01*
X179117238Y-68588626D01*
X179118006Y-68518761D01*
X179154363Y-68462186D01*
X179156831Y-68460000D01*
X181884678Y-68460000D01*
X181903915Y-68643029D01*
X181903916Y-68643032D01*
X181960783Y-68818053D01*
X181960786Y-68818059D01*
X182052805Y-68977440D01*
X182119422Y-69051426D01*
X182175949Y-69114206D01*
X182175951Y-69114208D01*
X182324834Y-69222378D01*
X182324835Y-69222378D01*
X182324839Y-69222381D01*
X182445640Y-69276165D01*
X182492961Y-69297234D01*
X182492966Y-69297236D01*
X182672981Y-69335500D01*
X182857019Y-69335500D01*
X183037034Y-69297236D01*
X183205161Y-69222381D01*
X183354050Y-69114207D01*
X183477195Y-68977440D01*
X183569214Y-68818059D01*
X183570046Y-68815500D01*
X183581449Y-68780404D01*
X183626085Y-68643029D01*
X183645322Y-68460000D01*
X183626085Y-68276971D01*
X183589061Y-68163023D01*
X183569216Y-68101946D01*
X183569213Y-68101940D01*
X183477195Y-67942560D01*
X183354050Y-67805793D01*
X183354048Y-67805791D01*
X183205165Y-67697621D01*
X183205162Y-67697619D01*
X183205161Y-67697619D01*
X183144112Y-67670438D01*
X183037038Y-67622765D01*
X183037033Y-67622763D01*
X182857019Y-67584500D01*
X182672981Y-67584500D01*
X182492966Y-67622763D01*
X182492961Y-67622765D01*
X182324839Y-67697619D01*
X182324834Y-67697621D01*
X182175951Y-67805791D01*
X182175949Y-67805793D01*
X182052804Y-67942561D01*
X181960786Y-68101940D01*
X181960783Y-68101946D01*
X181904480Y-68275232D01*
X181903915Y-68276971D01*
X181884678Y-68460000D01*
X179156831Y-68460000D01*
X179238183Y-68387929D01*
X179334818Y-68247930D01*
X179395140Y-68088872D01*
X179415645Y-67920000D01*
X179395140Y-67751128D01*
X179377249Y-67703954D01*
X179346459Y-67622765D01*
X179334818Y-67592070D01*
X179238183Y-67452071D01*
X179154363Y-67377813D01*
X179117238Y-67318626D01*
X179118006Y-67248761D01*
X179154363Y-67192186D01*
X179238183Y-67117929D01*
X179334818Y-66977930D01*
X179395140Y-66818872D01*
X179415645Y-66650000D01*
X179395140Y-66481128D01*
X179387127Y-66460000D01*
X181884678Y-66460000D01*
X181903915Y-66643029D01*
X181903916Y-66643032D01*
X181960783Y-66818053D01*
X181960786Y-66818059D01*
X182052805Y-66977440D01*
X182119422Y-67051426D01*
X182175949Y-67114206D01*
X182175951Y-67114208D01*
X182324834Y-67222378D01*
X182324835Y-67222378D01*
X182324839Y-67222381D01*
X182445640Y-67276165D01*
X182492961Y-67297234D01*
X182492966Y-67297236D01*
X182672981Y-67335500D01*
X182857019Y-67335500D01*
X183024031Y-67300000D01*
X186014417Y-67300000D01*
X186034699Y-67505932D01*
X186034700Y-67505934D01*
X186094768Y-67703954D01*
X186192315Y-67886450D01*
X186192317Y-67886452D01*
X186323589Y-68046410D01*
X186391254Y-68101940D01*
X186483550Y-68177685D01*
X186666046Y-68275232D01*
X186864066Y-68335300D01*
X186864065Y-68335300D01*
X186882529Y-68337118D01*
X187070000Y-68355583D01*
X187275934Y-68335300D01*
X187473954Y-68275232D01*
X187656450Y-68177685D01*
X187816410Y-68046410D01*
X187947685Y-67886450D01*
X188045232Y-67703954D01*
X188105300Y-67505934D01*
X188125583Y-67300000D01*
X188105300Y-67094066D01*
X188045232Y-66896046D01*
X187947685Y-66713550D01*
X187889810Y-66643029D01*
X187816410Y-66553589D01*
X187656452Y-66422317D01*
X187656453Y-66422317D01*
X187656450Y-66422315D01*
X187473954Y-66324768D01*
X187275934Y-66264700D01*
X187275932Y-66264699D01*
X187275934Y-66264699D01*
X187070000Y-66244417D01*
X186864067Y-66264699D01*
X186666043Y-66324769D01*
X186555898Y-66383643D01*
X186483550Y-66422315D01*
X186483548Y-66422316D01*
X186483547Y-66422317D01*
X186323589Y-66553589D01*
X186192317Y-66713547D01*
X186094769Y-66896043D01*
X186034699Y-67094067D01*
X186014417Y-67300000D01*
X183024031Y-67300000D01*
X183037034Y-67297236D01*
X183205161Y-67222381D01*
X183354050Y-67114207D01*
X183477195Y-66977440D01*
X183569214Y-66818059D01*
X183626085Y-66643029D01*
X183645322Y-66460000D01*
X183626085Y-66276971D01*
X183569214Y-66101941D01*
X183477195Y-65942560D01*
X183354050Y-65805793D01*
X183354048Y-65805791D01*
X183205165Y-65697621D01*
X183205162Y-65697619D01*
X183205161Y-65697619D01*
X183125602Y-65662197D01*
X183052731Y-65629752D01*
X186019500Y-65629752D01*
X186031131Y-65688229D01*
X186031132Y-65688230D01*
X186075447Y-65754552D01*
X186141769Y-65798867D01*
X186141770Y-65798868D01*
X186200247Y-65810499D01*
X186200250Y-65810500D01*
X186200252Y-65810500D01*
X187939750Y-65810500D01*
X187939751Y-65810499D01*
X187963422Y-65805791D01*
X187998229Y-65798868D01*
X187998229Y-65798867D01*
X187998231Y-65798867D01*
X188064552Y-65754552D01*
X188108867Y-65688231D01*
X188108867Y-65688229D01*
X188108868Y-65688229D01*
X188120096Y-65631780D01*
X188120500Y-65629748D01*
X188120500Y-63890252D01*
X188120500Y-63890249D01*
X188120499Y-63890247D01*
X188108868Y-63831770D01*
X188108867Y-63831769D01*
X188064552Y-63765447D01*
X187998230Y-63721132D01*
X187998229Y-63721131D01*
X187939752Y-63709500D01*
X187939748Y-63709500D01*
X186200252Y-63709500D01*
X186200247Y-63709500D01*
X186141770Y-63721131D01*
X186141769Y-63721132D01*
X186075447Y-63765447D01*
X186031132Y-63831769D01*
X186031131Y-63831770D01*
X186019500Y-63890247D01*
X186019500Y-65629752D01*
X183052731Y-65629752D01*
X183037038Y-65622765D01*
X183037033Y-65622763D01*
X182857019Y-65584500D01*
X182672981Y-65584500D01*
X182492966Y-65622763D01*
X182492961Y-65622765D01*
X182324839Y-65697619D01*
X182324834Y-65697621D01*
X182175951Y-65805791D01*
X182175949Y-65805793D01*
X182052804Y-65942561D01*
X181960786Y-66101940D01*
X181960783Y-66101946D01*
X181913586Y-66247206D01*
X181903915Y-66276971D01*
X181884678Y-66460000D01*
X179387127Y-66460000D01*
X179386170Y-66457477D01*
X179337919Y-66330247D01*
X179334818Y-66322070D01*
X179327775Y-66311867D01*
X179283142Y-66247205D01*
X179238183Y-66182071D01*
X179154363Y-66107813D01*
X179117238Y-66048626D01*
X179118006Y-65978761D01*
X179154363Y-65922186D01*
X179238183Y-65847929D01*
X179334818Y-65707930D01*
X179395140Y-65548872D01*
X179415645Y-65380000D01*
X179395140Y-65211128D01*
X179373760Y-65154752D01*
X181889500Y-65154752D01*
X181901131Y-65213229D01*
X181901132Y-65213230D01*
X181945447Y-65279552D01*
X182011769Y-65323867D01*
X182011770Y-65323868D01*
X182070247Y-65335499D01*
X182070250Y-65335500D01*
X182070252Y-65335500D01*
X183459750Y-65335500D01*
X183459751Y-65335499D01*
X183474568Y-65332552D01*
X183518229Y-65323868D01*
X183518229Y-65323867D01*
X183518231Y-65323867D01*
X183584552Y-65279552D01*
X183628867Y-65213231D01*
X183628867Y-65213229D01*
X183628868Y-65213229D01*
X183640499Y-65154752D01*
X183640500Y-65154750D01*
X183640500Y-63765249D01*
X183640499Y-63765247D01*
X183628868Y-63706770D01*
X183628867Y-63706769D01*
X183584552Y-63640447D01*
X183518230Y-63596132D01*
X183518229Y-63596131D01*
X183459752Y-63584500D01*
X183459748Y-63584500D01*
X182070252Y-63584500D01*
X182070247Y-63584500D01*
X182011770Y-63596131D01*
X182011769Y-63596132D01*
X181945447Y-63640447D01*
X181901132Y-63706769D01*
X181901131Y-63706770D01*
X181889500Y-63765247D01*
X181889500Y-65154752D01*
X179373760Y-65154752D01*
X179334818Y-65052070D01*
X179334817Y-65052068D01*
X179334816Y-65052066D01*
X179272017Y-64961088D01*
X179250133Y-64894733D01*
X179267598Y-64827082D01*
X179305175Y-64787545D01*
X179354552Y-64754552D01*
X179398867Y-64688231D01*
X179398867Y-64688229D01*
X179398868Y-64688229D01*
X179410499Y-64629752D01*
X179410500Y-64629750D01*
X179410500Y-63590249D01*
X179410499Y-63590247D01*
X179398868Y-63531770D01*
X179398867Y-63531769D01*
X179354552Y-63465447D01*
X179288230Y-63421132D01*
X179288229Y-63421131D01*
X179229752Y-63409500D01*
X179229748Y-63409500D01*
X178190252Y-63409500D01*
X178190247Y-63409500D01*
X178131770Y-63421131D01*
X178131769Y-63421132D01*
X178065447Y-63465447D01*
X178021132Y-63531769D01*
X178021131Y-63531770D01*
X178009500Y-63590247D01*
X178009500Y-64629752D01*
X178021131Y-64688229D01*
X178021132Y-64688230D01*
X178065447Y-64754552D01*
X178114824Y-64787545D01*
X178159629Y-64841158D01*
X178168336Y-64910483D01*
X178147983Y-64961087D01*
X178085183Y-65052068D01*
X178085182Y-65052068D01*
X178024860Y-65211125D01*
X178024859Y-65211130D01*
X178004355Y-65380000D01*
X178024859Y-65548869D01*
X178024860Y-65548874D01*
X178085182Y-65707931D01*
X178117363Y-65754552D01*
X178158742Y-65814500D01*
X178181818Y-65847930D01*
X178265634Y-65922185D01*
X178302761Y-65981374D01*
X178301993Y-66051240D01*
X178265634Y-66107815D01*
X178181818Y-66182069D01*
X178085182Y-66322068D01*
X178024860Y-66481125D01*
X178024859Y-66481130D01*
X178004355Y-66650000D01*
X178024859Y-66818869D01*
X178024860Y-66818874D01*
X178085182Y-66977931D01*
X178135913Y-67051426D01*
X178165345Y-67094066D01*
X178181818Y-67117930D01*
X178265634Y-67192185D01*
X178302761Y-67251374D01*
X178301993Y-67321240D01*
X178265634Y-67377815D01*
X178181818Y-67452069D01*
X178085182Y-67592068D01*
X178024860Y-67751125D01*
X178024859Y-67751130D01*
X178004355Y-67920000D01*
X178024859Y-68088869D01*
X178024860Y-68088874D01*
X178085182Y-68247931D01*
X178181818Y-68387930D01*
X178265634Y-68462185D01*
X178302761Y-68521374D01*
X178301993Y-68591240D01*
X178265634Y-68647815D01*
X178181818Y-68722069D01*
X178085182Y-68862068D01*
X178024860Y-69021125D01*
X178024859Y-69021130D01*
X178004355Y-69190000D01*
X178024859Y-69358869D01*
X178024860Y-69358874D01*
X178085182Y-69517931D01*
X178093685Y-69530249D01*
X178165345Y-69634066D01*
X178181818Y-69657930D01*
X178265634Y-69732185D01*
X178302761Y-69791374D01*
X178301993Y-69861240D01*
X178265634Y-69917815D01*
X178181818Y-69992069D01*
X178085182Y-70132068D01*
X178024860Y-70291125D01*
X178024859Y-70291130D01*
X178004355Y-70460000D01*
X178024859Y-70628869D01*
X178024860Y-70628874D01*
X178085182Y-70787931D01*
X178181818Y-70927930D01*
X178265634Y-71002185D01*
X178302761Y-71061374D01*
X178301993Y-71131240D01*
X178265634Y-71187815D01*
X178181818Y-71262069D01*
X178085182Y-71402068D01*
X178024860Y-71561125D01*
X178024859Y-71561130D01*
X178004355Y-71730000D01*
X178024859Y-71898869D01*
X178024860Y-71898874D01*
X178085182Y-72057931D01*
X178122213Y-72111579D01*
X178165345Y-72174066D01*
X178181818Y-72197930D01*
X178265634Y-72272185D01*
X178302761Y-72331374D01*
X178301993Y-72401240D01*
X178265634Y-72457815D01*
X178181818Y-72532069D01*
X178085182Y-72672068D01*
X178024860Y-72831125D01*
X178024859Y-72831130D01*
X178004355Y-73000000D01*
X178024859Y-73168869D01*
X178024860Y-73168874D01*
X178085182Y-73327931D01*
X178104027Y-73355232D01*
X178176405Y-73460089D01*
X178181818Y-73467930D01*
X178265634Y-73542185D01*
X178302761Y-73601374D01*
X178301993Y-73671240D01*
X178265634Y-73727815D01*
X178181818Y-73802069D01*
X178085182Y-73942068D01*
X178024860Y-74101125D01*
X178024859Y-74101130D01*
X178004355Y-74270000D01*
X178024859Y-74438869D01*
X178024860Y-74438874D01*
X178085182Y-74597931D01*
X178116314Y-74643032D01*
X178165345Y-74714066D01*
X178181818Y-74737930D01*
X178265634Y-74812185D01*
X178302761Y-74871374D01*
X178301993Y-74941240D01*
X178265634Y-74997815D01*
X178181818Y-75072069D01*
X178085182Y-75212068D01*
X178024860Y-75371125D01*
X178024859Y-75371130D01*
X178004355Y-75540000D01*
X147740500Y-75540000D01*
X147740500Y-73693260D01*
X150199500Y-73693260D01*
X150209426Y-73761391D01*
X150260803Y-73866485D01*
X150343514Y-73949196D01*
X150343515Y-73949196D01*
X150343517Y-73949198D01*
X150448607Y-74000573D01*
X150482673Y-74005536D01*
X150516739Y-74010500D01*
X150516740Y-74010500D01*
X150883261Y-74010500D01*
X150905971Y-74007191D01*
X150951393Y-74000573D01*
X151056483Y-73949198D01*
X151139198Y-73866483D01*
X151190573Y-73761393D01*
X151200500Y-73693260D01*
X151599500Y-73693260D01*
X151609426Y-73761391D01*
X151660803Y-73866485D01*
X151743514Y-73949196D01*
X151743515Y-73949196D01*
X151743517Y-73949198D01*
X151848607Y-74000573D01*
X151882673Y-74005536D01*
X151916739Y-74010500D01*
X151916740Y-74010500D01*
X152283261Y-74010500D01*
X152305971Y-74007191D01*
X152351393Y-74000573D01*
X152456483Y-73949198D01*
X152539198Y-73866483D01*
X152590573Y-73761393D01*
X152600500Y-73693260D01*
X152600500Y-73226740D01*
X152599864Y-73222378D01*
X152590573Y-73158608D01*
X152590573Y-73158607D01*
X152539198Y-73053517D01*
X152539196Y-73053515D01*
X152539196Y-73053514D01*
X152456485Y-72970803D01*
X152351391Y-72919426D01*
X152283261Y-72909500D01*
X152283260Y-72909500D01*
X151916740Y-72909500D01*
X151916739Y-72909500D01*
X151848608Y-72919426D01*
X151743514Y-72970803D01*
X151660803Y-73053514D01*
X151609426Y-73158608D01*
X151599500Y-73226739D01*
X151599500Y-73693260D01*
X151200500Y-73693260D01*
X151200500Y-73226740D01*
X151199864Y-73222378D01*
X151190573Y-73158608D01*
X151190573Y-73158607D01*
X151139198Y-73053517D01*
X151139196Y-73053515D01*
X151139196Y-73053514D01*
X151056485Y-72970803D01*
X150951391Y-72919426D01*
X150883261Y-72909500D01*
X150883260Y-72909500D01*
X150516740Y-72909500D01*
X150516739Y-72909500D01*
X150448608Y-72919426D01*
X150343514Y-72970803D01*
X150260803Y-73053514D01*
X150209426Y-73158608D01*
X150199500Y-73226739D01*
X150199500Y-73693260D01*
X147740500Y-73693260D01*
X147740500Y-72935742D01*
X147740499Y-72935728D01*
X147739421Y-72924234D01*
X147739421Y-72924228D01*
X147738452Y-72913906D01*
X147737646Y-72905301D01*
X147692793Y-72777118D01*
X147612150Y-72667850D01*
X147502882Y-72587207D01*
X147502880Y-72587206D01*
X147374700Y-72542353D01*
X147344270Y-72539500D01*
X147344266Y-72539500D01*
X147344264Y-72539500D01*
X141794266Y-72539500D01*
X136935734Y-72539500D01*
X136935730Y-72539500D01*
X136905300Y-72542353D01*
X136905298Y-72542353D01*
X136777119Y-72587206D01*
X136777117Y-72587207D01*
X136667850Y-72667850D01*
X136587207Y-72777117D01*
X136587206Y-72777119D01*
X136542355Y-72905294D01*
X136542353Y-72905306D01*
X136540579Y-72924228D01*
X136540579Y-72924234D01*
X136539500Y-72935728D01*
X136539500Y-81944269D01*
X120183000Y-81944269D01*
X120183000Y-81660730D01*
X120180146Y-81630300D01*
X120180146Y-81630298D01*
X120135293Y-81502119D01*
X120135292Y-81502117D01*
X120122229Y-81484417D01*
X120054650Y-81392850D01*
X119945382Y-81312207D01*
X119945380Y-81312206D01*
X119817200Y-81267353D01*
X119786770Y-81264500D01*
X119786766Y-81264500D01*
X119053234Y-81264500D01*
X119053230Y-81264500D01*
X119022800Y-81267353D01*
X119022798Y-81267353D01*
X118894619Y-81312206D01*
X118894617Y-81312207D01*
X118785350Y-81392850D01*
X118704707Y-81502117D01*
X118704706Y-81502119D01*
X118659853Y-81630298D01*
X118659853Y-81630300D01*
X118657000Y-81660730D01*
X118657000Y-83919269D01*
X117258000Y-83919269D01*
X117258000Y-81660730D01*
X117255146Y-81630300D01*
X117255146Y-81630298D01*
X117210293Y-81502119D01*
X117210292Y-81502117D01*
X117197229Y-81484417D01*
X117129650Y-81392850D01*
X117020382Y-81312207D01*
X117020380Y-81312206D01*
X116892200Y-81267353D01*
X116861770Y-81264500D01*
X116861766Y-81264500D01*
X116128234Y-81264500D01*
X116128230Y-81264500D01*
X116097800Y-81267353D01*
X116097798Y-81267353D01*
X115969619Y-81312206D01*
X115969617Y-81312207D01*
X115860350Y-81392850D01*
X115779707Y-81502117D01*
X115779706Y-81502119D01*
X115734853Y-81630298D01*
X115734853Y-81630300D01*
X115732000Y-81660730D01*
X115732000Y-83919269D01*
X110971822Y-83919269D01*
X110971822Y-79084269D01*
X115732000Y-79084269D01*
X115734853Y-79114699D01*
X115734853Y-79114701D01*
X115772532Y-79222378D01*
X115779707Y-79242882D01*
X115860350Y-79352150D01*
X115969618Y-79432793D01*
X116012345Y-79447744D01*
X116097799Y-79477646D01*
X116128230Y-79480500D01*
X116128234Y-79480500D01*
X116861770Y-79480500D01*
X116892199Y-79477646D01*
X116892201Y-79477646D01*
X116956290Y-79455219D01*
X117020382Y-79432793D01*
X117129650Y-79352150D01*
X117210293Y-79242882D01*
X117232719Y-79178790D01*
X117255146Y-79114701D01*
X117255146Y-79114699D01*
X117258000Y-79084269D01*
X118657000Y-79084269D01*
X118659853Y-79114699D01*
X118659853Y-79114701D01*
X118697532Y-79222378D01*
X118704707Y-79242882D01*
X118785350Y-79352150D01*
X118894618Y-79432793D01*
X118937345Y-79447744D01*
X119022799Y-79477646D01*
X119053230Y-79480500D01*
X119053234Y-79480500D01*
X119786770Y-79480500D01*
X119817199Y-79477646D01*
X119817201Y-79477646D01*
X119881290Y-79455219D01*
X119945382Y-79432793D01*
X120054650Y-79352150D01*
X120135293Y-79242882D01*
X120157719Y-79178790D01*
X120180146Y-79114701D01*
X120180146Y-79114699D01*
X120183000Y-79084269D01*
X120183000Y-77725730D01*
X120180146Y-77695300D01*
X120180146Y-77695298D01*
X120135293Y-77567119D01*
X120135292Y-77567117D01*
X120054650Y-77457850D01*
X119945382Y-77377207D01*
X119945380Y-77377206D01*
X119817200Y-77332353D01*
X119786770Y-77329500D01*
X119786766Y-77329500D01*
X119053234Y-77329500D01*
X119053230Y-77329500D01*
X119022800Y-77332353D01*
X119022798Y-77332353D01*
X118894619Y-77377206D01*
X118894617Y-77377207D01*
X118785350Y-77457850D01*
X118704707Y-77567117D01*
X118704706Y-77567119D01*
X118659853Y-77695298D01*
X118659853Y-77695300D01*
X118657000Y-77725730D01*
X118657000Y-79084269D01*
X117258000Y-79084269D01*
X117258000Y-77725730D01*
X117255146Y-77695300D01*
X117255146Y-77695298D01*
X117210293Y-77567119D01*
X117210292Y-77567117D01*
X117129650Y-77457850D01*
X117020382Y-77377207D01*
X117020380Y-77377206D01*
X116892200Y-77332353D01*
X116861770Y-77329500D01*
X116861766Y-77329500D01*
X116128234Y-77329500D01*
X116128230Y-77329500D01*
X116097800Y-77332353D01*
X116097798Y-77332353D01*
X115969619Y-77377206D01*
X115969617Y-77377207D01*
X115860350Y-77457850D01*
X115779707Y-77567117D01*
X115779706Y-77567119D01*
X115734853Y-77695298D01*
X115734853Y-77695300D01*
X115732000Y-77725730D01*
X115732000Y-79084269D01*
X110971822Y-79084269D01*
X110971822Y-77069856D01*
X132079500Y-77069856D01*
X132079502Y-77069882D01*
X132082413Y-77094987D01*
X132082415Y-77094991D01*
X132127793Y-77197764D01*
X132127794Y-77197765D01*
X132207235Y-77277206D01*
X132310009Y-77322585D01*
X132335135Y-77325500D01*
X132624864Y-77325499D01*
X132624879Y-77325497D01*
X132624882Y-77325497D01*
X132649987Y-77322586D01*
X132649988Y-77322585D01*
X132649991Y-77322585D01*
X132752765Y-77277206D01*
X132792319Y-77237652D01*
X132853642Y-77204167D01*
X132923334Y-77209151D01*
X132967681Y-77237652D01*
X133007235Y-77277206D01*
X133110009Y-77322585D01*
X133135135Y-77325500D01*
X133424864Y-77325499D01*
X133424879Y-77325497D01*
X133424882Y-77325497D01*
X133449987Y-77322586D01*
X133449988Y-77322585D01*
X133449991Y-77322585D01*
X133552765Y-77277206D01*
X133632206Y-77197765D01*
X133677585Y-77094991D01*
X133680500Y-77069865D01*
X133680499Y-76730136D01*
X133680000Y-76725829D01*
X133677586Y-76705012D01*
X133677585Y-76705010D01*
X133677585Y-76705009D01*
X133632206Y-76602235D01*
X133552765Y-76522794D01*
X133552763Y-76522793D01*
X133449992Y-76477415D01*
X133424865Y-76474500D01*
X133135143Y-76474500D01*
X133135117Y-76474502D01*
X133110012Y-76477413D01*
X133110008Y-76477415D01*
X133007235Y-76522793D01*
X133007234Y-76522794D01*
X132967681Y-76562348D01*
X132906358Y-76595833D01*
X132836666Y-76590849D01*
X132792319Y-76562348D01*
X132752765Y-76522794D01*
X132649992Y-76477415D01*
X132624865Y-76474500D01*
X132335143Y-76474500D01*
X132335117Y-76474502D01*
X132310012Y-76477413D01*
X132310008Y-76477415D01*
X132207235Y-76522793D01*
X132127794Y-76602234D01*
X132082415Y-76705006D01*
X132082415Y-76705008D01*
X132079500Y-76730131D01*
X132079500Y-77069856D01*
X110971822Y-77069856D01*
X110971822Y-75919856D01*
X132479500Y-75919856D01*
X132479502Y-75919882D01*
X132482413Y-75944987D01*
X132482415Y-75944991D01*
X132527793Y-76047764D01*
X132527794Y-76047765D01*
X132607235Y-76127206D01*
X132710009Y-76172585D01*
X132735135Y-76175500D01*
X133024864Y-76175499D01*
X133024879Y-76175497D01*
X133024882Y-76175497D01*
X133049987Y-76172586D01*
X133049988Y-76172585D01*
X133049991Y-76172585D01*
X133152765Y-76127206D01*
X133232206Y-76047765D01*
X133277585Y-75944991D01*
X133280500Y-75919865D01*
X133280499Y-75580136D01*
X133280497Y-75580117D01*
X133277586Y-75555012D01*
X133277585Y-75555010D01*
X133277585Y-75555009D01*
X133232206Y-75452235D01*
X133152765Y-75372794D01*
X133148985Y-75371125D01*
X133049992Y-75327415D01*
X133024865Y-75324500D01*
X132735143Y-75324500D01*
X132735117Y-75324502D01*
X132710012Y-75327413D01*
X132710008Y-75327415D01*
X132607235Y-75372793D01*
X132527794Y-75452234D01*
X132482415Y-75555006D01*
X132482415Y-75555008D01*
X132479500Y-75580131D01*
X132479500Y-75919856D01*
X110971822Y-75919856D01*
X110971822Y-75154269D01*
X115732000Y-75154269D01*
X115734853Y-75184699D01*
X115734853Y-75184701D01*
X115774232Y-75297236D01*
X115779707Y-75312882D01*
X115860350Y-75422150D01*
X115969618Y-75502793D01*
X116012345Y-75517744D01*
X116097799Y-75547646D01*
X116128230Y-75550500D01*
X116128234Y-75550500D01*
X116761770Y-75550500D01*
X116792199Y-75547646D01*
X116792201Y-75547646D01*
X116856290Y-75525219D01*
X116920382Y-75502793D01*
X117029650Y-75422150D01*
X117110293Y-75312882D01*
X117145569Y-75212070D01*
X117155146Y-75184701D01*
X117155146Y-75184699D01*
X117158000Y-75154269D01*
X117557000Y-75154269D01*
X117559853Y-75184699D01*
X117559853Y-75184701D01*
X117599232Y-75297236D01*
X117604707Y-75312882D01*
X117685350Y-75422150D01*
X117794618Y-75502793D01*
X117837345Y-75517744D01*
X117922799Y-75547646D01*
X117953230Y-75550500D01*
X117953234Y-75550500D01*
X118586770Y-75550500D01*
X118617199Y-75547646D01*
X118617201Y-75547646D01*
X118681290Y-75525219D01*
X118745382Y-75502793D01*
X118854650Y-75422150D01*
X118935293Y-75312882D01*
X118970569Y-75212070D01*
X118980146Y-75184701D01*
X118980146Y-75184699D01*
X118983000Y-75154269D01*
X118983000Y-74145730D01*
X118980146Y-74115300D01*
X118980146Y-74115298D01*
X118935293Y-73987119D01*
X118935292Y-73987117D01*
X118854650Y-73877850D01*
X118745382Y-73797207D01*
X118745380Y-73797206D01*
X118617200Y-73752353D01*
X118586770Y-73749500D01*
X118586766Y-73749500D01*
X117953234Y-73749500D01*
X117953230Y-73749500D01*
X117922800Y-73752353D01*
X117922798Y-73752353D01*
X117794619Y-73797206D01*
X117794617Y-73797207D01*
X117685350Y-73877850D01*
X117604707Y-73987117D01*
X117604706Y-73987119D01*
X117559853Y-74115298D01*
X117559853Y-74115300D01*
X117557000Y-74145730D01*
X117557000Y-75154269D01*
X117158000Y-75154269D01*
X117158000Y-74145730D01*
X117155146Y-74115300D01*
X117155146Y-74115298D01*
X117110293Y-73987119D01*
X117110292Y-73987117D01*
X117029650Y-73877850D01*
X116920382Y-73797207D01*
X116920380Y-73797206D01*
X116792200Y-73752353D01*
X116761770Y-73749500D01*
X116761766Y-73749500D01*
X116128234Y-73749500D01*
X116128230Y-73749500D01*
X116097800Y-73752353D01*
X116097798Y-73752353D01*
X115969619Y-73797206D01*
X115969617Y-73797207D01*
X115860350Y-73877850D01*
X115779707Y-73987117D01*
X115779706Y-73987119D01*
X115734853Y-74115298D01*
X115734853Y-74115300D01*
X115732000Y-74145730D01*
X115732000Y-75154269D01*
X110971822Y-75154269D01*
X110971822Y-73178964D01*
X131929500Y-73178964D01*
X131929501Y-73178970D01*
X131935741Y-73226377D01*
X131935742Y-73226379D01*
X131935742Y-73226380D01*
X131968782Y-73297234D01*
X131984253Y-73330411D01*
X132065421Y-73411579D01*
X132169455Y-73460091D01*
X132216861Y-73466332D01*
X132543138Y-73466331D01*
X132590545Y-73460091D01*
X132694579Y-73411579D01*
X132775747Y-73330411D01*
X132775748Y-73330406D01*
X132778425Y-73326586D01*
X132833002Y-73282961D01*
X132902500Y-73275767D01*
X132964855Y-73307290D01*
X132981575Y-73326586D01*
X132984253Y-73330411D01*
X133065421Y-73411579D01*
X133169455Y-73460091D01*
X133216861Y-73466332D01*
X133543138Y-73466331D01*
X133590545Y-73460091D01*
X133694579Y-73411579D01*
X133775747Y-73330411D01*
X133824259Y-73226377D01*
X133830500Y-73178971D01*
X133830499Y-72752694D01*
X133824259Y-72705287D01*
X133775747Y-72601253D01*
X133694579Y-72520085D01*
X133590545Y-72471573D01*
X133590543Y-72471572D01*
X133590544Y-72471572D01*
X133543140Y-72465332D01*
X133216867Y-72465332D01*
X133201839Y-72467310D01*
X133169455Y-72471573D01*
X133169453Y-72471574D01*
X133169451Y-72471574D01*
X133065420Y-72520085D01*
X132984251Y-72601254D01*
X132981572Y-72605081D01*
X132926994Y-72648704D01*
X132857495Y-72655895D01*
X132795142Y-72624370D01*
X132778428Y-72605081D01*
X132775748Y-72601254D01*
X132694579Y-72520085D01*
X132590545Y-72471573D01*
X132590543Y-72471572D01*
X132590544Y-72471572D01*
X132543140Y-72465332D01*
X132216867Y-72465332D01*
X132201839Y-72467310D01*
X132169455Y-72471573D01*
X132169453Y-72471574D01*
X132169451Y-72471574D01*
X132065420Y-72520085D01*
X131984253Y-72601252D01*
X131935740Y-72705288D01*
X131929500Y-72752692D01*
X131929500Y-73178964D01*
X110971822Y-73178964D01*
X110971822Y-71591517D01*
X115732000Y-71591517D01*
X115738664Y-71633589D01*
X115746854Y-71685304D01*
X115804450Y-71798342D01*
X115804452Y-71798344D01*
X115804454Y-71798347D01*
X115894152Y-71888045D01*
X115894154Y-71888046D01*
X115894158Y-71888050D01*
X116007194Y-71945645D01*
X116007198Y-71945647D01*
X116100975Y-71960499D01*
X116100981Y-71960500D01*
X116564018Y-71960499D01*
X116657804Y-71945646D01*
X116770842Y-71888050D01*
X116860550Y-71798342D01*
X116918146Y-71685304D01*
X116918146Y-71685302D01*
X116918147Y-71685301D01*
X116932999Y-71591524D01*
X116933000Y-71591519D01*
X116933000Y-71591517D01*
X117382000Y-71591517D01*
X117388664Y-71633589D01*
X117396854Y-71685304D01*
X117454450Y-71798342D01*
X117454452Y-71798344D01*
X117454454Y-71798347D01*
X117544152Y-71888045D01*
X117544154Y-71888046D01*
X117544158Y-71888050D01*
X117657194Y-71945645D01*
X117657198Y-71945647D01*
X117750975Y-71960499D01*
X117750981Y-71960500D01*
X118214018Y-71960499D01*
X118307804Y-71945646D01*
X118420842Y-71888050D01*
X118429928Y-71878964D01*
X132429500Y-71878964D01*
X132429501Y-71878970D01*
X132435741Y-71926377D01*
X132435742Y-71926379D01*
X132435742Y-71926380D01*
X132458902Y-71976046D01*
X132484253Y-72030411D01*
X132565421Y-72111579D01*
X132669455Y-72160091D01*
X132716861Y-72166332D01*
X133043138Y-72166331D01*
X133090545Y-72160091D01*
X133194579Y-72111579D01*
X133275747Y-72030411D01*
X133324259Y-71926377D01*
X133330500Y-71878971D01*
X133330499Y-71452694D01*
X133324259Y-71405287D01*
X133275747Y-71301253D01*
X133194579Y-71220085D01*
X133090545Y-71171573D01*
X133090543Y-71171572D01*
X133090544Y-71171572D01*
X133043140Y-71165332D01*
X132716867Y-71165332D01*
X132701839Y-71167310D01*
X132669455Y-71171573D01*
X132669453Y-71171574D01*
X132669451Y-71171574D01*
X132565420Y-71220085D01*
X132484253Y-71301252D01*
X132435740Y-71405288D01*
X132429500Y-71452692D01*
X132429500Y-71878964D01*
X118429928Y-71878964D01*
X118510550Y-71798342D01*
X118568146Y-71685304D01*
X118568146Y-71685302D01*
X118568147Y-71685301D01*
X118582999Y-71591524D01*
X118583000Y-71591519D01*
X118582999Y-70978482D01*
X118568146Y-70884696D01*
X118510550Y-70771658D01*
X118510546Y-70771654D01*
X118510545Y-70771652D01*
X118420847Y-70681954D01*
X118420844Y-70681952D01*
X118420842Y-70681950D01*
X118344017Y-70642805D01*
X118307801Y-70624352D01*
X118214024Y-70609500D01*
X117750982Y-70609500D01*
X117670019Y-70622323D01*
X117657196Y-70624354D01*
X117544158Y-70681950D01*
X117544157Y-70681951D01*
X117544152Y-70681954D01*
X117454454Y-70771652D01*
X117454451Y-70771657D01*
X117454450Y-70771658D01*
X117435251Y-70809337D01*
X117396852Y-70884698D01*
X117382000Y-70978475D01*
X117382000Y-71591517D01*
X116933000Y-71591517D01*
X116932999Y-70978482D01*
X116918146Y-70884696D01*
X116860550Y-70771658D01*
X116860546Y-70771654D01*
X116860545Y-70771652D01*
X116770847Y-70681954D01*
X116770844Y-70681952D01*
X116770842Y-70681950D01*
X116694017Y-70642805D01*
X116657801Y-70624352D01*
X116564024Y-70609500D01*
X116100982Y-70609500D01*
X116020019Y-70622323D01*
X116007196Y-70624354D01*
X115894158Y-70681950D01*
X115894157Y-70681951D01*
X115894152Y-70681954D01*
X115804454Y-70771652D01*
X115804451Y-70771657D01*
X115804450Y-70771658D01*
X115785251Y-70809337D01*
X115746852Y-70884698D01*
X115732000Y-70978475D01*
X115732000Y-71591517D01*
X110971822Y-71591517D01*
X110971822Y-70569752D01*
X162019500Y-70569752D01*
X162031131Y-70628229D01*
X162031132Y-70628230D01*
X162075447Y-70694552D01*
X162141769Y-70738867D01*
X162141770Y-70738868D01*
X162200247Y-70750499D01*
X162200250Y-70750500D01*
X162200252Y-70750500D01*
X163739750Y-70750500D01*
X163739751Y-70750499D01*
X163754568Y-70747552D01*
X163798229Y-70738868D01*
X163798229Y-70738867D01*
X163798231Y-70738867D01*
X163864552Y-70694552D01*
X163908867Y-70628231D01*
X163908867Y-70628229D01*
X163908868Y-70628229D01*
X163920499Y-70569752D01*
X166919500Y-70569752D01*
X166931131Y-70628229D01*
X166931132Y-70628230D01*
X166975447Y-70694552D01*
X167041769Y-70738867D01*
X167041770Y-70738868D01*
X167100247Y-70750499D01*
X167100250Y-70750500D01*
X167100252Y-70750500D01*
X168639750Y-70750500D01*
X168639751Y-70750499D01*
X168654568Y-70747552D01*
X168698229Y-70738868D01*
X168698229Y-70738867D01*
X168698231Y-70738867D01*
X168764552Y-70694552D01*
X168808867Y-70628231D01*
X168808867Y-70628229D01*
X168808868Y-70628229D01*
X168820499Y-70569752D01*
X168820500Y-70569750D01*
X168820500Y-69530249D01*
X168820499Y-69530247D01*
X168808868Y-69471770D01*
X168808867Y-69471769D01*
X168764552Y-69405447D01*
X168698230Y-69361132D01*
X168698229Y-69361131D01*
X168639752Y-69349500D01*
X168639748Y-69349500D01*
X167100252Y-69349500D01*
X167100247Y-69349500D01*
X167041770Y-69361131D01*
X167041769Y-69361132D01*
X166975447Y-69405447D01*
X166931132Y-69471769D01*
X166931131Y-69471770D01*
X166919500Y-69530247D01*
X166919500Y-70569752D01*
X163920499Y-70569752D01*
X163920500Y-70569750D01*
X163920500Y-69530249D01*
X163920499Y-69530247D01*
X163908868Y-69471770D01*
X163908867Y-69471769D01*
X163864552Y-69405447D01*
X163798230Y-69361132D01*
X163798229Y-69361131D01*
X163739752Y-69349500D01*
X163739748Y-69349500D01*
X162200252Y-69349500D01*
X162200247Y-69349500D01*
X162141770Y-69361131D01*
X162141769Y-69361132D01*
X162075447Y-69405447D01*
X162031132Y-69471769D01*
X162031131Y-69471770D01*
X162019500Y-69530247D01*
X162019500Y-70569752D01*
X110971822Y-70569752D01*
X110971822Y-69831769D01*
X139062000Y-69831769D01*
X139064853Y-69862199D01*
X139064853Y-69862201D01*
X139109706Y-69990380D01*
X139109707Y-69990382D01*
X139190350Y-70099650D01*
X139299618Y-70180293D01*
X139342345Y-70195244D01*
X139427799Y-70225146D01*
X139458230Y-70228000D01*
X139458234Y-70228000D01*
X140266770Y-70228000D01*
X140297199Y-70225146D01*
X140297201Y-70225146D01*
X140361290Y-70202719D01*
X140425382Y-70180293D01*
X140534650Y-70099650D01*
X140615293Y-69990382D01*
X140640685Y-69917815D01*
X140660146Y-69862201D01*
X140660146Y-69862199D01*
X140663000Y-69831769D01*
X143622000Y-69831769D01*
X143624853Y-69862199D01*
X143624853Y-69862201D01*
X143669706Y-69990380D01*
X143669707Y-69990382D01*
X143750350Y-70099650D01*
X143859618Y-70180293D01*
X143902345Y-70195244D01*
X143987799Y-70225146D01*
X144018230Y-70228000D01*
X144018234Y-70228000D01*
X144826770Y-70228000D01*
X144857199Y-70225146D01*
X144857201Y-70225146D01*
X144921290Y-70202719D01*
X144985382Y-70180293D01*
X145094650Y-70099650D01*
X145175293Y-69990382D01*
X145200685Y-69917815D01*
X145220146Y-69862201D01*
X145220146Y-69862199D01*
X145223000Y-69831769D01*
X145223000Y-68634752D01*
X155547022Y-68634752D01*
X155558653Y-68693229D01*
X155558654Y-68693230D01*
X155602969Y-68759552D01*
X155669291Y-68803867D01*
X155669292Y-68803868D01*
X155727769Y-68815499D01*
X155727772Y-68815500D01*
X155727774Y-68815500D01*
X157267272Y-68815500D01*
X157267273Y-68815499D01*
X157282090Y-68812552D01*
X157325751Y-68803868D01*
X157325751Y-68803867D01*
X157325753Y-68803867D01*
X157392074Y-68759552D01*
X157436389Y-68693231D01*
X157436389Y-68693229D01*
X157436390Y-68693229D01*
X157448021Y-68634752D01*
X158547022Y-68634752D01*
X158558653Y-68693229D01*
X158558654Y-68693230D01*
X158602969Y-68759552D01*
X158669291Y-68803867D01*
X158669292Y-68803868D01*
X158727769Y-68815499D01*
X158727772Y-68815500D01*
X158727774Y-68815500D01*
X160267272Y-68815500D01*
X160267273Y-68815499D01*
X160282090Y-68812552D01*
X160325751Y-68803868D01*
X160325751Y-68803867D01*
X160325753Y-68803867D01*
X160392074Y-68759552D01*
X160436389Y-68693231D01*
X160436389Y-68693229D01*
X160436390Y-68693229D01*
X160448021Y-68634752D01*
X160448022Y-68634750D01*
X160448022Y-67495249D01*
X160448021Y-67495247D01*
X160436390Y-67436770D01*
X160436389Y-67436768D01*
X160401057Y-67383892D01*
X160396629Y-67369752D01*
X162019500Y-67369752D01*
X162031131Y-67428229D01*
X162031132Y-67428230D01*
X162075447Y-67494552D01*
X162141769Y-67538867D01*
X162141770Y-67538868D01*
X162200247Y-67550499D01*
X162200250Y-67550500D01*
X162200252Y-67550500D01*
X163739750Y-67550500D01*
X163739751Y-67550499D01*
X163754568Y-67547552D01*
X163798229Y-67538868D01*
X163798229Y-67538867D01*
X163798231Y-67538867D01*
X163864552Y-67494552D01*
X163908867Y-67428231D01*
X163908867Y-67428229D01*
X163908868Y-67428229D01*
X163920499Y-67369752D01*
X166919500Y-67369752D01*
X166931131Y-67428229D01*
X166931132Y-67428230D01*
X166975447Y-67494552D01*
X167041769Y-67538867D01*
X167041770Y-67538868D01*
X167100247Y-67550499D01*
X167100250Y-67550500D01*
X167100252Y-67550500D01*
X168639750Y-67550500D01*
X168639751Y-67550499D01*
X168654568Y-67547552D01*
X168698229Y-67538868D01*
X168698229Y-67538867D01*
X168698231Y-67538867D01*
X168764552Y-67494552D01*
X168808867Y-67428231D01*
X168808867Y-67428229D01*
X168808868Y-67428229D01*
X168820499Y-67369752D01*
X168820500Y-67369750D01*
X168820500Y-66330249D01*
X168820499Y-66330247D01*
X168808868Y-66271770D01*
X168808867Y-66271769D01*
X168764552Y-66205447D01*
X168698230Y-66161132D01*
X168698229Y-66161131D01*
X168639752Y-66149500D01*
X168639748Y-66149500D01*
X167100252Y-66149500D01*
X167100247Y-66149500D01*
X167041770Y-66161131D01*
X167041769Y-66161132D01*
X166975447Y-66205447D01*
X166931132Y-66271769D01*
X166931131Y-66271770D01*
X166919500Y-66330247D01*
X166919500Y-67369752D01*
X163920499Y-67369752D01*
X163920500Y-67369750D01*
X163920500Y-66330249D01*
X163920499Y-66330247D01*
X163908868Y-66271770D01*
X163908867Y-66271769D01*
X163864552Y-66205447D01*
X163798230Y-66161132D01*
X163798229Y-66161131D01*
X163739752Y-66149500D01*
X163739748Y-66149500D01*
X162200252Y-66149500D01*
X162200247Y-66149500D01*
X162141770Y-66161131D01*
X162141769Y-66161132D01*
X162075447Y-66205447D01*
X162031132Y-66271769D01*
X162031131Y-66271770D01*
X162019500Y-66330247D01*
X162019500Y-67369752D01*
X160396629Y-67369752D01*
X160380178Y-67317215D01*
X160398662Y-67249835D01*
X160401057Y-67246108D01*
X160436389Y-67193231D01*
X160436390Y-67193229D01*
X160448021Y-67134752D01*
X160448022Y-67134750D01*
X160448022Y-65995249D01*
X160448021Y-65995247D01*
X160436390Y-65936770D01*
X160436389Y-65936769D01*
X160392074Y-65870447D01*
X160325752Y-65826132D01*
X160325751Y-65826131D01*
X160267274Y-65814500D01*
X160267270Y-65814500D01*
X158727774Y-65814500D01*
X158727769Y-65814500D01*
X158669292Y-65826131D01*
X158669291Y-65826132D01*
X158602969Y-65870447D01*
X158558654Y-65936769D01*
X158558653Y-65936770D01*
X158547022Y-65995247D01*
X158547022Y-67134752D01*
X158558653Y-67193229D01*
X158558654Y-67193230D01*
X158593987Y-67246109D01*
X158614865Y-67312786D01*
X158596381Y-67380166D01*
X158593987Y-67383891D01*
X158558654Y-67436769D01*
X158558653Y-67436770D01*
X158547022Y-67495247D01*
X158547022Y-68634752D01*
X157448021Y-68634752D01*
X157448022Y-68634750D01*
X157448022Y-67495249D01*
X157448021Y-67495247D01*
X157436390Y-67436770D01*
X157436389Y-67436768D01*
X157401057Y-67383892D01*
X157380178Y-67317215D01*
X157398662Y-67249835D01*
X157401057Y-67246108D01*
X157436389Y-67193231D01*
X157436390Y-67193229D01*
X157448021Y-67134752D01*
X157448022Y-67134750D01*
X157448022Y-65995249D01*
X157448021Y-65995247D01*
X157436390Y-65936770D01*
X157436389Y-65936769D01*
X157392074Y-65870447D01*
X157325752Y-65826132D01*
X157325751Y-65826131D01*
X157267274Y-65814500D01*
X157267270Y-65814500D01*
X155727774Y-65814500D01*
X155727769Y-65814500D01*
X155669292Y-65826131D01*
X155669291Y-65826132D01*
X155602969Y-65870447D01*
X155558654Y-65936769D01*
X155558653Y-65936770D01*
X155547022Y-65995247D01*
X155547022Y-67134752D01*
X155558653Y-67193229D01*
X155558654Y-67193230D01*
X155593987Y-67246109D01*
X155614865Y-67312786D01*
X155596381Y-67380166D01*
X155593987Y-67383891D01*
X155558654Y-67436769D01*
X155558653Y-67436770D01*
X155547022Y-67495247D01*
X155547022Y-68634752D01*
X145223000Y-68634752D01*
X145223000Y-68023230D01*
X145220146Y-67992800D01*
X145220146Y-67992798D01*
X145175293Y-67864619D01*
X145175292Y-67864617D01*
X145131878Y-67805793D01*
X145094650Y-67755350D01*
X144985382Y-67674707D01*
X144985380Y-67674706D01*
X144857200Y-67629853D01*
X144826770Y-67627000D01*
X144826766Y-67627000D01*
X144018234Y-67627000D01*
X144018230Y-67627000D01*
X143987800Y-67629853D01*
X143987798Y-67629853D01*
X143859619Y-67674706D01*
X143859617Y-67674707D01*
X143750350Y-67755350D01*
X143669707Y-67864617D01*
X143669706Y-67864619D01*
X143624853Y-67992798D01*
X143624853Y-67992800D01*
X143622000Y-68023230D01*
X143622000Y-69831769D01*
X140663000Y-69831769D01*
X140663000Y-68023230D01*
X140660146Y-67992800D01*
X140660146Y-67992798D01*
X140615293Y-67864619D01*
X140615292Y-67864617D01*
X140571878Y-67805793D01*
X140534650Y-67755350D01*
X140425382Y-67674707D01*
X140425380Y-67674706D01*
X140297200Y-67629853D01*
X140266770Y-67627000D01*
X140266766Y-67627000D01*
X139458234Y-67627000D01*
X139458230Y-67627000D01*
X139427800Y-67629853D01*
X139427798Y-67629853D01*
X139299619Y-67674706D01*
X139299617Y-67674707D01*
X139190350Y-67755350D01*
X139109707Y-67864617D01*
X139109706Y-67864619D01*
X139064853Y-67992798D01*
X139064853Y-67992800D01*
X139062000Y-68023230D01*
X139062000Y-69831769D01*
X110971822Y-69831769D01*
X110971822Y-69005846D01*
X131907000Y-69005846D01*
X131913000Y-69051422D01*
X131913001Y-69051426D01*
X131959650Y-69151465D01*
X132037701Y-69229516D01*
X132137740Y-69276165D01*
X132183321Y-69282166D01*
X132481678Y-69282165D01*
X132481680Y-69282165D01*
X132496872Y-69280165D01*
X132527260Y-69276165D01*
X132627299Y-69229516D01*
X132705350Y-69151465D01*
X132751999Y-69051426D01*
X132758000Y-69005846D01*
X133207000Y-69005846D01*
X133213000Y-69051422D01*
X133213001Y-69051426D01*
X133259650Y-69151465D01*
X133337701Y-69229516D01*
X133437740Y-69276165D01*
X133483321Y-69282166D01*
X133781678Y-69282165D01*
X133781680Y-69282165D01*
X133796872Y-69280165D01*
X133827260Y-69276165D01*
X133927299Y-69229516D01*
X134005350Y-69151465D01*
X134051999Y-69051426D01*
X134058000Y-69005845D01*
X134057999Y-68457488D01*
X134051999Y-68411906D01*
X134005350Y-68311867D01*
X133927299Y-68233816D01*
X133827260Y-68187167D01*
X133827258Y-68187166D01*
X133781688Y-68181167D01*
X133781685Y-68181166D01*
X133781679Y-68181166D01*
X133781672Y-68181166D01*
X133483319Y-68181166D01*
X133437743Y-68187166D01*
X133437736Y-68187168D01*
X133337700Y-68233816D01*
X133259650Y-68311866D01*
X133213000Y-68411907D01*
X133207001Y-68457477D01*
X133207000Y-68457493D01*
X133207000Y-69005846D01*
X132758000Y-69005846D01*
X132758000Y-69005845D01*
X132757999Y-68457488D01*
X132751999Y-68411906D01*
X132705350Y-68311867D01*
X132627299Y-68233816D01*
X132527260Y-68187167D01*
X132527258Y-68187166D01*
X132481688Y-68181167D01*
X132481685Y-68181166D01*
X132481679Y-68181166D01*
X132481672Y-68181166D01*
X132183319Y-68181166D01*
X132137743Y-68187166D01*
X132137736Y-68187168D01*
X132037700Y-68233816D01*
X131959650Y-68311866D01*
X131913000Y-68411907D01*
X131907001Y-68457477D01*
X131907000Y-68457493D01*
X131907000Y-69005846D01*
X110971822Y-69005846D01*
X110971822Y-68624316D01*
X115627000Y-68624316D01*
X115633431Y-68673171D01*
X115673711Y-68759552D01*
X115683435Y-68780404D01*
X115767096Y-68864065D01*
X115874327Y-68914068D01*
X115923183Y-68920500D01*
X115923184Y-68920500D01*
X116271817Y-68920500D01*
X116288101Y-68918356D01*
X116320673Y-68914068D01*
X116427904Y-68864065D01*
X116511565Y-68780404D01*
X116511565Y-68780403D01*
X116519236Y-68772733D01*
X116522064Y-68775561D01*
X116560477Y-68744843D01*
X116629974Y-68737635D01*
X116692335Y-68769143D01*
X116695593Y-68772903D01*
X116695764Y-68772733D01*
X116703435Y-68780404D01*
X116787096Y-68864065D01*
X116894327Y-68914068D01*
X116943183Y-68920500D01*
X116943184Y-68920500D01*
X117291817Y-68920500D01*
X117308101Y-68918356D01*
X117340673Y-68914068D01*
X117447904Y-68864065D01*
X117531565Y-68780404D01*
X117581568Y-68673173D01*
X117588000Y-68624316D01*
X117588000Y-68175684D01*
X117581568Y-68126827D01*
X117531565Y-68019596D01*
X117447904Y-67935935D01*
X117340673Y-67885932D01*
X117340671Y-67885931D01*
X117340672Y-67885931D01*
X117291817Y-67879500D01*
X117291816Y-67879500D01*
X116943184Y-67879500D01*
X116943183Y-67879500D01*
X116894328Y-67885931D01*
X116787095Y-67935935D01*
X116695764Y-68027267D01*
X116692940Y-68024443D01*
X116654458Y-68055183D01*
X116584958Y-68062352D01*
X116522614Y-68030808D01*
X116519401Y-68027101D01*
X116519236Y-68027267D01*
X116427904Y-67935935D01*
X116320673Y-67885932D01*
X116320671Y-67885931D01*
X116320672Y-67885931D01*
X116271817Y-67879500D01*
X116271816Y-67879500D01*
X115923184Y-67879500D01*
X115923183Y-67879500D01*
X115874328Y-67885931D01*
X115767095Y-67935935D01*
X115683435Y-68019595D01*
X115633431Y-68126828D01*
X115627000Y-68175683D01*
X115627000Y-68624316D01*
X110971822Y-68624316D01*
X110971822Y-67005846D01*
X132557000Y-67005846D01*
X132563000Y-67051422D01*
X132563001Y-67051426D01*
X132609650Y-67151465D01*
X132687701Y-67229516D01*
X132787740Y-67276165D01*
X132833321Y-67282166D01*
X133131678Y-67282165D01*
X133131680Y-67282165D01*
X133146872Y-67280165D01*
X133177260Y-67276165D01*
X133277299Y-67229516D01*
X133355350Y-67151465D01*
X133401999Y-67051426D01*
X133408000Y-67005845D01*
X133407999Y-66457488D01*
X133401999Y-66411906D01*
X133355350Y-66311867D01*
X133277299Y-66233816D01*
X133177260Y-66187167D01*
X133177258Y-66187166D01*
X133131688Y-66181167D01*
X133131685Y-66181166D01*
X133131679Y-66181166D01*
X133131672Y-66181166D01*
X132833319Y-66181166D01*
X132787743Y-66187166D01*
X132787736Y-66187168D01*
X132687700Y-66233816D01*
X132609650Y-66311866D01*
X132563000Y-66411907D01*
X132557001Y-66457477D01*
X132557000Y-66457493D01*
X132557000Y-67005846D01*
X110971822Y-67005846D01*
X110971822Y-66039856D01*
X115627000Y-66039856D01*
X115627002Y-66039882D01*
X115629913Y-66064987D01*
X115629915Y-66064991D01*
X115675293Y-66167764D01*
X115675294Y-66167765D01*
X115754735Y-66247206D01*
X115857509Y-66292585D01*
X115882635Y-66295500D01*
X116232364Y-66295499D01*
X116232379Y-66295497D01*
X116232382Y-66295497D01*
X116257487Y-66292586D01*
X116257487Y-66292585D01*
X116257491Y-66292585D01*
X116327415Y-66261710D01*
X116396690Y-66252639D01*
X116427585Y-66261710D01*
X116497509Y-66292585D01*
X116522635Y-66295500D01*
X116872364Y-66295499D01*
X116872379Y-66295497D01*
X116872382Y-66295497D01*
X116897487Y-66292586D01*
X116897488Y-66292585D01*
X116897491Y-66292585D01*
X117000265Y-66247206D01*
X117079706Y-66167765D01*
X117125085Y-66064991D01*
X117128000Y-66039865D01*
X117127999Y-65750136D01*
X117127997Y-65750117D01*
X117125086Y-65725012D01*
X117125085Y-65725010D01*
X117125085Y-65725009D01*
X117083921Y-65631780D01*
X139042000Y-65631780D01*
X139044852Y-65662197D01*
X139044854Y-65662209D01*
X139089705Y-65790382D01*
X139089706Y-65790384D01*
X139115714Y-65825624D01*
X139170348Y-65899651D01*
X139200880Y-65922184D01*
X139279616Y-65980294D01*
X139318642Y-65993949D01*
X139407790Y-66025145D01*
X139407794Y-66025145D01*
X139407798Y-66025147D01*
X139423011Y-66026573D01*
X139438220Y-66028000D01*
X139438224Y-66028000D01*
X144846780Y-66028000D01*
X144860298Y-66026732D01*
X144877202Y-66025147D01*
X144877206Y-66025145D01*
X144877209Y-66025145D01*
X144927331Y-66007605D01*
X145005384Y-65980294D01*
X145114651Y-65899651D01*
X145195294Y-65790384D01*
X145231039Y-65688231D01*
X145240145Y-65662209D01*
X145240145Y-65662206D01*
X145240147Y-65662202D01*
X145243000Y-65631776D01*
X145243000Y-62764752D01*
X162669500Y-62764752D01*
X162681131Y-62823229D01*
X162681132Y-62823230D01*
X162725447Y-62889552D01*
X162791769Y-62933867D01*
X162791770Y-62933868D01*
X162850247Y-62945499D01*
X162850250Y-62945500D01*
X162850252Y-62945500D01*
X164489750Y-62945500D01*
X164489751Y-62945499D01*
X164504568Y-62942552D01*
X164548229Y-62933868D01*
X164548229Y-62933867D01*
X164548231Y-62933867D01*
X164614552Y-62889552D01*
X164658867Y-62823231D01*
X164658867Y-62823229D01*
X164658868Y-62823229D01*
X164670499Y-62764752D01*
X166169500Y-62764752D01*
X166181131Y-62823229D01*
X166181132Y-62823230D01*
X166225447Y-62889552D01*
X166291769Y-62933867D01*
X166291770Y-62933868D01*
X166350247Y-62945499D01*
X166350250Y-62945500D01*
X166350252Y-62945500D01*
X167989750Y-62945500D01*
X167989751Y-62945499D01*
X168004568Y-62942552D01*
X168048229Y-62933868D01*
X168048229Y-62933867D01*
X168048231Y-62933867D01*
X168114552Y-62889552D01*
X168158867Y-62823231D01*
X168158867Y-62823229D01*
X168158868Y-62823229D01*
X168170499Y-62764752D01*
X168170500Y-62764750D01*
X168170500Y-61875249D01*
X168170499Y-61875247D01*
X168158868Y-61816770D01*
X168158867Y-61816769D01*
X168114552Y-61750447D01*
X168048230Y-61706132D01*
X168048229Y-61706131D01*
X167989752Y-61694500D01*
X167989748Y-61694500D01*
X166350252Y-61694500D01*
X166350247Y-61694500D01*
X166291770Y-61706131D01*
X166291769Y-61706132D01*
X166225447Y-61750447D01*
X166181132Y-61816769D01*
X166181131Y-61816770D01*
X166169500Y-61875247D01*
X166169500Y-62764752D01*
X164670499Y-62764752D01*
X164670500Y-62764750D01*
X164670500Y-61875249D01*
X164670499Y-61875247D01*
X164658868Y-61816770D01*
X164658867Y-61816769D01*
X164614552Y-61750447D01*
X164548230Y-61706132D01*
X164548229Y-61706131D01*
X164489752Y-61694500D01*
X164489748Y-61694500D01*
X162850252Y-61694500D01*
X162850247Y-61694500D01*
X162791770Y-61706131D01*
X162791769Y-61706132D01*
X162725447Y-61750447D01*
X162681132Y-61816769D01*
X162681131Y-61816770D01*
X162669500Y-61875247D01*
X162669500Y-62764752D01*
X145243000Y-62764752D01*
X145243000Y-62214752D01*
X155779500Y-62214752D01*
X155791131Y-62273229D01*
X155791132Y-62273230D01*
X155835447Y-62339552D01*
X155901769Y-62383867D01*
X155901770Y-62383868D01*
X155960247Y-62395499D01*
X155960250Y-62395500D01*
X155960252Y-62395500D01*
X158199750Y-62395500D01*
X158199751Y-62395499D01*
X158214568Y-62392552D01*
X158258229Y-62383868D01*
X158258229Y-62383867D01*
X158258231Y-62383867D01*
X158324552Y-62339552D01*
X158351898Y-62298627D01*
X158405510Y-62253821D01*
X158474835Y-62245114D01*
X158537862Y-62275268D01*
X158558102Y-62298627D01*
X158585446Y-62339551D01*
X158651769Y-62383867D01*
X158651770Y-62383868D01*
X158710247Y-62395499D01*
X158710250Y-62395500D01*
X158710252Y-62395500D01*
X159999750Y-62395500D01*
X159999751Y-62395499D01*
X160014568Y-62392552D01*
X160058229Y-62383868D01*
X160058229Y-62383867D01*
X160058231Y-62383867D01*
X160124552Y-62339552D01*
X160168867Y-62273231D01*
X160168867Y-62273229D01*
X160168868Y-62273229D01*
X160180499Y-62214752D01*
X160180500Y-62214750D01*
X160180500Y-61014752D01*
X162669500Y-61014752D01*
X162681131Y-61073229D01*
X162681132Y-61073230D01*
X162725447Y-61139552D01*
X162791769Y-61183867D01*
X162791770Y-61183868D01*
X162850247Y-61195499D01*
X162850250Y-61195500D01*
X162850252Y-61195500D01*
X164489750Y-61195500D01*
X164489751Y-61195499D01*
X164504568Y-61192552D01*
X164548229Y-61183868D01*
X164548229Y-61183867D01*
X164548231Y-61183867D01*
X164614552Y-61139552D01*
X164658867Y-61073231D01*
X164658867Y-61073229D01*
X164658868Y-61073229D01*
X164670499Y-61014752D01*
X166169500Y-61014752D01*
X166181131Y-61073229D01*
X166181132Y-61073230D01*
X166225447Y-61139552D01*
X166291769Y-61183867D01*
X166291770Y-61183868D01*
X166350247Y-61195499D01*
X166350250Y-61195500D01*
X166350252Y-61195500D01*
X167989750Y-61195500D01*
X167989751Y-61195499D01*
X168004568Y-61192552D01*
X168048229Y-61183868D01*
X168048229Y-61183867D01*
X168048231Y-61183867D01*
X168114552Y-61139552D01*
X168158867Y-61073231D01*
X168158867Y-61073229D01*
X168158868Y-61073229D01*
X168170499Y-61014752D01*
X168170500Y-61014750D01*
X168170500Y-60125249D01*
X168170499Y-60125247D01*
X168158868Y-60066770D01*
X168158867Y-60066769D01*
X168114552Y-60000447D01*
X168048230Y-59956132D01*
X168048229Y-59956131D01*
X167989752Y-59944500D01*
X167989748Y-59944500D01*
X166350252Y-59944500D01*
X166350247Y-59944500D01*
X166291770Y-59956131D01*
X166291769Y-59956132D01*
X166225447Y-60000447D01*
X166181132Y-60066769D01*
X166181131Y-60066770D01*
X166169500Y-60125247D01*
X166169500Y-61014752D01*
X164670499Y-61014752D01*
X164670500Y-61014750D01*
X164670500Y-60125249D01*
X164670499Y-60125247D01*
X164658868Y-60066770D01*
X164658867Y-60066769D01*
X164614552Y-60000447D01*
X164548230Y-59956132D01*
X164548229Y-59956131D01*
X164489752Y-59944500D01*
X164489748Y-59944500D01*
X162850252Y-59944500D01*
X162850247Y-59944500D01*
X162791770Y-59956131D01*
X162791769Y-59956132D01*
X162725447Y-60000447D01*
X162681132Y-60066769D01*
X162681131Y-60066770D01*
X162669500Y-60125247D01*
X162669500Y-61014752D01*
X160180500Y-61014752D01*
X160180500Y-59975249D01*
X160180499Y-59975247D01*
X160168868Y-59916770D01*
X160168867Y-59916769D01*
X160124552Y-59850447D01*
X160058230Y-59806132D01*
X160058229Y-59806131D01*
X159999752Y-59794500D01*
X159999748Y-59794500D01*
X158710252Y-59794500D01*
X158710247Y-59794500D01*
X158651770Y-59806131D01*
X158651769Y-59806132D01*
X158585447Y-59850447D01*
X158558102Y-59891373D01*
X158504489Y-59936178D01*
X158435164Y-59944885D01*
X158372137Y-59914730D01*
X158351898Y-59891373D01*
X158324552Y-59850447D01*
X158258230Y-59806132D01*
X158258229Y-59806131D01*
X158199752Y-59794500D01*
X158199748Y-59794500D01*
X155960252Y-59794500D01*
X155960247Y-59794500D01*
X155901770Y-59806131D01*
X155901769Y-59806132D01*
X155835447Y-59850447D01*
X155791132Y-59916769D01*
X155791131Y-59916770D01*
X155779500Y-59975247D01*
X155779500Y-62214752D01*
X145243000Y-62214752D01*
X145243000Y-59623224D01*
X145240147Y-59592798D01*
X145240145Y-59592794D01*
X145240145Y-59592790D01*
X145195294Y-59464617D01*
X145195294Y-59464616D01*
X145154972Y-59409982D01*
X145114651Y-59355348D01*
X145040624Y-59300714D01*
X145005384Y-59274706D01*
X145005382Y-59274705D01*
X144877209Y-59229854D01*
X144877197Y-59229852D01*
X144846780Y-59227000D01*
X144846776Y-59227000D01*
X139438224Y-59227000D01*
X139438220Y-59227000D01*
X139407802Y-59229852D01*
X139407790Y-59229854D01*
X139279617Y-59274705D01*
X139170348Y-59355348D01*
X139089705Y-59464617D01*
X139044854Y-59592790D01*
X139044852Y-59592802D01*
X139042000Y-59623219D01*
X139042000Y-65631780D01*
X117083921Y-65631780D01*
X117079706Y-65622235D01*
X117000265Y-65542794D01*
X116987958Y-65537360D01*
X116897492Y-65497415D01*
X116872365Y-65494500D01*
X116522643Y-65494500D01*
X116522617Y-65494502D01*
X116497512Y-65497413D01*
X116497511Y-65497414D01*
X116427585Y-65528289D01*
X116358307Y-65537360D01*
X116327414Y-65528289D01*
X116257491Y-65497415D01*
X116232365Y-65494500D01*
X115882643Y-65494500D01*
X115882617Y-65494502D01*
X115857512Y-65497413D01*
X115857508Y-65497415D01*
X115754735Y-65542793D01*
X115675294Y-65622234D01*
X115629915Y-65725006D01*
X115629915Y-65725008D01*
X115627000Y-65750131D01*
X115627000Y-66039856D01*
X110971822Y-66039856D01*
X110971822Y-63969450D01*
X131512000Y-63969450D01*
X131522279Y-64040006D01*
X131575489Y-64148849D01*
X131661151Y-64234511D01*
X131769988Y-64287719D01*
X131769989Y-64287719D01*
X131769991Y-64287720D01*
X131840551Y-64298000D01*
X132234448Y-64297999D01*
X132234450Y-64297999D01*
X132262672Y-64293887D01*
X132305009Y-64287720D01*
X132413847Y-64234512D01*
X132499512Y-64148847D01*
X132552720Y-64040009D01*
X132563000Y-63969450D01*
X133412000Y-63969450D01*
X133422279Y-64040006D01*
X133475489Y-64148849D01*
X133561151Y-64234511D01*
X133669988Y-64287719D01*
X133669989Y-64287719D01*
X133669991Y-64287720D01*
X133740551Y-64298000D01*
X134134448Y-64297999D01*
X134134450Y-64297999D01*
X134162672Y-64293887D01*
X134205009Y-64287720D01*
X134313847Y-64234512D01*
X134399512Y-64148847D01*
X134452720Y-64040009D01*
X134463000Y-63969449D01*
X134462999Y-63005552D01*
X134452720Y-62934991D01*
X134399512Y-62826153D01*
X134399510Y-62826151D01*
X134399510Y-62826150D01*
X134313848Y-62740488D01*
X134205011Y-62687280D01*
X134187369Y-62684710D01*
X134134449Y-62677000D01*
X134134443Y-62677000D01*
X133740549Y-62677000D01*
X133669993Y-62687279D01*
X133561150Y-62740489D01*
X133475488Y-62826151D01*
X133422280Y-62934988D01*
X133420749Y-62945499D01*
X133412000Y-63005551D01*
X133412000Y-63005555D01*
X133412000Y-63005556D01*
X133412000Y-63969450D01*
X132563000Y-63969450D01*
X132563000Y-63969449D01*
X132562999Y-63005552D01*
X132552720Y-62934991D01*
X132499512Y-62826153D01*
X132499510Y-62826151D01*
X132499510Y-62826150D01*
X132413848Y-62740488D01*
X132305011Y-62687280D01*
X132287369Y-62684710D01*
X132234449Y-62677000D01*
X132234443Y-62677000D01*
X131840549Y-62677000D01*
X131769993Y-62687279D01*
X131661150Y-62740489D01*
X131575488Y-62826151D01*
X131522280Y-62934988D01*
X131520749Y-62945499D01*
X131512000Y-63005551D01*
X131512000Y-63005555D01*
X131512000Y-63005556D01*
X131512000Y-63969450D01*
X110971822Y-63969450D01*
X110971822Y-58612208D01*
X110971823Y-58612205D01*
X110971822Y-58550060D01*
X110972048Y-58542574D01*
X110978698Y-58432628D01*
X110989592Y-58252514D01*
X110991397Y-58237653D01*
X111018441Y-58090073D01*
X111043101Y-57955502D01*
X111046678Y-57940993D01*
X111132014Y-57667135D01*
X111137316Y-57653155D01*
X111255045Y-57391570D01*
X111261997Y-57378325D01*
X111410389Y-57132852D01*
X111418894Y-57120532D01*
X111466653Y-57059572D01*
X111595796Y-56894732D01*
X111605711Y-56883541D01*
X111808542Y-56680711D01*
X111819733Y-56670796D01*
X112045545Y-56493883D01*
X112057848Y-56485391D01*
X112303319Y-56337000D01*
X112316570Y-56330045D01*
X112578156Y-56212316D01*
X112592136Y-56207014D01*
X112865994Y-56121678D01*
X112880503Y-56118101D01*
X113162656Y-56066396D01*
X113177514Y-56064592D01*
X113467578Y-56047047D01*
X113475059Y-56046822D01*
X113531851Y-56046822D01*
X113598887Y-56066507D01*
G37*
%TD.AperFunction*%
M02*
